<svg width="467" height="889" viewBox="0 0 467 889" fill="none" xmlns="http://www.w3.org/2000/svg">
<path fill-rule="evenodd" clip-rule="evenodd" d="M271.569 264.503C228.597 180.009 131.206 130.127 36.583 124.451C-57.2115 118.825 -156.35 158.965 -210.765 235.569C-258.78 303.165 -220.982 392.38 -212.309 474.84C-205.932 535.463 -196.854 591.468 -167.699 645.002C-126.877 719.96 -99.0612 825.851 -14.5667 837.93C70.2907 850.061 136.891 764.711 187.927 695.839C227.962 641.813 218.146 572.63 230.947 506.617C247.142 423.102 310.134 340.33 271.569 264.503Z" fill="#E1D3F9"/>
<g filter="url(#filter0_d_91_4)">
<path d="M240.315 774.261L250.831 771.122C251.558 768.583 252.558 766.131 253.813 763.808L248.665 754.172C248.472 753.808 248.401 753.392 248.463 752.985C248.525 752.577 248.717 752.201 249.01 751.912L256.512 744.378C256.802 744.085 257.178 743.894 257.585 743.831C257.992 743.769 258.408 743.84 258.772 744.033L268.346 749.15C270.692 747.833 273.176 746.781 275.754 746.011L278.892 735.621C279.025 735.238 279.276 734.907 279.609 734.676C279.942 734.445 280.339 734.325 280.744 734.334H291.354C291.761 734.336 292.158 734.468 292.485 734.711C292.813 734.953 293.054 735.294 293.174 735.684L296.313 746.042C298.912 746.808 301.418 747.861 303.784 749.181L313.2 744.096C313.564 743.903 313.981 743.832 314.388 743.894C314.795 743.956 315.171 744.148 315.46 744.441L323.088 751.88C323.381 752.17 323.573 752.546 323.635 752.953C323.697 753.36 323.626 753.777 323.433 754.14L318.348 763.557C319.666 765.913 320.719 768.408 321.487 770.996L331.877 774.135C332.266 774.255 332.607 774.497 332.85 774.824C333.093 775.152 333.225 775.548 333.227 775.956V786.565C333.225 786.973 333.093 787.369 332.85 787.696C332.607 788.024 332.266 788.265 331.877 788.386L321.424 791.525C320.648 794.07 319.595 796.522 318.285 798.838L323.433 808.694C323.626 809.058 323.697 809.474 323.635 809.881C323.573 810.289 323.381 810.665 323.088 810.954L315.586 818.456C315.297 818.749 314.92 818.941 314.513 819.003C314.106 819.065 313.69 818.995 313.326 818.801L303.627 813.622C301.332 814.86 298.912 815.85 296.407 816.573L293.269 827.151C293.148 827.54 292.907 827.881 292.579 828.124C292.252 828.367 291.856 828.499 291.448 828.501H280.839C280.431 828.499 280.035 828.367 279.707 828.124C279.38 827.881 279.138 827.54 279.018 827.151L275.879 816.541C273.396 815.814 270.997 814.825 268.722 813.591L258.96 818.801C258.597 818.995 258.18 819.065 257.773 819.003C257.366 818.941 256.99 818.749 256.7 818.456L249.199 810.954C248.906 810.665 248.714 810.289 248.652 809.881C248.589 809.474 248.66 809.058 248.853 808.694L254.064 798.964C252.817 796.681 251.817 794.271 251.082 791.776L240.504 788.637C240.114 788.516 239.773 788.275 239.531 787.948C239.288 787.62 239.156 787.224 239.154 786.816V776.113C239.136 775.722 239.237 775.336 239.445 775.005C239.652 774.674 239.956 774.414 240.315 774.261ZM286.049 798.681C289.464 798.681 292.801 797.669 295.64 795.772C298.479 793.875 300.692 791.178 301.999 788.024C303.305 784.869 303.647 781.398 302.981 778.049C302.315 774.7 300.671 771.624 298.256 769.21C295.842 766.795 292.766 765.151 289.417 764.485C286.068 763.819 282.597 764.161 279.442 765.468C276.288 766.774 273.592 768.987 271.695 771.826C269.798 774.665 268.785 778.003 268.785 781.417C268.785 785.996 270.604 790.387 273.842 793.625C277.079 796.862 281.47 798.681 286.049 798.681Z" fill="#AFB0F1"/>
</g>
<g clip-path="url(#clip0_91_4)">
<g filter="url(#filter1_d_91_4)">
<path d="M134.65 662.714L150.376 658.02C151.464 654.223 152.959 650.556 154.836 647.082L147.137 632.67C146.848 632.126 146.742 631.503 146.836 630.894C146.929 630.285 147.215 629.723 147.654 629.29L158.873 618.023C159.306 617.585 159.869 617.298 160.478 617.205C161.087 617.112 161.709 617.218 162.253 617.507L176.571 625.158C180.08 623.19 183.795 621.616 187.65 620.464L192.345 604.925C192.543 604.353 192.918 603.858 193.416 603.512C193.914 603.166 194.508 602.987 195.114 603.001H210.982C211.591 603.004 212.184 603.201 212.674 603.564C213.163 603.927 213.524 604.437 213.704 605.019L218.399 620.511C222.286 621.656 226.033 623.231 229.572 625.205L243.655 617.6C244.199 617.312 244.822 617.206 245.43 617.299C246.039 617.392 246.602 617.679 247.035 618.117L258.442 629.243C258.881 629.676 259.167 630.238 259.26 630.847C259.353 631.456 259.248 632.079 258.959 632.623L251.354 646.706C253.325 650.23 254.9 653.961 256.048 657.832L271.587 662.526C272.169 662.706 272.679 663.067 273.042 663.557C273.405 664.047 273.603 664.639 273.605 665.249V681.116C273.603 681.726 273.405 682.319 273.042 682.808C272.679 683.298 272.169 683.659 271.587 683.839L255.954 688.533C254.793 692.34 253.219 696.008 251.26 699.472L258.959 714.212C259.248 714.756 259.353 715.379 259.26 715.988C259.167 716.597 258.881 717.159 258.442 717.592L247.223 728.812C246.79 729.25 246.227 729.537 245.618 729.63C245.009 729.723 244.387 729.617 243.843 729.328L229.337 721.582C225.905 723.434 222.286 724.913 218.54 725.995L213.845 741.815C213.665 742.398 213.304 742.908 212.815 743.271C212.325 743.634 211.732 743.831 211.122 743.834H195.255C194.646 743.831 194.053 743.634 193.563 743.271C193.073 742.908 192.712 742.398 192.532 741.815L187.838 725.948C184.124 724.861 180.536 723.382 177.135 721.535L162.535 729.328C161.991 729.617 161.368 729.723 160.759 729.63C160.151 729.537 159.588 729.25 159.155 728.812L147.935 717.592C147.497 717.159 147.21 716.597 147.117 715.988C147.024 715.379 147.13 714.756 147.419 714.212L155.212 699.659C153.346 696.245 151.851 692.641 150.752 688.909L134.932 684.215C134.349 684.035 133.839 683.674 133.476 683.184C133.113 682.694 132.916 682.101 132.913 681.492V665.484C132.885 664.9 133.037 664.322 133.347 663.827C133.658 663.332 134.112 662.943 134.65 662.714ZM203.048 699.237C208.155 699.237 213.147 697.723 217.392 694.885C221.638 692.048 224.948 688.016 226.902 683.298C228.856 678.58 229.368 673.389 228.371 668.38C227.375 663.372 224.916 658.771 221.305 655.16C217.694 651.549 213.094 649.09 208.085 648.094C203.077 647.098 197.885 647.609 193.167 649.563C188.449 651.518 184.417 654.827 181.58 659.073C178.743 663.319 177.229 668.311 177.229 673.417C177.229 680.265 179.949 686.832 184.791 691.674C189.633 696.517 196.2 699.237 203.048 699.237Z" fill="#AFB0F1"/>
</g>
</g>
<defs>
<filter id="filter0_d_91_4" x="239.152" y="734.333" width="111.074" height="110.167" filterUnits="userSpaceOnUse" color-interpolation-filters="sRGB">
<feFlood flood-opacity="0" result="BackgroundImageFix"/>
<feColorMatrix in="SourceAlpha" type="matrix" values="0 0 0 0 0 0 0 0 0 0 0 0 0 0 0 0 0 0 127 0" result="hardAlpha"/>
<feOffset dx="9" dy="8"/>
<feGaussianBlur stdDeviation="4"/>
<feComposite in2="hardAlpha" operator="out"/>
<feColorMatrix type="matrix" values="0 0 0 0 0 0 0 0 0 0 0 0 0 0 0 0 0 0 0.25 0"/>
<feBlend mode="normal" in2="BackgroundImageFix" result="effect1_dropShadow_91_4"/>
<feBlend mode="normal" in="SourceGraphic" in2="effect1_dropShadow_91_4" result="shape"/>
</filter>
<filter id="filter1_d_91_4" x="132.91" y="603" width="157.695" height="156.834" filterUnits="userSpaceOnUse" color-interpolation-filters="sRGB">
<feFlood flood-opacity="0" result="BackgroundImageFix"/>
<feColorMatrix in="SourceAlpha" type="matrix" values="0 0 0 0 0 0 0 0 0 0 0 0 0 0 0 0 0 0 127 0" result="hardAlpha"/>
<feOffset dx="9" dy="8"/>
<feGaussianBlur stdDeviation="4"/>
<feComposite in2="hardAlpha" operator="out"/>
<feColorMatrix type="matrix" values="0 0 0 0 0 0 0 0 0 0 0 0 0 0 0 0 0 0 0.25 0"/>
<feBlend mode="normal" in2="BackgroundImageFix" result="effect1_dropShadow_91_4"/>
<feBlend mode="normal" in="SourceGraphic" in2="effect1_dropShadow_91_4" result="shape"/>
</filter>
<clipPath id="clip0_91_4">
<rect width="197" height="169" fill="white" transform="matrix(-1 0 0 1 305 590)"/>
</clipPath>
</defs>
</svg>
