<svg width="634" height="637" viewBox="0 0 634 637" fill="none" xmlns="http://www.w3.org/2000/svg">
<path fill-rule="evenodd" clip-rule="evenodd" d="M324.66 102.508C390.505 92.9113 469.743 74.6503 515.601 122.865C561.263 170.874 527.898 247.588 525.629 313.805C523.497 376.049 543.924 445.192 502.952 492.097C460.628 540.548 388.737 549.621 324.66 543.869C266.129 538.615 217.356 504.219 175.742 462.723C134.051 421.151 92.6126 372.667 93.9372 313.805C95.2435 255.759 139.479 210.656 182.297 171.443C222.719 134.424 270.422 110.413 324.66 102.508Z" fill="url(#paint0_linear_40_248)"/>
<path fill-rule="evenodd" clip-rule="evenodd" d="M438.156 132.479C501.268 158.93 580.778 184.847 595.628 251.648C610.415 318.164 540.341 368.078 503.236 425.229C468.358 478.95 449.701 550.713 388.728 570.324C325.743 590.583 257.579 560.465 204.162 521.425C155.367 485.763 130.623 429.595 115.95 370.965C101.249 312.226 90.4365 247.532 122.81 196.362C154.736 145.901 217.629 129.607 276.153 117.751C331.399 106.559 386.168 110.69 438.156 132.479Z" fill="url(#paint1_linear_40_248)" fill-opacity="0.5"/>
<defs>
<linearGradient id="paint0_linear_40_248" x1="93.9062" y1="318.198" x2="539.51" y2="318.198" gradientUnits="userSpaceOnUse">
<stop stop-color="#4776E6"/>
<stop offset="0.541667" stop-color="#7D34F0"/>
<stop offset="1" stop-color="#B054E9"/>
</linearGradient>
<linearGradient id="paint1_linear_40_248" x1="120.454" y1="200.217" x2="513.139" y2="436.46" gradientUnits="userSpaceOnUse">
<stop stop-color="#4776E6"/>
<stop offset="0.541667" stop-color="#7D34F0"/>
<stop offset="1" stop-color="#B054E9"/>
</linearGradient>
</defs>
</svg>
