<svg width="51" height="51" viewBox="0 0 51 51" fill="none" xmlns="http://www.w3.org/2000/svg">
<path d="M8.17588 8.17588C11.6023 4.7495 15.9678 2.4161 20.7203 1.47076C25.4728 0.525423 30.399 1.0106 34.8757 2.86495C39.3525 4.7193 43.1789 7.85952 45.871 11.8885C48.5631 15.9175 50 20.6544 50 25.5C50 30.3456 48.5631 35.0825 45.871 39.1115C43.1789 43.1405 39.3525 46.2807 34.8757 48.135C30.399 49.9894 25.4728 50.4746 20.7203 49.5292C15.9678 48.5839 11.6023 46.2505 8.17588 42.8241" stroke="#F5BD1F" stroke-width="2"/>
<path d="M33.5 18.5L18.5 33.5" stroke="#F5BD1F" stroke-width="2" stroke-linecap="round" stroke-linejoin="round"/>
<path d="M21 18.5H33.5V31" stroke="#F5BD1F" stroke-width="2" stroke-linecap="round" stroke-linejoin="round"/>
</svg>
