<svg width="25" height="26" viewBox="0 0 25 26" fill="none" xmlns="http://www.w3.org/2000/svg">
<path d="M17.2138 11.886H7.92975C7.82337 11.886 7.73633 11.9739 7.73633 12.0813V21.8958C7.73633 22.0032 7.82337 22.0911 7.92975 22.0911H17.2138C17.3201 22.0911 17.4072 22.0032 17.4072 21.8958V12.0813C17.4072 11.9739 17.3201 11.886 17.2138 11.886ZM9.28366 13.4485H15.8598V16.3049H9.28366V13.4485ZM15.8598 20.5286H9.28366V17.6721H15.8598V20.5286Z" fill="#111111"/>
<path d="M10.4453 19.259C10.4453 19.4662 10.5268 19.6649 10.6719 19.8115C10.817 19.958 11.0138 20.0403 11.219 20.0403C11.4242 20.0403 11.621 19.958 11.766 19.8115C11.9111 19.6649 11.9926 19.4662 11.9926 19.259C11.9926 19.0518 11.9111 18.8531 11.766 18.7066C11.621 18.5601 11.4242 18.4778 11.219 18.4778C11.0138 18.4778 10.817 18.5601 10.6719 18.7066C10.5268 18.8531 10.4453 19.0518 10.4453 19.259ZM10.4453 14.9133C10.4453 15.1205 10.5268 15.3192 10.6719 15.4658C10.817 15.6123 11.0138 15.6946 11.219 15.6946C11.4242 15.6946 11.621 15.6123 11.766 15.4658C11.9111 15.3192 11.9926 15.1205 11.9926 14.9133C11.9926 14.7061 11.9111 14.5074 11.766 14.3609C11.621 14.2144 11.4242 14.1321 11.219 14.1321C11.0138 14.1321 10.817 14.2144 10.6719 14.3609C10.5268 14.5074 10.4453 14.7061 10.4453 14.9133Z" fill="#111111"/>
<path d="M19.8103 10.0037C18.703 7.052 15.8815 4.95239 12.5765 4.95239C9.27148 4.95239 6.45001 7.04956 5.3427 10.0012C3.26105 10.5554 1.72822 12.4768 1.74031 14.7571C1.75481 17.3059 3.71316 19.3787 6.17923 19.6008C6.29286 19.6106 6.38957 19.5203 6.38957 19.4055V17.9309C6.38957 17.8333 6.31704 17.7502 6.22033 17.738C5.56754 17.655 4.95103 17.3669 4.47716 16.8958C3.8969 16.322 3.57777 15.5505 3.57777 14.7327C3.57777 14.0491 3.79778 13.4045 4.21121 12.8674C4.61497 12.345 5.18313 11.9666 5.80932 11.8005L6.72563 11.5564L7.06169 10.6604C7.26961 10.1038 7.55974 9.5813 7.92481 9.11011C8.28505 8.64136 8.71299 8.2312 9.1917 7.8894C10.1854 7.18384 11.3555 6.8103 12.5765 6.8103C13.7974 6.8103 14.9676 7.18384 15.9613 7.89185C16.4424 8.23364 16.8679 8.6438 17.2282 9.11255C17.5932 9.58374 17.8834 10.1062 18.0913 10.6628L18.4249 11.5564L19.3388 11.8005C20.6492 12.1521 21.5655 13.3557 21.5655 14.7302C21.5655 15.5505 21.2464 16.3196 20.6662 16.8933C20.1947 17.3621 19.5806 17.6526 18.9278 17.7356C18.8311 17.7478 18.761 17.8308 18.761 17.9285V19.4055C18.761 19.5203 18.8601 19.6106 18.9738 19.6008C21.4326 19.3762 23.3861 17.3059 23.403 14.762C23.4175 12.4817 21.8871 10.5603 19.8103 10.0037Z" fill="#111111"/>
</svg>
