<svg width="146" height="147" viewBox="0 0 146 147" fill="none" xmlns="http://www.w3.org/2000/svg">
<path d="M73 3C54.4348 3 36.6301 10.375 23.5025 23.5025C10.375 36.6301 3 54.4348 3 73C3 91.5651 10.375 109.37 23.5025 122.497C36.6301 135.625 54.4348 143 73 143" stroke="black" stroke-width="5" stroke-dasharray="7 7"/>
<path d="M73 3C54.4348 3 36.6301 10.375 23.5025 23.5025C10.375 36.6301 3 54.4348 3 73C3 91.5651 10.375 109.37 23.5025 122.497C36.6301 135.625 54.4348 143 73 143" stroke="#DB6F20" stroke-width="5" stroke-dasharray="7 7"/>
<path d="M73 143C82.1925 143 91.295 141.189 99.7878 137.672C108.281 134.154 115.997 128.998 122.497 122.497C128.998 115.997 134.154 108.281 137.672 99.7878C141.189 91.295 143 82.1925 143 73C143 63.8075 141.189 54.7049 137.672 46.2122C134.154 37.7194 128.998 30.0026 122.497 23.5025C115.997 17.0024 108.281 11.8463 99.7878 8.32843C91.295 4.8106 82.1925 3 73 3" stroke="black" stroke-width="5"/>
<path d="M73 143C82.1925 143 91.295 141.189 99.7878 137.672C108.281 134.154 115.997 128.998 122.497 122.497C128.998 115.997 134.154 108.281 137.672 99.7878C141.189 91.295 143 82.1925 143 73C143 63.8075 141.189 54.7049 137.672 46.2122C134.154 37.7194 128.998 30.0026 122.497 23.5025C115.997 17.0024 108.281 11.8463 99.7878 8.32843C91.295 4.8106 82.1925 3 73 3" stroke="#DB6F20" stroke-width="5"/>
<g filter="url(#filter0_di_1_992)">
<circle cx="73" cy="73" r="60" fill="white"/>
<circle cx="73" cy="73" r="57.5" stroke="white" stroke-width="5"/>
</g>
<path fill-rule="evenodd" clip-rule="evenodd" d="M84.5334 63.8092C84.7517 64.0269 84.9249 64.2855 85.043 64.5703C85.1612 64.855 85.222 65.1603 85.222 65.4685C85.222 65.7768 85.1612 66.0821 85.043 66.3668C84.9249 66.6516 84.7517 66.9102 84.5334 67.1279L70.4709 81.1904C70.2532 81.4087 69.9946 81.5819 69.7098 81.7C69.4251 81.8182 69.1198 81.879 68.8116 81.879C68.5033 81.879 68.198 81.8182 67.9133 81.7C67.6285 81.5819 67.3699 81.4087 67.1522 81.1904L60.1209 74.1592C59.903 73.9413 59.7302 73.6826 59.6122 73.3978C59.4943 73.1131 59.4336 72.808 59.4336 72.4998C59.4336 72.1916 59.4943 71.8865 59.6122 71.6017C59.7302 71.317 59.903 71.0583 60.1209 70.8404C60.3388 70.6225 60.5975 70.4496 60.8823 70.3317C61.167 70.2138 61.4721 70.1531 61.7803 70.1531C62.0885 70.1531 62.3936 70.2138 62.6784 70.3317C62.9631 70.4496 63.2218 70.6225 63.4397 70.8404L68.8116 76.217L81.2147 63.8092C81.4324 63.5909 81.691 63.4177 81.9758 63.2996C82.2605 63.1814 82.5658 63.1206 82.8741 63.1206C83.1823 63.1206 83.4876 63.1814 83.7723 63.2996C84.0571 63.4177 84.3157 63.5909 84.5334 63.8092Z" fill="#E47321"/>
<path d="M56.6531 50.6656C61.3382 46.6256 67.3136 44.3944 73.5 44.375C86.1094 44.375 96.5766 53.75 97.7156 65.8391C105.178 66.8937 111 73.1422 111 80.8109C111 89.2297 103.978 95.9375 95.4703 95.9375H53.7234C44.0062 95.9375 36 88.2781 36 78.6781C36 70.4141 41.9344 63.5703 49.7906 61.8359C50.4609 57.7906 53.0625 53.7594 56.6531 50.6656ZM59.7141 54.2141C56.1656 57.275 54.3094 60.9641 54.3094 63.8516V65.9516L52.2234 66.1812C45.675 66.8984 40.6875 72.275 40.6875 78.6781C40.6875 85.5547 46.4531 91.25 53.7234 91.25H95.4703C101.531 91.25 106.312 86.5062 106.312 80.8109C106.312 75.1109 101.531 70.3672 95.4703 70.3672H93.1266V68.0234C93.1313 57.6172 84.4125 49.0625 73.5 49.0625C68.4369 49.0827 63.5477 50.9114 59.7141 54.2188V54.2141Z" fill="#E47321"/>
<defs>
<filter id="filter0_di_1_992" x="3" y="7" width="140" height="140" filterUnits="userSpaceOnUse" color-interpolation-filters="sRGB">
<feFlood flood-opacity="0" result="BackgroundImageFix"/>
<feColorMatrix in="SourceAlpha" type="matrix" values="0 0 0 0 0 0 0 0 0 0 0 0 0 0 0 0 0 0 127 0" result="hardAlpha"/>
<feOffset dy="4"/>
<feGaussianBlur stdDeviation="5"/>
<feComposite in2="hardAlpha" operator="out"/>
<feColorMatrix type="matrix" values="0 0 0 0 0 0 0 0 0 0 0 0 0 0 0 0 0 0 0.25 0"/>
<feBlend mode="normal" in2="BackgroundImageFix" result="effect1_dropShadow_1_992"/>
<feBlend mode="normal" in="SourceGraphic" in2="effect1_dropShadow_1_992" result="shape"/>
<feColorMatrix in="SourceAlpha" type="matrix" values="0 0 0 0 0 0 0 0 0 0 0 0 0 0 0 0 0 0 127 0" result="hardAlpha"/>
<feOffset dx="2" dy="4"/>
<feGaussianBlur stdDeviation="7.5"/>
<feComposite in2="hardAlpha" operator="arithmetic" k2="-1" k3="1"/>
<feColorMatrix type="matrix" values="0 0 0 0 0 0 0 0 0 0 0 0 0 0 0 0 0 0 0.25 0"/>
<feBlend mode="normal" in2="shape" result="effect2_innerShadow_1_992"/>
</filter>
</defs>
</svg>
