<svg width="153" height="200" viewBox="0 0 153 200" fill="none" xmlns="http://www.w3.org/2000/svg">
<path d="M126.872 0.879112L35.6089 53.5071C34.5422 54.1948 33.6538 55.1257 33.0166 56.2233C32.3794 57.321 32.0116 58.554 31.9434 59.8214V184.609C32.0158 185.871 32.3855 187.099 33.0225 188.192C33.6595 189.285 34.5457 190.211 35.6089 190.896L50.1371 199.137C51.2709 199.704 52.5213 200 53.7892 200C55.0571 200 56.3075 199.704 57.4413 199.137L148.704 146.536C149.774 145.845 150.665 144.91 151.302 143.808C151.94 142.705 152.306 141.467 152.37 140.195V15.3806C152.297 14.1179 151.927 12.8901 151.29 11.7975C150.653 10.7048 149.767 9.77816 148.704 9.09303L134.203 0.852356C133.062 0.288785 131.806 -0.00214693 130.534 0.00249612C129.262 0.00713917 128.008 0.30723 126.872 0.879112V0.879112Z" fill="#BF99FF"/>
<path opacity="0.2" d="M57.4413 199.11C56.2988 199.664 55.0456 199.952 53.7758 199.952C52.5061 199.952 51.2528 199.664 50.1103 199.11L35.6089 190.896C34.5457 190.211 33.6595 189.285 33.0225 188.192C32.3855 187.099 32.0158 185.871 31.9434 184.609V59.7946C32.0116 58.5081 32.4176 57.2623 33.1206 56.1826L54.8728 68.7042C54.2163 69.7689 53.8475 70.9858 53.8026 72.2359V196.997C53.8026 199.137 55.3009 200.341 57.4413 199.11Z" fill="black"/>
<path opacity="0.4" d="M152.318 14.7115C152.024 12.8654 150.525 12.2233 148.706 13.2668L57.4432 65.868C56.3294 66.5063 55.4059 67.4298 54.7676 68.5435L33.0957 56.1825C33.6856 55.086 34.5528 54.1634 35.6107 53.5069L126.9 0.878985C128.031 0.301244 129.283 0 130.552 0C131.822 0 133.074 0.301244 134.205 0.878985L148.706 9.09291C149.676 9.7152 150.501 10.5391 151.124 11.5087C151.747 12.4782 152.155 13.5706 152.318 14.7115V14.7115Z" fill="white"/>
<path d="M21.9643 152.502C19.6634 151.004 2.21881 141.158 1.65695 140.837C1.22669 140.578 0.859791 140.226 0.583073 139.806C0.306356 139.387 0.126815 138.911 0.0575737 138.414C-0.0116672 137.916 0.0311426 137.41 0.182874 136.931C0.334605 136.452 0.591422 136.013 0.934552 135.646L31.9441 96.9312L53.7766 109.453L21.4292 147.151C21.0615 147.513 20.7795 147.953 20.6041 148.438C20.4287 148.923 20.3643 149.441 20.4156 149.955C20.4669 150.468 20.6327 150.963 20.9007 151.404C21.1688 151.845 21.5322 152.22 21.9643 152.502V152.502Z" fill="#BF99FF"/>
<path opacity="0.4" d="M21.9643 152.502C19.6634 151.004 2.21881 141.158 1.65695 140.837C1.22669 140.578 0.859791 140.226 0.583073 139.806C0.306356 139.387 0.126815 138.911 0.0575737 138.414C-0.0116672 137.916 0.0311426 137.41 0.182874 136.931C0.334605 136.452 0.591422 136.013 0.934552 135.646L31.9441 96.9312L53.7766 109.453L21.4292 147.151C21.0615 147.513 20.7795 147.953 20.6041 148.438C20.4287 148.923 20.3643 149.441 20.4156 149.955C20.4669 150.468 20.6327 150.963 20.9007 151.404C21.1688 151.845 21.5322 152.22 21.9643 152.502V152.502Z" fill="white"/>
<path d="M148.706 13.3731L57.4435 65.8673C56.3747 66.5633 55.4871 67.5039 54.8544 68.6113C54.2216 69.7187 53.8618 70.961 53.8048 72.2351V109.452L21.4307 147.15C20.9799 147.591 20.6662 148.152 20.5274 148.767C20.3887 149.381 20.4307 150.023 20.6485 150.614C20.8663 151.205 21.2506 151.721 21.755 152.098C22.2594 152.476 22.8622 152.7 23.4909 152.742L53.8048 156.889V197.023C53.8048 199.35 55.4369 200.287 57.4435 199.136L148.706 146.535C149.777 145.845 150.667 144.91 151.305 143.807C151.942 142.704 152.308 141.466 152.372 140.194V15.3798C152.372 13.0521 150.74 12.1156 148.706 13.3731Z" fill="#BF99FF"/>
<path d="M65.5514 127.591C65.5305 126.923 65.6489 126.258 65.8992 125.638C66.189 124.997 66.529 124.38 66.9159 123.792L85.6447 93.6387C85.7303 93.5128 85.829 93.3962 85.939 93.2909L86.153 93.1304C86.2522 93.0523 86.3747 93.0098 86.5009 93.0098C86.6271 93.0098 86.7496 93.0523 86.8487 93.1304C87.0644 93.3926 87.1699 93.7283 87.143 94.0668V105.679C87.1651 106.522 86.9814 107.357 86.6079 108.113C86.2333 108.791 85.9123 109.326 85.6447 109.719L77.404 122.267L85.6447 125.451C85.9811 125.568 86.304 125.72 86.6079 125.906C86.9557 126.12 87.143 126.735 87.143 127.672V139.337C87.1379 139.764 87.0374 140.185 86.8487 140.568C86.7143 140.913 86.4698 141.205 86.153 141.397H85.939H85.6447L66.9159 132.782C66.523 132.641 66.1728 132.402 65.8992 132.086C65.6108 131.623 65.4882 131.076 65.5514 130.534V127.591Z" fill="white"/>
<path d="M106.278 76.4086C106.451 75.764 106.684 75.137 106.973 74.5357C107.272 73.9209 107.747 73.4087 108.338 73.0642L114.599 69.5592C114.7 69.4743 114.828 69.4277 114.96 69.4277C115.092 69.4277 115.22 69.4743 115.321 69.5592C115.537 69.8215 115.642 70.1572 115.615 70.4957C115.637 70.727 115.637 70.9599 115.615 71.1913L99.8297 138.481C99.6684 139.109 99.4444 139.718 99.1608 140.301C98.862 140.938 98.3769 141.47 97.7695 141.826L91.6425 145.357C91.5413 145.442 91.4134 145.489 91.2813 145.489C91.1492 145.489 91.0213 145.442 90.9201 145.357C90.7044 145.095 90.5989 144.759 90.6258 144.421C90.6039 144.19 90.6039 143.957 90.6258 143.725L106.278 76.4086Z" fill="white"/>
<path d="M140.603 87.298C140.624 87.9661 140.506 88.6313 140.256 89.2511C139.966 89.8923 139.626 90.5096 139.239 91.0973L120.51 121.304C120.424 121.43 120.326 121.547 120.216 121.652L120.002 121.813C119.903 121.891 119.78 121.933 119.654 121.933C119.528 121.933 119.405 121.891 119.306 121.813C119.197 121.684 119.114 121.535 119.064 121.374C119.013 121.213 118.995 121.044 119.012 120.876V109.211C118.983 108.384 119.167 107.564 119.547 106.829C119.921 106.187 120.242 105.652 120.51 105.251L128.697 92.6223L120.51 89.5187C120.164 89.4021 119.838 89.2305 119.547 89.0104C119.199 88.7696 119.012 88.1809 119.012 87.2177V75.5524C119.017 75.1253 119.117 74.7048 119.306 74.3216C119.448 73.981 119.691 73.6917 120.002 73.4922H120.216H120.51L139.239 82.1074C139.632 82.2483 139.982 82.4879 140.256 82.8031C140.544 83.266 140.666 83.8132 140.603 84.3549V87.298Z" fill="white"/>
</svg>
