<svg width="498" height="327" viewBox="0 0 498 327" fill="none" xmlns="http://www.w3.org/2000/svg">
<path d="M437.611 96.3111C437.591 97.5932 437.551 98.8754 437.491 100.158C437.063 108.825 435.599 117.482 433.218 125.94C432.83 127.321 432.412 128.703 431.973 130.075C429.404 138.125 426.017 145.967 421.904 153.452C421.167 154.793 420.41 156.115 419.633 157.437C414.683 165.766 408.846 173.588 402.263 180.665C401.167 181.848 400.042 183.011 398.906 184.154C390.281 192.791 380.52 200.196 369.943 205.891C368.06 206.905 366.148 207.869 364.206 208.773C361.975 209.817 359.724 210.781 357.433 211.675C354.534 212.799 349.903 214.786 345.989 214.786C344.714 214.786 343.519 214.568 342.483 214.051C342.264 213.942 342.055 213.812 341.845 213.673C336.278 209.867 339.186 195.842 340.182 190.157C340.541 188.12 340.949 186.102 341.417 184.094C341.975 181.669 342.612 179.264 343.32 176.888C345.491 169.543 348.309 162.417 351.596 155.499C352.373 153.859 353.18 152.239 354.007 150.619C354.036 150.559 354.066 150.51 354.096 150.45C357.742 143.353 361.845 136.475 366.218 129.776C367.034 128.514 367.861 127.262 368.708 126.009C371.516 121.825 374.415 117.71 377.353 113.655C378.399 112.204 379.454 110.773 380.5 109.331C381.297 108.248 382.084 107.175 382.871 106.101C387.412 99.919 391.934 93.7567 396.217 87.4055C396.974 86.2923 397.721 85.1692 398.448 84.0361C399.593 82.2868 400.719 80.5077 401.815 78.7187C404.404 74.4945 406.864 70.2008 409.135 65.8076C409.822 64.4857 410.49 63.1439 411.137 61.8021C411.555 60.9275 411.974 60.0429 412.372 59.1583C413.249 57.2301 417.193 49.5769 419.085 44.0109C419.225 43.6134 419.444 43.2854 419.723 43.0369C420.739 42.1126 422.472 42.2318 423.288 43.5537C423.298 43.5637 423.308 43.5836 423.318 43.5935C427.93 51.0578 431.346 58.88 433.687 66.8811C434.045 68.1036 434.374 69.3261 434.673 70.5586C436.794 79.0069 437.73 87.654 437.611 96.3111Z" fill="#ECBF4C"/>
<path d="M412.949 106.181C421.166 102.891 429.383 99.6009 437.6 96.311C437.58 97.5932 437.541 98.8754 437.481 100.158C428.676 103.686 419.871 107.204 411.067 110.723C407.392 119.261 403.049 127.54 398.238 135.531C399.633 135.243 401.017 134.945 402.402 134.627C405.37 133.961 408.318 133.255 411.266 132.5C418.666 130.601 425.987 128.415 433.208 125.94C432.82 127.321 432.401 128.703 431.963 130.075C430.24 130.651 428.517 131.208 426.784 131.744C420.489 133.722 414.115 135.481 407.7 137.022C404.543 137.787 401.376 138.493 398.189 139.149C397.412 139.308 396.545 139.566 395.699 139.626C391.476 146.335 386.934 152.845 382.183 159.147C382.053 159.316 381.914 159.495 381.784 159.664C395.191 157.835 408.557 155.767 421.873 153.442C421.136 154.783 420.379 156.105 419.603 157.427C406.017 159.763 392.382 161.83 378.717 163.649C374.065 169.583 369.235 175.397 364.703 181.411C377.203 180.715 389.723 180.466 402.242 180.655C401.147 181.838 400.021 183.001 398.886 184.144C386.585 184.025 374.275 184.333 361.994 185.078C359.155 189.024 356.476 193.079 354.086 197.323C352.99 199.271 351.964 201.249 350.988 203.237C352.313 203.515 353.687 203.674 355.012 203.883C359.962 204.668 364.932 205.334 369.912 205.871C368.03 206.885 366.117 207.849 364.175 208.753C360.022 208.227 355.879 207.62 351.745 206.915C350.938 206.775 350.171 206.646 349.454 206.447C348.209 209.181 347.044 211.954 345.948 214.747C344.674 214.747 343.478 214.528 342.442 214.011C343.697 210.761 345.042 207.551 346.506 204.39C346.317 204.062 346.158 203.704 346.038 203.277C345.102 200.096 344.464 196.806 343.687 193.586C342.921 190.406 342.154 187.235 341.387 184.054C341.944 181.629 342.582 179.224 343.289 176.848C344.454 181.679 345.62 186.509 346.785 191.34C347.462 194.113 348.13 196.896 348.807 199.669C350.142 197.045 351.576 194.471 353.11 191.946C354.863 189.064 356.745 186.271 358.707 183.528C356.327 174.175 353.946 164.822 351.566 155.459C352.343 153.819 353.149 152.199 353.976 150.579C356.456 160.32 358.936 170.07 361.416 179.82C365.998 173.698 370.898 167.794 375.639 161.791C372.701 151.046 369.544 140.362 366.187 129.737C367.004 128.474 367.831 127.222 368.677 125.97C372.113 136.684 375.33 147.468 378.338 158.312C379.304 157.059 380.261 155.797 381.197 154.535C385.181 149.128 388.996 143.602 392.581 137.917C392.382 137.549 392.233 137.151 392.083 136.744C388.667 127.401 384.812 118.237 380.47 109.292C381.267 108.208 382.053 107.135 382.84 106.061C384.763 109.968 386.605 113.913 388.358 117.899C390.699 123.256 392.88 128.683 394.882 134.179C398.438 128.315 401.744 122.292 404.712 116.11C405.688 114.092 406.625 112.045 407.511 109.977C403.846 102.384 400.071 94.85 396.177 87.3657C396.934 86.2525 397.681 85.1294 398.408 83.9963C402.153 91.1526 405.788 98.3585 409.324 105.614C412.461 97.792 415.011 89.7213 416.854 81.5016C416.654 81.3426 416.505 81.1537 416.405 80.9549C413.975 75.8959 411.545 70.8269 409.105 65.7678C409.792 64.4459 410.459 63.1041 411.107 61.7623C413.398 66.5232 415.678 71.2742 417.969 76.035C419.951 65.1317 420.638 54.0296 419.692 42.9971C420.708 42.0728 422.441 42.192 423.258 43.514C423.268 43.5239 423.278 43.5438 423.288 43.5537C424.114 54.2284 423.477 64.9926 421.654 75.5679C425.738 72.765 429.732 69.8528 433.656 66.8512C434.015 68.0737 434.343 69.2963 434.642 70.5287C430.1 73.9776 425.459 77.2774 420.728 80.4481C418.925 89.2741 416.266 97.8516 412.949 106.181Z" fill="#E58F31"/>
<path d="M460.696 144.347C460.308 145.212 459.909 146.077 459.491 146.931C456.672 152.706 453.147 158.183 449.063 163.242C448.396 164.067 447.708 164.891 447.011 165.697C442.918 170.438 438.316 174.791 433.336 178.687C432.45 179.383 431.543 180.069 430.627 180.735C424.83 184.969 418.575 188.596 412.032 191.509C410.936 191.996 409.84 192.463 408.735 192.91C400.349 196.289 391.534 198.496 382.67 199.301C381.086 199.45 379.502 199.55 377.919 199.599C376.096 199.669 374.283 199.669 372.461 199.609C370.16 199.53 366.425 199.54 363.765 198.406C362.899 198.039 362.152 197.542 361.594 196.886C361.475 196.747 361.375 196.598 361.275 196.448C358.596 192.234 364.662 183.537 367.002 179.959C367.839 178.677 368.716 177.425 369.612 176.192C370.698 174.701 371.833 173.25 373.008 171.839C376.624 167.466 380.628 163.44 384.881 159.673C385.887 158.779 386.913 157.914 387.938 157.049C387.978 157.02 388.008 156.99 388.048 156.96C392.6 153.193 397.4 149.694 402.331 146.405C403.257 145.778 404.183 145.172 405.129 144.566C408.257 142.528 411.434 140.57 414.621 138.662C415.757 137.986 416.892 137.31 418.028 136.634C418.884 136.127 419.731 135.63 420.587 135.124C425.478 132.231 430.358 129.349 435.129 126.268C435.966 125.731 436.802 125.174 437.629 124.628C438.924 123.763 440.199 122.888 441.473 121.984C444.461 119.857 447.4 117.65 450.228 115.315C451.085 114.609 451.931 113.893 452.758 113.168C453.306 112.691 453.844 112.214 454.372 111.727C455.537 110.663 460.447 106.598 463.356 103.358C463.565 103.129 463.814 102.97 464.073 102.881C465.029 102.543 466.184 103.129 466.353 104.262C466.353 104.272 466.353 104.292 466.363 104.302C467.32 110.723 467.369 117.044 466.632 123.177C466.523 124.111 466.383 125.045 466.234 125.97C465.188 132.331 463.306 138.493 460.696 144.347Z" fill="#C3B7FC"/>
<path d="M441.025 143.91C447.578 144.059 454.132 144.208 460.696 144.347C460.307 145.212 459.909 146.077 459.491 146.931C452.469 146.772 445.447 146.613 438.425 146.454C433.435 151.205 428.067 155.578 422.449 159.624C423.485 159.832 424.511 160.031 425.547 160.22C427.758 160.628 429.979 161.005 432.2 161.343C437.788 162.198 443.415 162.834 449.053 163.242C448.385 164.067 447.698 164.892 447.001 165.697C445.656 165.587 444.322 165.468 442.987 165.329C438.116 164.842 433.276 164.196 428.455 163.381C426.085 162.983 423.714 162.546 421.364 162.069C420.786 161.95 420.129 161.88 419.531 161.671C414.701 165.011 409.711 168.122 404.641 171.034C404.501 171.113 404.362 171.193 404.223 171.272C413.884 173.916 423.585 176.391 433.336 178.677C432.449 179.373 431.543 180.059 430.627 180.725C420.696 178.369 410.806 175.815 400.976 173.081C396.075 175.765 391.095 178.329 386.255 181.102C394.97 184.253 403.565 187.722 412.031 191.489C410.936 191.976 409.84 192.443 408.734 192.89C400.388 189.233 391.922 185.873 383.336 182.812C380.249 184.671 377.241 186.658 374.382 188.855C373.068 189.859 371.793 190.912 370.548 191.986C371.365 192.562 372.261 193.069 373.098 193.596C376.245 195.574 379.432 197.462 382.669 199.281C381.085 199.43 379.502 199.53 377.918 199.579C375.239 198.019 372.6 196.399 369.99 194.719C369.482 194.391 368.994 194.083 368.566 193.735C366.922 195.236 365.319 196.776 363.765 198.367C362.899 197.999 362.152 197.502 361.594 196.846C363.397 194.997 365.249 193.198 367.161 191.479C367.132 191.201 367.122 190.912 367.161 190.584C367.45 188.149 367.978 185.724 368.386 183.309C368.785 180.923 369.193 178.538 369.602 176.153C370.687 174.662 371.823 173.211 372.998 171.799C372.38 175.427 371.773 179.055 371.155 182.683C370.807 184.77 370.448 186.857 370.1 188.944C371.773 187.543 373.506 186.211 375.289 184.939C377.331 183.488 379.422 182.126 381.554 180.834C382.659 173.777 383.765 166.71 384.87 159.654C385.876 158.759 386.902 157.894 387.928 157.03C386.773 164.385 385.617 171.74 384.472 179.105C389.382 176.272 394.432 173.668 399.412 170.954C400.537 162.784 401.513 154.594 402.32 146.385C403.246 145.759 404.173 145.152 405.119 144.546C404.332 152.835 403.386 161.115 402.27 169.374C403.296 168.798 404.312 168.221 405.318 167.625C409.601 165.1 413.814 162.446 417.918 159.614C417.898 159.306 417.908 158.988 417.918 158.67C418.316 151.315 418.366 143.96 418.017 136.605C418.874 136.098 419.72 135.601 420.577 135.094C420.746 138.314 420.846 141.534 420.876 144.755C420.906 149.078 420.806 153.412 420.577 157.735C424.71 154.773 428.714 151.633 432.539 148.283C433.794 147.19 435.029 146.067 436.234 144.924C435.955 138.692 435.587 132.46 435.109 126.238C435.945 125.701 436.782 125.145 437.608 124.598C438.077 130.552 438.445 136.525 438.734 142.489C443.146 138.076 447.24 133.315 450.885 128.256C450.796 128.097 450.746 127.918 450.736 127.749C450.556 123.594 450.377 119.44 450.198 115.285C451.055 114.579 451.901 113.864 452.728 113.138C452.897 117.044 453.066 120.94 453.236 124.846C457.768 117.998 461.473 110.643 464.042 102.851C464.999 102.513 466.154 103.099 466.323 104.233C466.323 104.242 466.323 104.262 466.333 104.272C463.783 111.776 460.208 118.923 455.885 125.592C459.481 124.866 463.056 124.051 466.602 123.137C466.493 124.071 466.353 125.005 466.204 125.93C462.11 126.954 457.987 127.858 453.833 128.643C450.029 134.14 445.716 139.209 441.025 143.91Z" fill="#A797FB"/>
<path d="M218.554 149.028L209.938 129.796L207 123.236C207.179 123.157 207.359 123.077 207.538 122.998C232.388 111.915 243.543 82.8631 232.527 58.0549L239.101 55.1228L258.374 46.5254C275.784 85.5765 258.214 131.337 219.091 148.79C218.912 148.869 218.733 148.949 218.554 149.028Z" fill="#A797FB"/>
<path d="M166.71 33.2964L155.156 7.4942C155.336 7.41469 155.515 7.32523 155.694 7.24572C194.867 -10.2274 240.802 7.29541 258.312 46.3863L258.372 46.5155L239.099 55.113L232.526 58.045C232.506 57.9953 232.486 57.9556 232.466 57.9059C221.34 33.0678 192.148 21.9359 167.258 33.038C167.068 33.1274 166.889 33.2069 166.71 33.2964Z" fill="#E08675"/>
<path d="M116.542 109.788L116.482 109.649C99.0619 70.7473 116.372 25.1462 155.157 7.49414L166.71 33.2963C142.199 44.5773 131.283 73.4706 142.328 98.1298C142.348 98.1696 142.368 98.2193 142.388 98.259L116.542 109.788Z" fill="#ECBF4C"/>
<path d="M116.543 109.789L142.399 98.2593C153.485 122.819 182.279 133.921 207 123.237L209.938 129.796L218.553 149.029C179.55 166.075 134.013 148.601 116.543 109.789Z" fill="#5F5EA5"/>
<path opacity="0.31" d="M209.934 129.786C209.984 129.766 210.034 129.746 210.084 129.727C210.213 129.667 210.353 129.607 210.482 129.558C238.958 116.855 251.746 83.5589 239.097 55.1228L239.037 54.9936C226.289 26.5277 192.833 13.7757 164.308 26.4979C164.178 26.5575 164.049 26.6172 163.919 26.6768L163.77 26.7464C135.623 39.6475 123.083 72.7848 135.752 101.072L135.812 101.211C148.521 129.379 181.578 142.091 209.934 129.786ZM142.386 98.259C142.366 98.2093 142.346 98.1695 142.326 98.1298C131.28 73.4706 142.196 44.5773 166.708 33.2963C166.887 33.2069 167.067 33.1273 167.246 33.0478C192.136 21.9457 221.329 33.0777 232.454 57.9157C232.474 57.9654 232.494 58.0052 232.514 58.0549C243.539 82.8632 232.374 111.906 207.524 122.998C207.345 123.077 207.165 123.157 206.986 123.236C182.265 133.911 153.471 122.819 142.386 98.259Z" fill="#5F5EA5"/>
<path d="M312.451 273.507H226.785L230.749 248.61L234.235 226.674H305.001L308.497 248.61L312.451 273.507Z" fill="#DFDBFC"/>
<path d="M308.498 248.61H230.75L234.236 226.674H305.002L308.498 248.61Z" fill="#A797FB"/>
<path d="M392.16 82.8037V225.59C392.16 234.198 385.168 241.175 376.543 241.175H162.692C154.066 241.175 147.074 234.198 147.074 225.59V82.8037C147.074 74.1963 154.066 67.219 162.692 67.219H376.543C385.168 67.2289 392.16 74.2063 392.16 82.8037Z" fill="#DFDBFC"/>
<path d="M379.489 80.2393H160.488V210.324H379.489V80.2393Z" fill="#363271"/>
<path d="M392.16 205.493V225.59C392.16 234.198 385.168 241.175 376.543 241.175H162.692C154.066 241.175 147.074 234.198 147.074 225.59V205.493H392.16Z" fill="#C3B7FC"/>
<path d="M345.228 72.427V205.493H196.246V72.427H345.228Z" fill="white"/>
<path d="M345.228 60.6789V72.4271H196.246V60.6789C196.246 55.262 200.648 50.8689 206.077 50.8689H335.397C340.825 50.8689 345.228 55.262 345.228 60.6789Z" fill="#514E92"/>
<path d="M312.084 66.851C315.17 66.851 317.671 64.3546 317.671 61.2751C317.671 58.1956 315.17 55.6992 312.084 55.6992C308.998 55.6992 306.496 58.1956 306.496 61.2751C306.496 64.3546 308.998 66.851 312.084 66.851Z" fill="#ECBF4C"/>
<path d="M328.466 66.851C331.552 66.851 334.054 64.3546 334.054 61.2751C334.054 58.1956 331.552 55.6992 328.466 55.6992C325.381 55.6992 322.879 58.1956 322.879 61.2751C322.879 64.3546 325.381 66.851 328.466 66.851Z" fill="#DD6E5C"/>
<path d="M203.167 158.484C202.636 158.484 202.252 158.365 202.013 158.126C201.801 157.888 201.695 157.53 201.695 157.052V132.905C201.695 132.401 201.801 132.03 202.013 131.791C202.252 131.552 202.636 131.433 203.167 131.433H214.663C217.422 131.433 219.504 132.096 220.909 133.422C222.341 134.748 223.057 136.538 223.057 138.793C223.057 140.066 222.739 141.206 222.103 142.214C221.466 143.222 220.578 143.964 219.437 144.442C222.381 145.37 223.853 147.438 223.853 150.647C223.853 152.133 223.508 153.472 222.819 154.665C222.156 155.832 221.148 156.761 219.795 157.45C218.443 158.14 216.772 158.484 214.783 158.484H203.167ZM213.947 142.731C215.247 142.731 216.241 142.399 216.931 141.736C217.647 141.073 218.005 140.145 218.005 138.952C218.005 137.652 217.674 136.724 217.011 136.167C216.374 135.584 215.34 135.292 213.908 135.292H206.787V142.731H213.947ZM214.544 154.626C216.003 154.626 217.077 154.254 217.766 153.512C218.456 152.743 218.801 151.761 218.801 150.568C218.801 149.189 218.376 148.154 217.528 147.465C216.706 146.749 215.552 146.391 214.067 146.391H206.787V154.626H214.544Z" fill="#DFDBFC"/>
<path d="M230.039 137.136C229.554 137.136 229.202 137.027 228.984 136.809C228.79 136.591 228.693 136.263 228.693 135.827V113.748C228.693 113.288 228.79 112.948 228.984 112.73C229.202 112.512 229.554 112.403 230.039 112.403H239.532C242.345 112.403 244.479 113.057 245.934 114.367C247.413 115.676 248.152 117.616 248.152 120.186C248.152 121.884 247.752 123.339 246.952 124.551C246.152 125.739 244.988 126.637 243.46 127.243L247.498 136.191C247.571 136.336 247.607 136.469 247.607 136.591C247.607 136.954 247.389 137.136 246.952 137.136H243.97C243.654 137.136 243.424 137.1 243.279 137.027C243.133 136.93 243 136.748 242.878 136.482L239.205 127.861H233.349V135.827C233.349 136.263 233.24 136.591 233.021 136.809C232.827 137.027 232.476 137.136 231.966 137.136H230.039ZM238.586 124.369C240.284 124.369 241.533 124.042 242.333 123.387C243.133 122.732 243.533 121.666 243.533 120.186C243.533 118.731 243.169 117.664 242.442 116.986C241.714 116.307 240.611 115.967 239.132 115.967H233.349V124.369H238.586Z" fill="#DFDBFC"/>
<path d="M299.79 175.5C299.289 175.5 298.925 175.388 298.699 175.162C298.499 174.936 298.399 174.598 298.399 174.147V151.319C298.399 150.842 298.499 150.491 298.699 150.266C298.925 150.04 299.301 149.927 299.828 149.927H301.558C301.909 149.927 302.184 149.977 302.385 150.078C302.586 150.178 302.786 150.379 302.987 150.679L315.397 167.904V151.319C315.397 150.842 315.497 150.491 315.698 150.266C315.924 150.04 316.287 149.927 316.789 149.927H318.782C319.283 149.927 319.647 150.04 319.872 150.266C320.098 150.491 320.211 150.842 320.211 151.319V174.147C320.211 174.598 320.098 174.936 319.872 175.162C319.672 175.388 319.308 175.5 318.782 175.5H317.014C316.663 175.5 316.4 175.463 316.225 175.388C316.049 175.287 315.848 175.087 315.623 174.786L303.212 157.599V174.147C303.212 174.598 303.099 174.936 302.874 175.162C302.673 175.388 302.31 175.5 301.783 175.5H299.79Z" fill="#DFDBFC"/>
<path d="M319.767 149.803C319.216 149.803 318.817 149.679 318.569 149.431C318.348 149.183 318.238 148.811 318.238 148.316V123.239C318.238 122.716 318.348 122.33 318.569 122.082C318.817 121.835 319.216 121.711 319.767 121.711H328.029C332.684 121.711 336.237 122.826 338.688 125.057C341.166 127.288 342.406 130.854 342.406 135.757C342.406 145.121 337.614 149.803 328.029 149.803H319.767ZM328.36 145.796C331.279 145.796 333.469 145.038 334.928 143.524C336.416 142.009 337.159 139.42 337.159 135.757C337.159 132.094 336.416 129.519 334.928 128.031C333.469 126.517 331.279 125.759 328.36 125.759H323.526V145.796H328.36Z" fill="#DFDBFC"/>
<path d="M252.693 175.774C251.939 175.774 251.562 175.442 251.562 174.777C251.562 174.511 251.629 174.223 251.762 173.912L269.318 132.283C269.584 131.618 269.872 131.175 270.182 130.953C270.493 130.687 270.936 130.554 271.512 130.554H275.17C275.791 130.554 276.234 130.687 276.5 130.953C276.81 131.175 277.099 131.618 277.365 132.283L294.921 173.912C295.054 174.223 295.12 174.511 295.12 174.777C295.12 175.442 294.743 175.774 293.99 175.774H288.204C287.628 175.774 287.207 175.708 286.941 175.575C286.719 175.398 286.497 175.065 286.276 174.577L282.485 165.267H264.131L260.407 174.577C260.185 175.065 259.941 175.398 259.675 175.575C259.454 175.708 259.055 175.774 258.478 175.774H252.693ZM280.357 159.083L273.308 141.66L266.259 159.083H280.357Z" fill="#A797FB"/>
<path d="M302.969 171.253H242.801V113.884H302.969V171.253ZM244.484 169.583H301.306V115.543H244.484V169.583Z" fill="#5F5EA5"/>
<path d="M246.485 111.886H240.469V117.889H246.485V111.886Z" fill="#5F5EA5"/>
<path d="M275.899 111.886H269.883V117.889H275.899V111.886Z" fill="#5F5EA5"/>
<path d="M275.899 167.585H269.883V173.588H275.899V167.585Z" fill="#5F5EA5"/>
<path d="M246.485 167.257H240.469V173.26H246.485V167.257Z" fill="#5F5EA5"/>
<path d="M246.485 139.904H240.469V145.908H246.485V139.904Z" fill="#5F5EA5"/>
<path d="M305.309 139.904H299.293V145.908H305.309V139.904Z" fill="#5F5EA5"/>
<path d="M305.09 111.886H299.074V117.889H305.09V111.886Z" fill="#5F5EA5"/>
<path d="M305.09 167.257H299.074V173.26H305.09V167.257Z" fill="#5F5EA5"/>
<path d="M251.742 181.331H203.695V186.907H251.742V181.331Z" fill="#DFDBFC"/>
<path d="M251.742 191.37H203.695V196.946H251.742V191.37Z" fill="#DFDBFC"/>
<path d="M340.016 82.0979H291.969V87.6738H340.016V82.0979Z" fill="#DFDBFC"/>
<path d="M340.02 92.5044H275.957V97.7125H340.02V92.5044Z" fill="#DFDBFC"/>
<path d="M319.152 269.044H218.965V278.338H319.152V269.044Z" fill="#C3B7FC"/>
<path d="M381.685 278C412.407 278 437.312 253.147 437.312 222.489C437.312 191.832 412.407 166.979 381.685 166.979C350.963 166.979 326.059 191.832 326.059 222.489C326.059 253.147 350.963 278 381.685 278Z" fill="#DD6E5C"/>
<path d="M381.688 265.049C405.242 265.049 424.337 245.994 424.337 222.489C424.337 198.984 405.242 179.93 381.688 179.93C358.134 179.93 339.039 198.984 339.039 222.489C339.039 245.994 358.134 265.049 381.688 265.049Z" fill="white"/>
<path d="M381.684 250.766C397.334 250.766 410.02 238.106 410.02 222.489C410.02 206.872 397.334 194.212 381.684 194.212C366.034 194.212 353.348 206.872 353.348 222.489C353.348 238.106 366.034 250.766 381.684 250.766Z" fill="#DD6E5C"/>
<path d="M381.686 236.782C389.596 236.782 396.008 230.383 396.008 222.489C396.008 214.596 389.596 208.197 381.686 208.197C373.776 208.197 367.363 214.596 367.363 222.489C367.363 230.383 373.776 236.782 381.686 236.782Z" fill="white"/>
<path d="M440.004 191.24L441.986 192.264L388.282 221.724L383.571 224.308L381.23 220.054L385.932 217.47L439.546 188.05L439.347 190.058C439.307 190.554 439.566 191.022 440.004 191.24Z" fill="#5F5EA5"/>
<path d="M455.592 192.711L449.995 195.783C449.646 195.971 449.228 195.981 448.869 195.802L441.987 192.264L440.005 191.24C439.567 191.022 439.308 190.545 439.358 190.067L439.557 188.06L440.334 180.317C440.374 179.929 440.603 179.582 440.941 179.393L446.549 176.322C446.21 176.51 445.971 176.848 445.931 177.246L445.154 184.989L444.955 186.996C444.905 187.483 445.164 187.95 445.603 188.179L447.585 189.203L454.467 192.741C454.825 192.9 455.244 192.9 455.592 192.711Z" fill="#5F5EA5"/>
<path d="M460.951 189.769L455.593 192.711C455.244 192.9 454.826 192.91 454.467 192.731L447.585 189.193L445.603 188.169C445.164 187.95 444.906 187.473 444.955 186.986L445.155 184.979L445.931 177.236C445.971 176.838 446.2 176.5 446.549 176.312L451.917 173.37C451.579 173.558 451.36 173.906 451.32 174.284L450.543 182.027L450.344 184.024C450.294 184.511 450.553 184.979 450.991 185.207L452.973 186.231L459.856 189.769C460.194 189.948 460.612 189.948 460.951 189.769Z" fill="#ECBF4C"/>
<path d="M466.111 186.937L460.972 189.759C460.962 189.759 460.962 189.769 460.952 189.769C460.613 189.948 460.195 189.948 459.846 189.779L452.964 186.241L450.982 185.217C450.543 184.998 450.284 184.521 450.334 184.034L450.533 182.037L451.31 174.294C451.35 173.906 451.569 173.568 451.908 173.38L451.918 173.37L457.067 170.547C456.729 170.736 456.499 171.084 456.46 171.471L455.683 179.214L455.484 181.212C455.434 181.699 455.693 182.166 456.131 182.394L458.113 183.418L464.995 186.957C465.354 187.125 465.762 187.125 466.111 186.937Z" fill="#5F5EA5"/>
<path d="M471.279 184.104L466.13 186.937L466.12 186.947C465.771 187.125 465.363 187.135 465.014 186.956L458.132 183.418L456.15 182.394C455.711 182.176 455.452 181.699 455.502 181.212L455.701 179.214L456.478 171.471C456.518 171.084 456.747 170.736 457.086 170.547L462.235 167.724C461.897 167.913 461.667 168.261 461.628 168.648L460.652 178.399C460.602 178.886 460.861 179.353 461.299 179.582L470.163 184.134C470.512 184.303 470.93 184.293 471.279 184.104Z" fill="#ECBF4C"/>
<path d="M476.21 181.4L471.28 184.104C470.931 184.293 470.513 184.303 470.155 184.124L461.29 179.572C460.852 179.353 460.593 178.876 460.643 178.389L461.619 168.639C461.659 168.251 461.888 167.903 462.226 167.714L467.157 165.011C466.818 165.2 466.579 165.538 466.539 165.935L465.563 175.685C465.513 176.172 465.772 176.64 466.21 176.858L475.075 181.41C475.443 181.589 475.862 181.589 476.21 181.4Z" fill="#5F5EA5"/>
<path d="M477.295 180.804L476.21 181.401C475.861 181.589 475.443 181.599 475.084 181.42L466.22 176.868C465.782 176.65 465.523 176.172 465.573 175.695L466.549 165.945C466.588 165.547 466.818 165.21 467.166 165.021L468.272 164.414C469.068 163.977 470.045 164.554 470.035 165.458L470.005 173.509C470.005 173.916 470.214 174.304 470.562 174.523L477.345 178.757C478.122 179.234 478.092 180.367 477.295 180.804Z" fill="#ECBF4C"/>
<path d="M391.777 229.854L372.833 228.224C372.315 228.184 371.927 227.469 372.166 227.011L380.931 210.184C381.15 209.767 381.737 209.866 382.016 210.383L392.186 228.84C392.484 229.337 392.255 229.894 391.777 229.854Z" fill="#ECBF4C"/>
<path d="M106.61 266.013C105.674 267.583 104.309 268.876 102.726 269.949C99.5484 272.116 95.5146 273.448 92.2378 274.521C88.9709 275.604 85.5945 276.409 82.1782 276.916C81.2619 277.055 80.3555 277.175 79.4392 277.264C78.5428 277.364 77.6464 277.433 76.74 277.483C76.242 277.523 75.754 277.552 75.256 277.552C75.1165 277.562 74.9572 277.582 74.8177 277.582C74.4293 277.592 74.0209 277.612 73.6325 277.612C73.2042 277.612 72.7759 277.622 72.3277 277.622C71.6206 277.622 70.9234 277.612 70.2062 277.592C69.7282 277.582 69.2601 277.552 68.772 277.523C67.5171 277.453 66.2621 277.354 65.0071 277.215C64.1306 277.115 63.2641 276.976 62.3976 276.827C57.1387 275.893 52.1189 273.945 48.4237 270.227C46.4915 268.279 44.8182 265.794 44.8282 263.051C44.8282 260.308 47.109 257.465 49.858 257.724C51.0432 257.843 52.1089 258.489 53.1448 259.125C54.8081 260.169 56.4913 261.202 58.1547 262.246C56.332 260.139 54.8479 257.724 53.7822 255.149C52.9356 253.082 52.338 250.836 52.7264 248.639C53.1049 246.443 54.6687 244.346 56.8399 243.868C58.6527 243.481 60.565 244.256 61.9295 245.489C63.294 246.741 64.2103 248.401 65.0171 250.061C66.3019 252.694 67.3876 255.428 68.2441 258.241C67.9852 251.532 67.9055 244.177 72.0887 238.909C72.5269 238.332 73.0548 237.796 73.7122 237.517C74.9273 237.02 76.3416 237.567 77.2978 238.462C79.0906 240.161 79.5288 242.815 79.6981 245.27C80.0467 250.22 79.728 255.209 78.7519 260.069C80.9033 255.855 83.3734 251.8 86.1323 247.973C87.1183 246.592 88.194 245.22 89.6083 244.296C91.0326 243.362 92.8951 242.944 94.4489 243.61C96.0923 244.326 97.0783 246.105 97.2277 247.874C97.3871 249.653 96.8393 251.422 96.1222 253.042C94.0605 257.674 90.5446 261.62 86.1821 264.204C89.7279 262.385 93.3832 260.785 97.1182 259.443C98.8114 258.837 100.554 258.27 102.337 258.33C104.13 258.38 105.993 259.175 106.899 260.725C107.855 262.336 107.556 264.433 106.61 266.013Z" fill="#DD6E5C"/>
<path d="M65.0141 277.224C64.1376 277.125 63.2711 276.986 62.4045 276.837C57.3548 272.782 52.7234 268.259 48.5502 263.28C48.0123 262.644 48.9287 261.709 49.4665 262.355C54.1178 267.891 59.3169 272.871 65.0141 277.224Z" fill="#D14F42"/>
<path d="M57.3846 248.888C61.6674 258.449 65.9402 268.031 70.2131 277.602C69.735 277.592 69.2669 277.562 68.7788 277.533C64.6156 268.2 60.4423 258.867 56.2591 249.544C55.9304 248.798 57.046 248.123 57.3846 248.888Z" fill="#D14F42"/>
<path d="M74.5908 245.151C74.2821 255.964 73.9633 266.788 73.6446 277.602C73.2163 277.602 72.788 277.612 72.3398 277.612C72.6486 266.788 72.9673 255.984 73.2861 245.161C73.3159 244.336 74.6207 244.326 74.5908 245.151Z" fill="#D14F42"/>
<path d="M92.5761 249.713C86.62 258.589 81.3512 267.862 76.7497 277.493C76.2517 277.533 75.7636 277.563 75.2656 277.563C79.9369 267.683 85.3451 258.171 91.4506 249.067C91.9187 248.381 93.0542 249.017 92.5761 249.713Z" fill="#D14F42"/>
<path d="M102.395 265.029C95.3635 268.498 88.6107 272.464 82.1765 276.926C81.2602 277.066 80.3538 277.185 79.4375 277.274C86.4991 272.215 93.9293 267.762 101.728 263.916C102.475 263.538 103.142 264.651 102.395 265.029Z" fill="#D14F42"/>
<path d="M53.7447 156.165C53.2069 156.224 52.6192 156.314 52.2906 156.741C52.0416 157.059 52.0117 157.487 52.0017 157.884C51.7726 164.901 55.6969 171.69 61.384 175.815C67.0712 179.939 74.3221 181.569 81.3538 181.281C86.2143 181.082 92.1803 180.307 96.6026 178.14C101.483 175.745 96.6026 171.561 93.9831 169.235C87.041 163.092 78.4455 158.838 69.362 156.96C64.2226 155.906 58.9438 155.608 53.7447 156.165Z" fill="#C3B7FC"/>
<path d="M66.3427 187.245C65.8347 187.424 65.277 187.652 65.0579 188.139C64.8885 188.507 64.9483 188.924 65.028 189.322C66.3825 196.21 71.7311 201.945 78.2051 204.688C84.6791 207.431 92.1092 207.401 98.892 205.543C103.583 204.261 109.23 202.163 113.045 199.062C117.268 195.643 111.571 192.652 108.483 190.972C100.336 186.539 91.0037 184.313 81.7309 184.531C76.5019 184.641 71.2829 185.535 66.3427 187.245Z" fill="#C3B7FC"/>
<path d="M97.5198 99.9486C97.8883 99.561 98.3265 99.1436 98.8644 99.1436C99.2628 99.1436 99.6313 99.3722 99.95 99.6008C105.677 103.666 108.725 110.892 108.565 117.909C108.406 124.926 105.318 131.665 100.836 137.072C97.7389 140.809 93.4959 145.083 89.0936 147.279C84.2331 149.704 83.8447 143.294 83.5758 139.805C82.8786 130.571 84.6913 121.169 88.7052 112.82C90.9661 108.119 93.9242 103.745 97.5198 99.9486Z" fill="#C3B7FC"/>
<path d="M109.568 127.808C109.907 127.391 110.325 126.954 110.853 126.914C111.252 126.884 111.63 127.093 111.969 127.301C117.945 130.989 121.451 138.006 121.75 145.023C122.048 152.03 119.399 158.968 115.275 164.643C112.427 168.579 108.473 173.111 104.22 175.586C99.5188 178.319 98.722 171.948 98.2339 168.48C96.9391 159.316 98.1443 149.804 101.6 141.226C103.553 136.386 106.232 131.824 109.568 127.808Z" fill="#C3B7FC"/>
<path d="M124.626 151.772C124.944 151.394 125.313 150.987 125.811 150.957C126.179 150.927 126.518 151.116 126.837 151.315C132.315 154.694 135.532 161.125 135.801 167.555C136.07 173.986 133.649 180.337 129.865 185.545C127.245 189.153 123.63 193.308 119.725 195.574C115.423 198.078 114.686 192.244 114.237 189.054C113.052 180.645 114.158 171.938 117.325 164.067C119.108 159.634 121.558 155.459 124.626 151.772Z" fill="#C3B7FC"/>
<path d="M39.002 129.955C38.4641 130.025 37.8765 130.144 37.5677 130.571C37.3287 130.899 37.3088 131.327 37.3088 131.724C37.2789 138.741 41.3824 145.421 47.1891 149.386C52.9958 153.352 60.2865 154.783 67.2983 154.296C72.1488 153.968 78.095 153.014 82.4574 150.728C87.2681 148.204 82.2782 144.148 79.589 141.892C72.4775 135.939 63.7625 131.923 54.6392 130.313C49.4699 129.409 44.1812 129.259 39.002 129.955Z" fill="#C3B7FC"/>
<path d="M83.1848 109.351C81.4618 101.151 77.0794 93.6969 71.8205 87.1668C69.5795 84.3839 66.7907 81.5512 63.225 81.3325C57.8068 93.5379 58.2251 108.178 64.3306 120.046C66.1433 123.564 74.9479 136.346 79.4299 132.45C84.8482 127.759 84.4896 115.533 83.1848 109.351Z" fill="#C3B7FC"/>
<path d="M133.454 209.499C127.667 205.354 122.309 200.673 117.359 195.584C125.287 184.611 129.211 170.925 128.265 157.437C128.155 155.906 125.735 155.797 125.845 157.348C126.741 170.269 123.116 183.219 115.646 193.795C110.427 188.219 105.696 182.186 101.423 175.844C101.483 175.785 101.552 175.715 101.612 175.636C110.277 163.659 114.57 148.71 113.544 133.971C113.425 132.291 110.785 132.182 110.905 133.871C111.881 147.905 107.956 161.989 99.8789 173.499C99.4706 172.863 99.0523 172.227 98.6439 171.581C93.8033 163.888 89.6201 155.827 85.9449 147.538C86.1341 147.458 86.3134 147.339 86.4728 147.14C95.8949 135.75 101.144 121.109 101.074 106.33C101.064 104.65 98.4347 104.372 98.4447 106.061C98.5144 120.165 93.6739 133.981 84.8194 144.963C81.3832 136.952 78.3952 128.733 75.7359 120.433C72.3694 109.928 69.5109 99.2827 66.8317 88.5882C66.4233 86.9482 63.8835 87.6638 64.2919 89.3038C69.1125 108.536 74.5407 127.699 82.3693 145.947C68.495 146.554 54.6805 142.419 43.4157 134.269C42.0412 133.275 40.7365 135.571 42.101 136.555C53.9932 145.162 68.8436 149.436 83.4947 148.532C87.2995 157.099 91.652 165.438 96.6619 173.35C82.7677 173.568 69.0627 169.056 58.027 160.598C56.6824 159.564 55.3179 161.82 56.6525 162.844C68.3854 171.849 83.2457 176.54 98.0363 175.964C98.1359 175.964 98.2355 175.944 98.3152 175.924C101.99 181.5 105.994 186.847 110.387 191.906C111.074 192.701 111.781 193.487 112.498 194.262C98.873 197.741 84.3214 196.439 71.5228 190.594C69.979 189.889 69.1523 192.393 70.6862 193.089C84.1421 199.231 99.6797 200.484 113.962 196.607C114.162 196.558 114.331 196.468 114.46 196.359C119.849 202.014 125.735 207.183 132.1 211.735C133.524 212.769 134.829 210.473 133.454 209.499Z" fill="#A797FB"/>
<path d="M36.8718 208.266C36.5033 208.455 36.1148 208.694 35.9953 209.091C35.9156 209.389 36.0053 209.698 36.1148 209.986C37.9375 215.035 42.6486 218.762 47.8676 220.094C53.0867 221.426 58.7041 220.541 63.6144 218.355C67.0207 216.844 71.0445 214.608 73.5744 211.815C76.3731 208.733 71.7118 207.133 69.182 206.219C62.5088 203.804 55.1882 203.197 48.1963 204.43C44.2621 205.126 40.4175 206.408 36.8718 208.266Z" fill="#ECBF4C"/>
<path d="M54.626 226.823C54.3172 227.091 53.9786 227.409 53.9586 227.817C53.9387 228.125 54.108 228.403 54.2774 228.661C57.1956 233.174 62.6238 235.758 68.0022 235.877C73.3806 236.007 78.6594 233.89 82.9622 230.659C85.9402 228.423 89.3565 225.342 91.1991 222.062C93.2309 218.434 88.3306 217.917 85.6613 217.589C78.6096 216.725 71.3388 217.778 64.8051 220.541C61.1199 222.112 57.6638 224.219 54.626 226.823Z" fill="#ECBF4C"/>
<path d="M52.1006 155.936C52.25 155.559 52.4492 155.141 52.8277 154.982C53.1166 154.863 53.4353 154.932 53.7341 155.002C58.9631 156.284 63.1662 160.568 65.0387 165.597C66.9112 170.636 66.6223 176.302 64.969 181.41C63.8236 184.949 62.0108 189.173 59.5009 191.986C56.732 195.087 54.6404 190.634 53.4652 188.219C50.3576 181.848 48.9832 174.642 49.4712 167.575C49.7501 163.599 50.6266 159.653 52.1006 155.936Z" fill="#ECBF4C"/>
<path d="M68.5603 172.356C68.6898 171.968 68.8492 171.541 69.2277 171.362C69.5065 171.233 69.8253 171.272 70.134 171.322C75.4327 172.266 79.9147 176.262 82.1059 181.172C84.2971 186.072 84.3768 191.747 83.0521 196.955C82.1358 200.553 80.6119 204.897 78.2813 207.859C75.7116 211.129 73.3411 206.825 72.0065 204.489C68.4906 198.337 66.658 191.23 66.6879 184.154C66.7078 180.158 67.3253 176.163 68.5603 172.356Z" fill="#ECBF4C"/>
<path d="M86.0534 185.167C86.1729 184.81 86.3223 184.412 86.6609 184.253C86.9099 184.134 87.2087 184.174 87.4876 184.213C92.3481 185.078 96.4516 188.746 98.4635 193.238C100.475 197.731 100.545 202.939 99.3301 207.71C98.4934 211.009 97.089 214.985 94.9576 217.699C92.607 220.7 90.4258 216.744 89.2107 214.607C85.9836 208.962 84.3104 202.452 84.3402 195.961C84.3602 192.314 84.9179 188.646 86.0534 185.167Z" fill="#ECBF4C"/>
<path d="M18.9715 193.775C18.613 193.974 18.2245 194.222 18.1249 194.62C18.0453 194.918 18.1548 195.226 18.2644 195.514C20.2265 200.514 25.0372 204.112 30.2961 205.294C35.545 206.477 41.1325 205.444 45.993 203.118C49.3495 201.518 53.3136 199.162 55.7638 196.309C58.4729 193.159 53.7718 191.678 51.222 190.833C44.4791 188.606 37.1485 188.209 30.1965 189.63C26.2623 190.435 22.4575 191.817 18.9715 193.775Z" fill="#ECBF4C"/>
<path d="M44.5699 166.671C41.0242 161.323 35.7952 157.258 30.2076 154.098C27.8272 152.756 25.0384 151.523 22.4388 152.378C22.0404 162.586 26.4726 172.883 34.1817 179.612C36.4625 181.609 46.3528 188.219 48.4344 184.184C50.9643 179.293 47.2392 170.696 44.5699 166.671Z" fill="#ECBF4C"/>
<path d="M108.672 223.732C103.384 222.42 98.2442 220.601 93.2842 218.375C95.814 208.336 94.7383 197.492 90.2464 188.159C89.7384 187.096 87.9854 187.702 88.5033 188.776C92.7961 197.711 93.8917 207.958 91.571 217.589C86.2823 215.095 81.2027 212.133 76.3621 208.833C76.392 208.773 76.4219 208.704 76.4318 208.624C79.2107 197.661 78.0254 185.814 73.1251 175.626C72.5673 174.463 70.655 175.129 71.2227 176.302C75.894 186.012 77.0892 197.134 74.5992 207.61C74.1211 207.272 73.643 206.935 73.1749 206.587C67.5575 202.482 62.2986 197.93 57.3385 193.069C57.4481 192.96 57.5477 192.821 57.6074 192.642C61.0835 181.888 60.6751 169.99 56.4421 159.495C55.964 158.302 54.0119 158.839 54.4999 160.041C58.5437 170.05 59.0118 181.252 55.8246 191.559C51.1135 186.827 46.6614 181.818 42.4184 176.66C37.05 170.14 32.0003 163.361 27.0701 156.513C26.3131 155.459 24.7095 156.682 25.4665 157.745C34.3409 170.07 43.6236 182.176 54.3704 192.95C44.6694 197.293 33.6636 198.238 23.355 195.614C22.0901 195.296 21.8211 197.293 23.0661 197.612C33.9624 200.385 45.7351 199.242 55.9043 194.461C61.0436 199.49 66.5017 204.191 72.3084 208.415C62.4878 212.491 51.4521 213.137 41.2033 210.224C39.9483 209.867 39.6197 211.854 40.8547 212.212C51.7509 215.303 63.6531 214.458 74.0016 209.877C74.0713 209.847 74.1311 209.807 74.1908 209.767C78.384 212.699 82.7465 215.373 87.3082 217.728C88.0253 218.106 88.7523 218.464 89.4794 218.822C80.7744 225.133 70.0475 228.304 59.2907 227.757C57.9959 227.688 58.1154 229.705 59.4002 229.775C70.7148 230.351 82.119 226.863 91.1826 220.074C91.3021 219.985 91.4017 219.875 91.4615 219.766C96.8996 222.271 102.547 224.288 108.364 225.73C109.648 226.048 109.927 224.05 108.672 223.732Z" fill="#E58F31"/>
<path d="M202.344 202.859V273.537C202.344 277.871 198.829 281.389 194.476 281.389H90.9817C86.6391 281.389 83.1133 277.88 83.1133 273.537V202.859H202.344Z" fill="white"/>
<path d="M202.346 193.457V202.859H83.125V193.457C83.125 189.123 86.6409 185.605 90.9934 185.605H194.488C198.83 185.605 202.346 189.114 202.346 193.457Z" fill="#514E92"/>
<path d="M175.82 198.397C178.29 198.397 180.292 196.399 180.292 193.934C180.292 191.469 178.29 189.471 175.82 189.471C173.35 189.471 171.348 191.469 171.348 193.934C171.348 196.399 173.35 198.397 175.82 198.397Z" fill="#ECBF4C"/>
<path d="M188.941 198.397C191.411 198.397 193.413 196.399 193.413 193.934C193.413 191.469 191.411 189.471 188.941 189.471C186.471 189.471 184.469 191.469 184.469 193.934C184.469 196.399 186.471 198.397 188.941 198.397Z" fill="#DD6E5C"/>
<path d="M137.067 213.862H89.9766V251.343H137.067V213.862Z" fill="#8690F1"/>
<path d="M195.493 214.757H143.332V222.191H195.493V214.757Z" fill="#DFDBFC"/>
<path d="M195.493 228.433H143.332V235.868H195.493V228.433Z" fill="#DFDBFC"/>
<path d="M195.493 243.61H143.332V251.045H195.493V243.61Z" fill="#DFDBFC"/>
<path d="M446.196 270.983C445.26 272.553 443.895 273.845 442.312 274.919C439.134 277.085 435.101 278.417 431.824 279.491C428.557 280.574 425.18 281.379 421.764 281.886C420.848 282.025 419.941 282.144 419.025 282.234C418.129 282.333 417.232 282.403 416.326 282.453C415.828 282.492 415.34 282.522 414.842 282.522C414.702 282.532 414.543 282.552 414.404 282.552C414.015 282.562 413.607 282.582 413.218 282.582C412.79 282.582 412.362 282.592 411.914 282.592C411.207 282.592 410.509 282.582 409.792 282.562C409.314 282.552 408.846 282.522 408.358 282.492C407.103 282.423 405.848 282.323 404.593 282.184C403.717 282.085 402.85 281.946 401.984 281.797C396.725 280.862 391.705 278.914 388.01 275.197C386.077 273.249 384.404 270.764 384.414 268.021C384.414 265.278 386.695 262.435 389.444 262.693C390.629 262.813 391.695 263.459 392.731 264.095C394.394 265.138 396.077 266.172 397.741 267.216C395.918 265.109 394.434 262.693 393.368 260.119C392.522 258.052 391.924 255.806 392.312 253.609C392.691 251.412 394.255 249.315 396.426 248.838C398.239 248.451 400.151 249.226 401.515 250.458C402.88 251.711 403.796 253.37 404.603 255.03C405.888 257.664 406.974 260.398 407.83 263.21C407.571 256.501 407.491 249.146 411.675 243.879C412.113 243.302 412.641 242.765 413.298 242.487C414.513 241.99 415.928 242.537 416.884 243.431C418.677 245.131 419.115 247.785 419.284 250.24C419.633 255.189 419.314 260.179 418.338 265.039C420.489 260.825 422.959 256.77 425.718 252.943C426.704 251.562 427.78 250.19 429.194 249.266C430.619 248.331 432.481 247.914 434.035 248.58C435.678 249.295 436.664 251.075 436.814 252.844C436.973 254.623 436.425 256.392 435.708 258.012C433.646 262.644 430.131 266.59 425.768 269.174C429.314 267.355 432.969 265.755 436.704 264.413C438.397 263.807 440.14 263.24 441.923 263.3C443.716 263.349 445.578 264.145 446.485 265.695C447.451 267.305 447.152 269.402 446.196 270.983Z" fill="#ECBF4C"/>
<path d="M404.612 282.194C403.735 282.095 402.869 281.955 402.002 281.806C396.952 277.751 392.321 273.229 388.148 268.249C387.61 267.613 388.526 266.679 389.064 267.325C393.706 272.861 398.905 277.841 404.612 282.194Z" fill="#E58F31"/>
<path d="M396.981 253.858C401.264 263.419 405.537 273 409.81 282.572C409.332 282.562 408.863 282.532 408.375 282.502C404.212 273.169 400.039 263.837 395.856 254.514C395.517 253.768 396.643 253.092 396.981 253.858Z" fill="#E58F31"/>
<path d="M414.181 250.12C413.872 260.934 413.553 271.758 413.234 282.572C412.806 282.572 412.378 282.582 411.93 282.582C412.238 271.758 412.557 260.954 412.876 250.13C412.906 249.305 414.211 249.295 414.181 250.12Z" fill="#E58F31"/>
<path d="M432.17 254.682C426.214 263.558 420.945 272.831 416.343 282.463C415.845 282.502 415.357 282.532 414.859 282.532C419.531 272.653 424.939 263.141 431.044 254.036C431.503 253.351 432.638 253.987 432.17 254.682Z" fill="#E58F31"/>
<path d="M441.993 269.999C434.961 273.468 428.208 277.433 421.774 281.896C420.858 282.035 419.951 282.155 419.035 282.244C426.097 277.185 433.527 272.732 441.326 268.886C442.073 268.508 442.74 269.621 441.993 269.999Z" fill="#E58F31"/>
<path d="M284.645 185.813L294.923 182.533L309.714 228.82L299.435 232.1L284.645 185.813Z" fill="#5F5EA5"/>
<path d="M294.716 216.088L304.258 213.047C305.054 212.789 305.911 213.236 306.17 214.031L317.036 247.963C318.132 251.392 316.24 255.06 312.803 256.153C309.367 257.247 305.692 255.358 304.596 251.929L293.73 217.997C293.481 217.192 293.919 216.337 294.716 216.088Z" fill="#514E92"/>
<path d="M279.715 176.679L280.751 161.602L283.978 160.568L293.589 172.256L292.523 181.649L286.049 183.716L279.715 176.679Z" fill="#ECBF4C"/>
<path d="M284.147 181.43L292.792 178.677C294.037 178.279 295.362 178.965 295.76 180.208C296.159 181.45 295.472 182.772 294.227 183.169L285.581 185.923C284.336 186.32 283.012 185.634 282.613 184.392C282.215 183.15 282.902 181.828 284.147 181.43Z" fill="#8690F1"/>
<path d="M285.532 171.001C284.615 171.293 284.102 172.25 284.387 173.139C284.671 174.028 285.645 174.512 286.562 174.22C287.479 173.927 287.992 172.97 287.707 172.081C287.423 171.192 286.449 170.708 285.532 171.001Z" fill="white"/>
<path d="M285.462 172.654L281.816 161.264L282.922 160.906L286.567 172.296C286.667 172.594 286.488 172.912 286.189 173.012C286.039 173.061 285.88 173.042 285.751 172.982C285.611 172.912 285.512 172.793 285.462 172.654Z" fill="white"/>
<path d="M293.568 215.84L305.052 212.182C305.819 211.934 306.646 212.361 306.885 213.126C307.134 213.892 306.705 214.717 305.938 214.955L294.455 218.613C293.688 218.851 292.861 218.434 292.622 217.669C292.383 216.903 292.801 216.088 293.568 215.84Z" fill="#ECBF4C"/>
<path d="M301.436 220.66C302.611 220.283 303.876 220.939 304.244 222.111L314.832 255.189C315.21 256.362 314.553 257.624 313.378 257.992C312.202 258.37 310.937 257.714 310.569 256.541L299.981 223.463C299.613 222.3 300.27 221.038 301.436 220.66Z" fill="#ECBF4C"/>
<path d="M250.889 175.069L249.992 174.602C253.209 168.469 259.653 163.937 269.135 161.124C272.123 160.24 275.221 159.544 278.209 158.878C282.79 157.854 287.531 156.791 291.934 155.012C300.29 151.632 306.057 145.669 307.362 139.049L308.358 139.248C306.983 146.196 300.987 152.437 292.312 155.946C287.83 157.755 283.049 158.828 278.428 159.862C275.45 160.528 272.382 161.214 269.424 162.088C260.211 164.822 253.976 169.185 250.889 175.069Z" fill="#ECBF4C"/>
<path d="M281.395 160.339C282.517 160.339 283.427 159.432 283.427 158.312C283.427 157.192 282.517 156.284 281.395 156.284C280.273 156.284 279.363 157.192 279.363 158.312C279.363 159.432 280.273 160.339 281.395 160.339Z" fill="#ECBF4C"/>
<path d="M250.442 176.858C251.564 176.858 252.474 175.95 252.474 174.831C252.474 173.711 251.564 172.803 250.442 172.803C249.32 172.803 248.41 173.711 248.41 174.831C248.41 175.95 249.32 176.858 250.442 176.858Z" fill="#ECBF4C"/>
<path d="M307.762 141.276C308.884 141.276 309.794 140.368 309.794 139.248C309.794 138.128 308.884 137.221 307.762 137.221C306.64 137.221 305.73 138.128 305.73 139.248C305.73 140.368 306.64 141.276 307.762 141.276Z" fill="#ECBF4C"/>
</svg>
