<svg width="26" height="26" viewBox="0 0 26 26" fill="none" xmlns="http://www.w3.org/2000/svg">
<path d="M13.7761 22.8723V18.1848H12.2288V22.8723H4.4921V24.4348H21.5128V22.8723H13.7761Z" fill="#111111"/>
<path d="M7.58608 14.2786C8.01336 14.2786 8.35974 13.9288 8.35974 13.4973C8.35974 13.0658 8.01336 12.7161 7.58608 12.7161C7.15879 12.7161 6.81241 13.0658 6.81241 13.4973C6.81241 13.9288 7.15879 14.2786 7.58608 14.2786Z" fill="#111111"/>
<path d="M20.7374 16.6223H5.26404C4.85379 16.6219 4.46046 16.4571 4.17036 16.1642C3.88027 15.8713 3.71711 15.4741 3.71671 15.0598V11.9348C3.71711 11.5205 3.88027 11.1234 4.17036 10.8304C4.46046 10.5375 4.85379 10.3727 5.26404 10.3723H20.7374C21.1477 10.3727 21.541 10.5375 21.8311 10.8304C22.1212 11.1234 22.2843 11.5205 22.2847 11.9348V15.0598C22.2843 15.4741 22.1212 15.8713 21.8311 16.1642C21.541 16.4571 21.1477 16.6219 20.7374 16.6223ZM5.26404 11.9348V15.0598H20.7374V11.9348H5.26404Z" fill="#111111"/>
<path d="M7.58608 6.46606C8.01336 6.46606 8.35974 6.11629 8.35974 5.68481C8.35974 5.25334 8.01336 4.90356 7.58608 4.90356C7.15879 4.90356 6.81241 5.25334 6.81241 5.68481C6.81241 6.11629 7.15879 6.46606 7.58608 6.46606Z" fill="#111111"/>
<path d="M20.7374 8.80981H5.26404C4.85379 8.8094 4.46046 8.64465 4.17036 8.35171C3.88027 8.05878 3.71711 7.66159 3.71671 7.24731V4.12231C3.71711 3.70804 3.88027 3.31085 4.17036 3.01792C4.46046 2.72498 4.85379 2.56023 5.26404 2.55981H20.7374C21.1477 2.56023 21.541 2.72498 21.8311 3.01792C22.1212 3.31085 22.2843 3.70804 22.2847 4.12231V7.24731C22.2843 7.66159 22.1212 8.05878 21.8311 8.35171C21.541 8.64465 21.1477 8.8094 20.7374 8.80981ZM5.26404 4.12231V7.24731H20.7374V4.12231H5.26404Z" fill="#111111"/>
</svg>
