<svg width="146" height="147" viewBox="0 0 146 147" fill="none" xmlns="http://www.w3.org/2000/svg">
<path d="M73 3C54.4348 3 36.6301 10.375 23.5025 23.5025C10.375 36.6301 3 54.4348 3 73C3 91.5651 10.375 109.37 23.5025 122.497C36.6301 135.625 54.4348 143 73 143" stroke="black" stroke-width="5" stroke-dasharray="7 7"/>
<path d="M73 3C54.4348 3 36.6301 10.375 23.5025 23.5025C10.375 36.6301 3 54.4348 3 73C3 91.5651 10.375 109.37 23.5025 122.497C36.6301 135.625 54.4348 143 73 143" stroke="#51D146" stroke-width="5" stroke-dasharray="7 7"/>
<path d="M73 143C82.1925 143 91.295 141.189 99.7878 137.672C108.281 134.154 115.997 128.998 122.497 122.497C128.998 115.997 134.154 108.281 137.672 99.7878C141.189 91.295 143 82.1925 143 73C143 63.8075 141.189 54.7049 137.672 46.2122C134.154 37.7194 128.998 30.0026 122.497 23.5025C115.997 17.0024 108.281 11.8463 99.7878 8.32843C91.295 4.8106 82.1925 3 73 3" stroke="black" stroke-width="5"/>
<path d="M73 143C82.1925 143 91.295 141.189 99.7878 137.672C108.281 134.154 115.997 128.998 122.497 122.497C128.998 115.997 134.154 108.281 137.672 99.7878C141.189 91.295 143 82.1925 143 73C143 63.8075 141.189 54.7049 137.672 46.2122C134.154 37.7194 128.998 30.0026 122.497 23.5025C115.997 17.0024 108.281 11.8463 99.7878 8.32843C91.295 4.8106 82.1925 3 73 3" stroke="#51D146" stroke-width="5"/>
<g filter="url(#filter0_di_1_962)">
<circle cx="73" cy="73" r="60" fill="white"/>
<circle cx="73" cy="73" r="57.5" stroke="white" stroke-width="5"/>
</g>
<path d="M54.75 71.271V91.2502H74.7292L70.5625 87.0835H58.9167V75.4377L54.75 71.271Z" fill="#51D146"/>
<path d="M108.643 102.271L102.664 96.2084V101.667H44.3308V93.0209H48.4974V89.6876H44.3308V75.8334H48.4974V72.5001H44.3308V59.1667H48.4974V55.8334H44.3308V44.1876L77.5391 77.2084V71.3334L43.7266 37.6876C43.4352 37.3938 43.0629 37.1934 42.6572 37.112C42.2515 37.0306 41.8307 37.0719 41.4485 37.2305C41.0663 37.3892 40.7401 37.6581 40.5113 38.003C40.2826 38.3478 40.1617 38.7529 40.1641 39.1667V103.75C40.1641 104.303 40.3836 104.833 40.7743 105.223C41.165 105.614 41.6949 105.833 42.2474 105.833H107.164C107.578 105.836 107.983 105.715 108.328 105.486C108.673 105.257 108.942 104.931 109.1 104.549C109.259 104.167 109.3 103.746 109.219 103.34C109.137 102.935 108.937 102.562 108.643 102.271V102.271Z" fill="#51D146"/>
<path d="M86.0026 97.5002H94.3359C95.441 97.5002 96.5008 97.0613 97.2822 96.2798C98.0636 95.4984 98.5026 94.4386 98.5026 93.3336V53.1252L93.7109 44.3127C93.3404 43.6707 92.8052 43.1392 92.1606 42.7729C91.5161 42.4067 90.7855 42.2191 90.0443 42.2294C89.2862 42.2354 88.5442 42.4481 87.8981 42.8446C87.252 43.2411 86.7263 43.8063 86.3776 44.4794L81.8359 53.1669V93.3336C81.8359 94.4386 82.2749 95.4984 83.0563 96.2798C83.8377 97.0613 84.8975 97.5002 86.0026 97.5002ZM86.0026 54.1669L90.0443 46.3127L94.3359 54.1877V85.0002H86.0026V54.1669ZM86.0026 88.3961H94.3359V93.4794H86.0026V88.3961Z" fill="#51D146"/>
<defs>
<filter id="filter0_di_1_962" x="3" y="7" width="140" height="140" filterUnits="userSpaceOnUse" color-interpolation-filters="sRGB">
<feFlood flood-opacity="0" result="BackgroundImageFix"/>
<feColorMatrix in="SourceAlpha" type="matrix" values="0 0 0 0 0 0 0 0 0 0 0 0 0 0 0 0 0 0 127 0" result="hardAlpha"/>
<feOffset dy="4"/>
<feGaussianBlur stdDeviation="5"/>
<feComposite in2="hardAlpha" operator="out"/>
<feColorMatrix type="matrix" values="0 0 0 0 0 0 0 0 0 0 0 0 0 0 0 0 0 0 0.25 0"/>
<feBlend mode="normal" in2="BackgroundImageFix" result="effect1_dropShadow_1_962"/>
<feBlend mode="normal" in="SourceGraphic" in2="effect1_dropShadow_1_962" result="shape"/>
<feColorMatrix in="SourceAlpha" type="matrix" values="0 0 0 0 0 0 0 0 0 0 0 0 0 0 0 0 0 0 127 0" result="hardAlpha"/>
<feOffset dx="2" dy="4"/>
<feGaussianBlur stdDeviation="7.5"/>
<feComposite in2="hardAlpha" operator="arithmetic" k2="-1" k3="1"/>
<feColorMatrix type="matrix" values="0 0 0 0 0 0 0 0 0 0 0 0 0 0 0 0 0 0 0.25 0"/>
<feBlend mode="normal" in2="shape" result="effect2_innerShadow_1_962"/>
</filter>
</defs>
</svg>
