<svg width="323" height="318" viewBox="0 0 323 318" fill="none" xmlns="http://www.w3.org/2000/svg">
<path fill-rule="evenodd" clip-rule="evenodd" d="M320.966 166.357C319.335 240.896 248.226 288.192 176.465 307.351C117.057 323.212 55.7268 297.409 21.0896 246.418C-10.5379 199.858 0.0757386 140.586 31.4306 93.8403C67.5849 39.9392 120.287 -10.8232 183.085 4.90526C258.825 23.8751 322.681 87.9986 320.966 166.357Z" fill="white" stroke="#8736AA" stroke-width="3" stroke-dasharray="12 12"/>
<g filter="url(#filter0_d_52_266)">
<path fill-rule="evenodd" clip-rule="evenodd" d="M309.969 165.754C308.449 235.483 242.245 279.728 175.432 297.651C120.122 312.488 63.0215 288.35 30.7731 240.649C1.32677 197.093 11.2084 141.645 40.4009 97.9151C74.0618 47.4915 123.129 0.00410217 181.596 14.7178C252.113 32.4638 311.566 92.4503 309.969 165.754Z" fill="#8535A7"/>
</g>
<defs>
<filter id="filter0_d_52_266" x="0.999969" y="4" width="321" height="314" filterUnits="userSpaceOnUse" color-interpolation-filters="sRGB">
<feFlood flood-opacity="0" result="BackgroundImageFix"/>
<feColorMatrix in="SourceAlpha" type="matrix" values="0 0 0 0 0 0 0 0 0 0 0 0 0 0 0 0 0 0 127 0" result="hardAlpha"/>
<feOffset dy="4"/>
<feGaussianBlur stdDeviation="6"/>
<feComposite in2="hardAlpha" operator="out"/>
<feColorMatrix type="matrix" values="0 0 0 0 0 0 0 0 0 0 0 0 0 0 0 0 0 0 0.15 0"/>
<feBlend mode="normal" in2="BackgroundImageFix" result="effect1_dropShadow_52_266"/>
<feBlend mode="normal" in="SourceGraphic" in2="effect1_dropShadow_52_266" result="shape"/>
</filter>
</defs>
</svg>
