<svg width="146" height="147" viewBox="0 0 146 147" fill="none" xmlns="http://www.w3.org/2000/svg">
<path d="M73 3C54.4348 3 36.6301 10.375 23.5025 23.5025C10.375 36.6301 3 54.4348 3 73C3 91.5651 10.375 109.37 23.5025 122.497C36.6301 135.625 54.4348 143 73 143" stroke="black" stroke-width="5" stroke-dasharray="7 7"/>
<path d="M73 3C54.4348 3 36.6301 10.375 23.5025 23.5025C10.375 36.6301 3 54.4348 3 73C3 91.5651 10.375 109.37 23.5025 122.497C36.6301 135.625 54.4348 143 73 143" stroke="#8636A8" stroke-width="5" stroke-dasharray="7 7"/>
<path d="M73 143C82.1925 143 91.295 141.189 99.7878 137.672C108.281 134.154 115.997 128.998 122.497 122.497C128.998 115.997 134.154 108.281 137.672 99.7878C141.189 91.295 143 82.1925 143 73C143 63.8075 141.189 54.7049 137.672 46.2122C134.154 37.7194 128.998 30.0026 122.497 23.5025C115.997 17.0024 108.281 11.8463 99.7878 8.32843C91.295 4.8106 82.1925 3 73 3" stroke="black" stroke-width="5"/>
<path d="M73 143C82.1925 143 91.295 141.189 99.7878 137.672C108.281 134.154 115.997 128.998 122.497 122.497C128.998 115.997 134.154 108.281 137.672 99.7878C141.189 91.295 143 82.1925 143 73C143 63.8075 141.189 54.7049 137.672 46.2122C134.154 37.7194 128.998 30.0026 122.497 23.5025C115.997 17.0024 108.281 11.8463 99.7878 8.32843C91.295 4.8106 82.1925 3 73 3" stroke="#8636A8" stroke-width="5"/>
<g filter="url(#filter0_di_1_971)">
<circle cx="73" cy="73" r="60" fill="white"/>
<circle cx="73" cy="73" r="57.5" stroke="white" stroke-width="5"/>
</g>
<path d="M60.7734 109.667C63.3623 109.667 65.4609 107.568 65.4609 104.979C65.4609 102.39 63.3623 100.292 60.7734 100.292C58.1846 100.292 56.0859 102.39 56.0859 104.979C56.0859 107.568 58.1846 109.667 60.7734 109.667Z" fill="#8636A8"/>
<path d="M89.25 109.667C91.8388 109.667 93.9375 107.568 93.9375 104.979C93.9375 102.39 91.8388 100.292 89.25 100.292C86.6612 100.292 84.5625 102.39 84.5625 104.979C84.5625 107.568 86.6612 109.667 89.25 109.667Z" fill="#8636A8"/>
<path d="M80.0208 57.5832C79.9259 56.8927 79.8772 56.1968 79.875 55.4998C79.8772 54.8029 79.9259 54.1069 80.0208 53.4165H56.9375L58.2917 57.5832H80.0208Z" fill="#8636A8"/>
<path d="M95.4986 71.1252H94.6236L92.0194 82.5835H60.7694L51.2486 52.4377C51.1456 52.1178 50.9667 51.8276 50.7273 51.5918C50.4879 51.356 50.195 51.1816 49.8736 51.0835L41.3319 48.4585C41.0692 48.3778 40.7933 48.3496 40.5197 48.3756C40.2462 48.4015 39.9805 48.4811 39.7377 48.6097C39.2473 48.8695 38.8803 49.3135 38.7173 49.8439C38.5543 50.3744 38.6087 50.9478 38.8685 51.4381C39.1283 51.9285 39.5723 52.2955 40.1027 52.4585L47.5819 54.7502L57.1444 84.9585L53.7277 87.7502L53.4569 88.021C52.6118 88.9949 52.1327 90.2331 52.1023 91.5223C52.0719 92.8114 52.492 94.0708 53.2902 95.0835C53.858 95.774 54.5796 96.3221 55.3972 96.6839C56.2147 97.0456 57.1056 97.211 57.9986 97.1668H92.7694C93.3219 97.1668 93.8518 96.9473 94.2425 96.5566C94.6332 96.1659 94.8527 95.636 94.8527 95.0835C94.8527 94.531 94.6332 94.0011 94.2425 93.6104C93.8518 93.2197 93.3219 93.0002 92.7694 93.0002H57.6652C57.4253 92.992 57.1916 92.9221 56.9866 92.7972C56.7816 92.6723 56.6123 92.4966 56.495 92.2872C56.3777 92.0777 56.3164 91.8416 56.317 91.6015C56.3177 91.3615 56.3802 91.1257 56.4986 90.9168L61.5194 86.7502H93.686C94.1676 86.7619 94.6384 86.6065 95.0183 86.3102C95.3981 86.0139 95.6635 85.5951 95.7694 85.1252L99.0402 70.7293C97.8786 70.9957 96.6903 71.1285 95.4986 71.1252Z" fill="#8636A8"/>
<path d="M95.5026 65.9168C101.256 65.9168 105.919 61.2531 105.919 55.5002C105.919 49.7472 101.256 45.0835 95.5026 45.0835C89.7496 45.0835 85.0859 49.7472 85.0859 55.5002C85.0859 61.2531 89.7496 65.9168 95.5026 65.9168Z" fill="#8636A8"/>
<defs>
<filter id="filter0_di_1_971" x="3" y="7" width="140" height="140" filterUnits="userSpaceOnUse" color-interpolation-filters="sRGB">
<feFlood flood-opacity="0" result="BackgroundImageFix"/>
<feColorMatrix in="SourceAlpha" type="matrix" values="0 0 0 0 0 0 0 0 0 0 0 0 0 0 0 0 0 0 127 0" result="hardAlpha"/>
<feOffset dy="4"/>
<feGaussianBlur stdDeviation="5"/>
<feComposite in2="hardAlpha" operator="out"/>
<feColorMatrix type="matrix" values="0 0 0 0 0 0 0 0 0 0 0 0 0 0 0 0 0 0 0.25 0"/>
<feBlend mode="normal" in2="BackgroundImageFix" result="effect1_dropShadow_1_971"/>
<feBlend mode="normal" in="SourceGraphic" in2="effect1_dropShadow_1_971" result="shape"/>
<feColorMatrix in="SourceAlpha" type="matrix" values="0 0 0 0 0 0 0 0 0 0 0 0 0 0 0 0 0 0 127 0" result="hardAlpha"/>
<feOffset dx="2" dy="4"/>
<feGaussianBlur stdDeviation="7.5"/>
<feComposite in2="hardAlpha" operator="arithmetic" k2="-1" k3="1"/>
<feColorMatrix type="matrix" values="0 0 0 0 0 0 0 0 0 0 0 0 0 0 0 0 0 0 0.25 0"/>
<feBlend mode="normal" in2="shape" result="effect2_innerShadow_1_971"/>
</filter>
</defs>
</svg>
