<svg width="508" height="499" viewBox="0 0 508 499" fill="none" xmlns="http://www.w3.org/2000/svg">
<path fill-rule="evenodd" clip-rule="evenodd" d="M269.079 0.0523405C385.215 2.60464 458.906 113.837 488.757 226.091C513.468 319.02 473.266 414.957 393.819 469.138C321.275 518.612 228.926 502.01 156.093 452.962C72.1116 396.407 -6.97942 313.968 17.5265 215.735C47.0827 97.2578 146.991 -2.63077 269.079 0.0523405Z" fill="#47297B"/>
<path fill-rule="evenodd" clip-rule="evenodd" d="M269.079 0.0523405C385.215 2.60464 458.906 113.837 488.757 226.091C513.468 319.02 473.266 414.957 393.819 469.138C321.275 518.612 228.926 502.01 156.093 452.962C72.1116 396.407 -6.97942 313.968 17.5265 215.735C47.0827 97.2578 146.991 -2.63077 269.079 0.0523405Z" fill="url(#paint0_linear_190_2)"/>
<path fill-rule="evenodd" clip-rule="evenodd" d="M506.946 263.79C504.358 381.609 391.566 456.368 277.737 486.651C183.504 511.721 86.2217 470.936 31.2801 390.338C-18.8878 316.743 -2.05231 223.055 47.683 149.166C105.031 63.9679 188.627 -16.2694 288.238 8.5917C408.377 38.5762 509.667 139.933 506.946 263.79Z" stroke="#F5BD1F" stroke-width="2" stroke-dasharray="12 12"/>
<defs>
<linearGradient id="paint0_linear_190_2" x1="12.9999" y1="249.5" x2="496" y2="249.5" gradientUnits="userSpaceOnUse">
<stop stop-color="#4776E6"/>
<stop offset="0.541667" stop-color="#7D34F0"/>
<stop offset="1" stop-color="#B054E9"/>
</linearGradient>
</defs>
</svg>
