<svg width="26" height="26" viewBox="0 0 26 26" fill="none" xmlns="http://www.w3.org/2000/svg">
<path d="M2.35825 4.56158H6.1138C7.15076 4.56158 7.99158 5.54397 7.99158 6.34053V22.9442C7.99158 23.9265 7.15076 24.7231 6.1138 24.7231H2.35825C1.32128 24.7231 0.480469 23.7407 0.480469 22.9442V6.34053C0.480469 5.35814 1.32128 4.56158 2.35825 4.56158Z" fill="#594A9E"/>
<path d="M21.7628 4.56156C21.7628 4.4063 21.6986 4.25719 21.5838 4.1464L18.5167 1.18156C18.3991 1.06779 18.2379 1.00366 18.0699 1.00366H11.1221C10.7765 1.00366 10.4961 1.26912 10.4961 1.59651V6.3403L21.7628 6.3405V4.56156Z" fill="#594A9E"/>
<path d="M23.6383 7.52637H9.24219V22.3511H23.6383C24.1365 22.3511 24.6141 22.1637 24.9662 21.8299C25.3182 21.4964 25.5161 21.0439 25.5161 20.5722V9.30531C25.5161 8.83358 25.3182 8.38108 24.9662 8.04734C24.6141 7.71379 24.1365 7.52637 23.6383 7.52637ZM12.9977 19.979C12.7488 19.979 12.5099 19.8853 12.3338 19.7185C12.1578 19.5517 12.0589 19.3254 12.0589 19.0895C12.0589 18.8537 12.1578 18.6273 12.3338 18.4605C12.5099 18.2938 12.7488 18.2001 12.9977 18.2001C13.2467 18.2001 13.4856 18.2938 13.6617 18.4605C13.8377 18.6273 13.9366 18.8537 13.9366 19.0895C13.9366 19.3254 13.8377 19.5517 13.6617 19.7185C13.4856 19.8853 13.2467 19.979 12.9977 19.979ZM12.9977 17.0142C12.7488 17.0142 12.5099 16.9204 12.3338 16.7537C12.1578 16.5867 12.0589 16.3605 12.0589 16.1247C12.0589 15.8886 12.1578 15.6625 12.3338 15.4957C12.5099 15.3289 12.7488 15.2352 12.9977 15.2352C13.2467 15.2352 13.4856 15.3289 13.6617 15.4957C13.8377 15.6625 13.9366 15.8886 13.9366 16.1247C13.9366 16.3605 13.8377 16.5867 13.6617 16.7537C13.4856 16.9204 13.2467 17.0142 12.9977 17.0142ZM17.3793 19.979C17.1301 19.979 16.8914 19.8853 16.7154 19.7185C16.5393 19.5517 16.4404 19.3254 16.4404 19.0895C16.4404 18.8537 16.5393 18.6273 16.7154 18.4605C16.8914 18.2938 17.1301 18.2001 17.3793 18.2001C17.6283 18.2001 17.867 18.2938 18.0432 18.4605C18.2193 18.6273 18.3182 18.8537 18.3182 19.0895C18.3182 19.3254 18.2193 19.5517 18.0432 19.7185C17.867 19.8853 17.6283 19.979 17.3793 19.979ZM17.3793 17.0142C17.1301 17.0142 16.8914 16.9204 16.7154 16.7537C16.5393 16.5867 16.4404 16.3605 16.4404 16.1247C16.4404 15.8886 16.5393 15.6625 16.7154 15.4957C16.8914 15.3289 17.1301 15.2352 17.3793 15.2352C17.6283 15.2352 17.867 15.3289 18.0432 15.4957C18.2193 15.6625 18.3182 15.8886 18.3182 16.1247C18.3182 16.3605 18.2193 16.5867 18.0432 16.7537C17.867 16.9204 17.6283 17.0142 17.3793 17.0142ZM21.7608 19.979H21.7606C21.5117 19.979 21.273 19.8853 21.0967 19.7185C20.9207 19.5517 20.8217 19.3254 20.8217 19.0895C20.8217 18.8537 20.9207 18.6273 21.0967 18.4605C21.273 18.2938 21.5117 18.2001 21.7606 18.2001C22.0098 18.2001 22.2485 18.2938 22.4246 18.4605C22.6006 18.6273 22.6995 18.8537 22.6995 19.0895C22.6995 19.3254 22.6006 19.5517 22.4246 19.7185C22.2485 19.8853 22.0098 19.979 21.7606 19.979H21.7608ZM21.7608 17.0142H21.7606C21.5117 17.0142 21.273 16.9204 21.0967 16.7537C20.9207 16.5867 20.8217 16.3605 20.8217 16.1247C20.8217 15.8886 20.9207 15.6625 21.0967 15.4957C21.273 15.3289 21.5117 15.2352 21.7606 15.2352C22.0098 15.2352 22.2485 15.3289 22.4246 15.4957C22.6006 15.6625 22.6995 15.8886 22.6995 16.1247C22.6995 16.3605 22.6006 16.5867 22.4246 16.7537C22.2485 16.9204 22.0098 17.0142 21.7606 17.0142H21.7608ZM23.6386 13.4563H23.6384C23.6384 13.6135 23.5726 13.7642 23.4552 13.8756C23.3377 13.9868 23.1786 14.0491 23.0126 14.0491H11.746C11.4002 14.0491 11.12 13.7837 11.12 13.4563V10.4912C11.12 10.1638 11.4002 9.89837 11.746 9.89837H23.0126C23.1786 9.89837 23.3377 9.96071 23.4552 10.0719C23.5726 10.1833 23.6384 10.334 23.6384 10.4912L23.6386 13.4563Z" fill="#594A9E"/>
<path d="M12.375 11.084H22.39V12.8629H12.375V11.084Z" fill="#594A9E"/>
</svg>
