<svg width="25" height="26" viewBox="0 0 25 26" fill="none" xmlns="http://www.w3.org/2000/svg">
<path d="M7.14671 6.46606C7.574 6.46606 7.92038 6.11629 7.92038 5.68481C7.92038 5.25334 7.574 4.90356 7.14671 4.90356C6.71943 4.90356 6.37305 5.25334 6.37305 5.68481C6.37305 6.11629 6.71943 6.46606 7.14671 6.46606Z" fill="black"/>
<path d="M20.298 8.80981H4.82468C4.41443 8.8094 4.02109 8.64465 3.731 8.35171C3.44091 8.05878 3.27775 7.66159 3.27734 7.24731V4.12231C3.27775 3.70804 3.44091 3.31085 3.731 3.01792C4.02109 2.72498 4.41443 2.56023 4.82468 2.55981H20.298C20.7083 2.56023 21.1016 2.72498 21.3917 3.01792C21.6818 3.31085 21.845 3.70804 21.8454 4.12231V7.24731C21.845 7.66159 21.6818 8.05878 21.3917 8.35171C21.1016 8.64465 20.7083 8.8094 20.298 8.80981ZM4.82468 4.12231V7.24731H20.298V4.12231H4.82468Z" fill="black"/>
<path d="M7.14671 14.2786C7.574 14.2786 7.92038 13.9288 7.92038 13.4973C7.92038 13.0658 7.574 12.7161 7.14671 12.7161C6.71943 12.7161 6.37305 13.0658 6.37305 13.4973C6.37305 13.9288 6.71943 14.2786 7.14671 14.2786Z" fill="black"/>
<path d="M20.298 16.6223H4.82468C4.41443 16.6219 4.02109 16.4571 3.731 16.1642C3.44091 15.8713 3.27775 15.4741 3.27734 15.0598V11.9348C3.27775 11.5205 3.44091 11.1234 3.731 10.8304C4.02109 10.5375 4.41443 10.3727 4.82468 10.3723H20.298C20.7083 10.3727 21.1016 10.5375 21.3917 10.8304C21.6818 11.1234 21.845 11.5205 21.8454 11.9348V15.0598C21.845 15.4741 21.6818 15.8713 21.3917 16.1642C21.1016 16.4571 20.7083 16.6219 20.298 16.6223ZM4.82468 11.9348V15.0598H20.298V11.9348H4.82468Z" fill="black"/>
<path d="M7.14671 22.0911C7.574 22.0911 7.92038 21.7413 7.92038 21.3098C7.92038 20.8783 7.574 20.5286 7.14671 20.5286C6.71943 20.5286 6.37305 20.8783 6.37305 21.3098C6.37305 21.7413 6.71943 22.0911 7.14671 22.0911Z" fill="black"/>
<path d="M20.298 24.4348H4.82468C4.41443 24.4344 4.02109 24.2696 3.731 23.9767C3.44091 23.6838 3.27775 23.2866 3.27734 22.8723V19.7473C3.27775 19.333 3.44091 18.9359 3.731 18.6429C4.02109 18.35 4.41443 18.1852 4.82468 18.1848H20.298C20.7083 18.1852 21.1016 18.35 21.3917 18.6429C21.6818 18.9359 21.845 19.333 21.8454 19.7473V22.8723C21.845 23.2866 21.6818 23.6838 21.3917 23.9767C21.1016 24.2696 20.7083 24.4344 20.298 24.4348ZM4.82468 19.7473V22.8723H20.298V19.7473H4.82468Z" fill="black"/>
</svg>
