<svg width="26" height="26" viewBox="0 0 26 26" fill="none" xmlns="http://www.w3.org/2000/svg">
<path d="M13 2.61182C9.4094 2.61182 6.5 5.50952 6.5 9.09882C6.5 15.305 13 23.3988 13 23.3988C13 23.3988 19.5 15.3037 19.5 9.09882C19.5 5.51082 16.5906 2.61182 13 2.61182ZM13 12.6881C12.0691 12.6881 11.1763 12.3183 10.5181 11.6601C9.8598 11.0018 9.49 10.109 9.49 9.17812C9.49 8.24721 9.8598 7.35442 10.5181 6.69617C11.1763 6.03792 12.0691 5.66812 13 5.66812C13.9309 5.66812 14.8237 6.03792 15.4819 6.69617C16.1402 7.35442 16.51 8.24721 16.51 9.17812C16.51 10.109 16.1402 11.0018 15.4819 11.6601C14.8237 12.3183 13.9309 12.6881 13 12.6881Z" fill="#594A9E"/>
</svg>
