<svg width="33" height="23" viewBox="0 0 33 23" fill="none" xmlns="http://www.w3.org/2000/svg">
<path d="M22.2151 17.7348C23.863 18.6592 24.7875 20.1866 24.6267 21.7541C24.5463 22.7187 24.5865 22.7187 23.3405 22.8795C22.5769 22.9599 17.7135 23.0001 12.7698 23.0001C7.14278 23.0001 1.27461 22.9599 0.83249 22.8393C-0.81542 22.3972 0.149211 19.3425 2.31963 17.8956C4.04792 16.8104 7.54471 15.1222 8.50934 14.9213C9.83571 14.6399 9.99648 13.7959 8.50934 11.2637C8.1878 10.6608 7.82606 8.93254 7.78587 7.08366C7.74567 4.10939 8.26818 2.09974 10.8807 1.09492C11.363 0.934146 11.9257 0.85376 12.4482 0.85376C14.1765 0.85376 15.7843 1.81839 16.4675 3.22514C17.392 5.11421 16.9499 10.0579 15.9852 11.8666C14.8196 13.9165 14.9402 14.5595 16.2264 14.8811C17.0302 15.0821 19.683 16.328 22.2151 17.7348ZM31.0174 15.2026C32.3035 15.8859 33.027 17.1319 32.9064 18.3377C32.8663 19.0612 32.8663 19.1013 31.9016 19.2219C31.4193 19.3023 28.8872 19.3425 25.9129 19.3425C25.3904 18.0965 24.3855 16.9711 23.019 16.2477C21.4515 15.3634 19.6026 14.439 18.1958 13.8361C19.1203 13.394 19.9241 13.0322 20.2859 12.9518C21.2907 12.7107 21.4113 12.148 20.2859 10.1383C20.0045 9.65601 19.683 8.28945 19.6428 6.84251C19.6026 4.51132 20.1251 2.9036 22.1347 2.13993C22.5367 2.01935 22.9788 1.93897 23.3807 1.93897C24.7071 1.93897 25.9531 2.66244 26.4756 3.78784C27.1589 5.27498 26.8373 9.1335 26.1138 10.5804C25.2296 12.1882 25.31 12.6705 26.3148 12.9116C26.9579 13.0724 29.0077 14.0772 31.0174 15.2026Z" fill="black"/>
</svg>
