<svg width="416" height="375" viewBox="0 0 416 375" fill="none" xmlns="http://www.w3.org/2000/svg">
<path d="M52.8886 330.89H46.5586V331.14H52.8886V330.89Z" fill="#EBEBEB"/>
<path d="M194.14 367.01C301.222 367.01 388.03 361.942 388.03 355.69C388.03 349.438 301.222 344.37 194.14 344.37C87.0575 344.37 0.25 349.438 0.25 355.69C0.25 361.942 87.0575 367.01 194.14 367.01Z" fill="#F5F5F5"/>
<path d="M45.0628 115.097L107.973 104.887C108.943 104.727 109.713 105.697 109.343 106.607L85.4128 165.677C85.0528 166.567 83.8628 166.747 83.2628 165.987L44.2828 117.127C43.6728 116.377 44.1028 115.257 45.0628 115.097Z" fill="#407BFF"/>
<path opacity="0.2" d="M45.0628 115.097L107.973 104.887C108.943 104.727 109.713 105.697 109.343 106.607L85.4128 165.677C85.0528 166.567 83.8628 166.747 83.2628 165.987L44.2828 117.127C43.6728 116.377 44.1028 115.257 45.0628 115.097Z" fill="white"/>
<path d="M49.5522 138.926L53.4722 133.856L50.0622 129.576L44.2422 132.276C45.0322 135.016 46.8622 137.446 49.5522 138.926Z" fill="#263238"/>
<path opacity="0.2" d="M50.0631 129.576C50.0631 129.576 49.1931 129.986 48.7031 130.206C49.4831 132.106 50.7931 133.796 52.5531 135.036L53.4731 133.846L50.0631 129.576Z" fill="white"/>
<path opacity="0.4" d="M47.2306 130.886C46.8606 131.056 46.4906 131.226 46.1406 131.396C47.0506 133.716 48.6506 135.786 50.8306 137.266L51.5706 136.316C49.7506 134.776 48.2906 132.926 47.2306 130.886Z" fill="white"/>
<path d="M55.7139 135.956C52.0639 133.936 49.5739 130.636 48.5039 126.926L84.6739 98.0665C88.9339 94.6665 94.1639 93.3165 99.1839 93.8865C98.6239 98.9065 96.1439 103.707 91.8839 107.107L55.7139 135.956Z" fill="#407BFF"/>
<path d="M84.6742 98.0665C84.6742 98.0665 54.2642 122.327 50.5742 125.267C51.8542 128.887 54.3242 132.107 57.7842 134.297C61.4642 131.357 91.8842 107.087 91.8842 107.087C96.1442 103.687 98.6242 98.8865 99.1842 93.8665C94.1642 93.3165 88.9342 94.6665 84.6742 98.0665Z" fill="#B68DF5"/>
<path opacity="0.5" d="M84.6742 98.0665C84.6742 98.0665 54.2642 122.327 50.5742 125.267C51.8542 128.887 54.3242 132.107 57.7842 134.297C61.4642 131.357 91.8842 107.087 91.8842 107.087C96.1442 103.687 98.6242 98.8865 99.1842 93.8665C94.1642 93.3165 88.9342 94.6665 84.6742 98.0665Z" fill="#7B84FA"/>
<path d="M84.6733 98.0666C84.6733 98.0666 84.1033 98.5266 83.1133 99.3166C84.5933 102.857 87.0333 106.007 90.3233 108.347C91.3133 107.557 91.8933 107.097 91.8933 107.097C96.1533 103.697 98.6333 98.8966 99.1933 93.8766C94.1633 93.3166 88.9333 94.6666 84.6733 98.0666Z" fill="#3A7CF6"/>
<path opacity="0.2" d="M84.6733 98.0666C84.6733 98.0666 84.1033 98.5266 83.1133 99.3166C84.5933 102.857 87.0333 106.007 90.3233 108.347C91.3133 107.557 91.8933 107.097 91.8933 107.097C96.1533 103.697 98.6333 98.8966 99.1933 93.8766C94.1633 93.3166 88.9333 94.6666 84.6733 98.0666Z" fill="#3A7CF6"/>
<path d="M68.5639 161.246L72.4839 156.176L69.0739 151.896L63.2539 154.596C64.0439 157.326 65.8739 159.756 68.5639 161.246Z" fill="#263238"/>
<path opacity="0.2" d="M69.0748 151.896C69.0748 151.896 68.2048 152.306 67.7148 152.526C68.4948 154.426 69.8048 156.116 71.5648 157.356L72.4849 156.166L69.0748 151.896Z" fill="white"/>
<path opacity="0.4" d="M66.2541 153.207C65.8841 153.377 65.5141 153.547 65.1641 153.717C66.0741 156.037 67.674 158.107 69.854 159.587L70.5941 158.637C68.7641 157.097 67.3141 155.247 66.2541 153.207Z" fill="white"/>
<path d="M74.7335 158.277C71.0835 156.257 68.5934 152.957 67.5234 149.247L103.693 120.387C107.953 116.987 113.183 115.637 118.203 116.207C117.643 121.227 115.163 126.027 110.903 129.427L74.7335 158.277Z" fill="#9888F7"/>
<path d="M103.694 120.387C103.694 120.387 73.2838 144.647 69.5938 147.587C70.8737 151.207 73.3437 154.427 76.8037 156.617C80.4837 153.677 110.904 129.407 110.904 129.407C115.164 126.007 117.644 121.207 118.204 116.187C113.184 115.637 107.954 116.987 103.694 120.387Z" fill="#9888F7"/>
<path opacity="0.5" d="M103.694 120.387C103.694 120.387 73.2838 144.647 69.5938 147.587C70.8737 151.207 73.3437 154.427 76.8037 156.617C80.4837 153.677 110.904 129.407 110.904 129.407C115.164 126.007 117.644 121.207 118.204 116.187C113.184 115.637 107.954 116.987 103.694 120.387Z" fill="#B68DF5"/>
<path d="M103.693 120.387C103.693 120.387 103.123 120.847 102.133 121.637C103.613 125.177 106.053 128.327 109.343 130.667C110.333 129.877 110.913 129.417 110.913 129.417C115.173 126.017 117.653 121.217 118.213 116.197C113.183 115.637 107.953 116.987 103.693 120.387Z" fill="#3A7CF6"/>
<path opacity="0.2" d="M103.693 120.387C103.693 120.387 103.123 120.847 102.133 121.637C103.613 125.177 106.053 128.327 109.343 130.667C110.333 129.877 110.913 129.417 110.913 129.417C115.173 126.017 117.653 121.217 118.213 116.197C113.183 115.637 107.953 116.987 103.693 120.387Z" fill="#3A7CF6"/>
<path d="M58.4333 153.917L64.7633 145.727L59.2533 138.827L49.8633 143.187C51.1433 147.597 54.0933 151.527 58.4333 153.917Z" fill="#263238"/>
<path opacity="0.2" d="M59.2625 138.827C59.2625 138.827 57.8525 139.477 57.0625 139.847C58.3225 142.907 60.4325 145.637 63.2825 147.647L64.7625 145.727L59.2625 138.827Z" fill="white"/>
<path opacity="0.4" d="M54.7014 140.947C54.1014 141.227 53.5014 141.497 52.9414 141.767C54.4114 145.517 56.9814 148.857 60.5114 151.247L61.7014 149.707C58.7614 147.227 56.4114 144.237 54.7014 140.947Z" fill="white"/>
<path d="M68.3839 149.127C62.4939 145.877 58.4739 140.537 56.7539 134.547L115.144 87.9567C122.014 82.4767 130.464 80.2967 138.564 81.2067C137.654 89.3067 133.654 97.0567 126.774 102.547L68.3839 149.127Z" fill="#407BFF"/>
<path d="M115.144 87.9567C115.144 87.9567 66.0437 127.127 60.0938 131.877C62.1637 137.727 66.1438 142.927 71.7238 146.457C77.6738 141.707 126.774 102.537 126.774 102.537C133.644 97.0567 137.644 89.2967 138.564 81.2067C130.464 80.2967 122.024 82.4767 115.144 87.9567Z" fill="#407BFF"/>
<path opacity="0.6" d="M115.144 87.9567C115.144 87.9567 66.0437 127.127 60.0938 131.877C62.1637 137.727 66.1438 142.927 71.7238 146.457C77.6738 141.707 126.774 102.537 126.774 102.537C133.644 97.0567 137.644 89.2967 138.564 81.2067C130.464 80.2967 122.024 82.4767 115.144 87.9567Z" fill="#B68DF5"/>
<path d="M115.143 87.9566C115.143 87.9566 114.223 88.6966 112.613 89.9666C114.993 95.6766 118.943 100.777 124.243 104.547C125.843 103.267 126.773 102.527 126.773 102.527C133.643 97.0466 137.643 89.2866 138.563 81.1966C130.463 80.2966 122.023 82.4766 115.143 87.9566Z" fill="#407BFF"/>
<path opacity="0.2" d="M115.143 87.9566C115.143 87.9566 114.223 88.6966 112.613 89.9666C114.993 95.6766 118.943 100.777 124.243 104.547C125.843 103.267 126.773 102.527 126.773 102.527C133.643 97.0466 137.643 89.2866 138.563 81.1966C130.463 80.2966 122.023 82.4766 115.143 87.9566Z" fill="#2382D4"/>
<path d="M109.285 109.996C112.284 109.996 114.715 107.565 114.715 104.566C114.715 101.568 112.284 99.1365 109.285 99.1365C106.287 99.1365 103.855 101.568 103.855 104.566C103.855 107.565 106.287 109.996 109.285 109.996Z" fill="#407BFF"/>
<path d="M105.034 107.956C103.254 105.716 103.524 102.506 105.584 100.596C105.474 100.676 105.354 100.746 105.254 100.836C102.904 102.706 102.524 106.126 104.394 108.466C106.264 110.816 109.684 111.196 112.024 109.326C112.134 109.236 112.234 109.146 112.334 109.056C110.014 110.636 106.824 110.196 105.034 107.956Z" fill="#407BFF"/>
<path opacity="0.3" d="M105.034 107.956C103.254 105.716 103.524 102.506 105.584 100.596C105.474 100.676 105.354 100.746 105.254 100.836C102.904 102.706 102.524 106.126 104.394 108.466C106.264 110.816 109.684 111.196 112.024 109.326C112.134 109.236 112.234 109.146 112.334 109.056C110.014 110.636 106.824 110.196 105.034 107.956Z" fill="black"/>
<path d="M109.285 108.407C111.406 108.407 113.125 106.687 113.125 104.567C113.125 102.446 111.406 100.727 109.285 100.727C107.165 100.727 105.445 102.446 105.445 104.567C105.445 106.687 107.165 108.407 109.285 108.407Z" fill="white"/>
<path d="M106.172 106.797L112.932 103.407C112.802 102.997 112.602 102.607 112.332 102.247L105.582 105.627C105.712 106.037 105.912 106.427 106.172 106.797Z" fill="#407BFF"/>
<path d="M107.222 107.786L113.102 104.846C113.122 104.606 113.112 104.366 113.092 104.126L106.652 107.346C106.832 107.516 107.022 107.656 107.222 107.786Z" fill="#407BFF"/>
<g opacity="0.7">
<path opacity="0.7" d="M106.172 106.797L112.932 103.407C112.802 102.997 112.602 102.607 112.332 102.247L105.582 105.627C105.712 106.037 105.912 106.427 106.172 106.797Z" fill="white"/>
<path opacity="0.7" d="M107.222 107.786L113.102 104.846C113.122 104.606 113.112 104.366 113.092 104.126L106.652 107.346C106.832 107.516 107.022 107.656 107.222 107.786Z" fill="white"/>
</g>
<path d="M304.26 174.34H250.52V354.74H304.26V174.34Z" fill="#2382D4"/>
<path opacity="0.2" d="M265.571 174.32H250.391V354.64H265.571V174.32Z" fill="black"/>
<path d="M60.6306 304.57H6.89062V354.75H60.6306V304.57Z" fill="#2382D4"/>
<path opacity="0.2" d="M21.5706 304.52H6.39062V354.65H21.5706V304.52Z" fill="black"/>
<path d="M138.65 261.16H84.9102V354.74H138.65V261.16Z" fill="#2382D4"/>
<path opacity="0.2" d="M99.7191 261.12H84.5391V354.65H99.7191V261.12Z" fill="black"/>
<path d="M222.232 217.75H168.492V354.74H222.232V217.75Z" fill="#2382D4"/>
<path opacity="0.2" d="M183.422 217.72H168.242V354.65H183.422V217.72Z" fill="black"/>
<path d="M382.279 130.93H328.539V354.74H382.279V130.93Z" fill="#2382D4"/>
<path opacity="0.2" d="M343.719 130.93H328.539V354.65H343.719V130.93Z" fill="black"/>
<path d="M380.313 44.1301C380.313 57.6901 369.323 68.6801 355.763 68.6801C355.213 68.6801 354.673 68.6701 354.123 68.6201C341.353 67.7801 331.223 57.1401 331.223 44.1201C331.223 31.1101 341.343 20.4701 354.123 19.6201C354.673 19.5801 355.223 19.5601 355.763 19.5601C369.323 19.5801 380.313 30.5701 380.313 44.1301Z" fill="#BB9EF7"/>
<path opacity="0.2" d="M377.033 44.1301C377.033 57.1401 366.913 67.7801 354.123 68.6301C341.353 67.7901 331.223 57.1501 331.223 44.1301C331.223 31.1201 341.343 20.4801 354.123 19.6301C366.913 20.4701 377.033 31.1201 377.033 44.1301Z" fill="#A24BEB"/>
<path opacity="0.4" d="M354.073 62.5C364.219 62.5 372.443 54.2755 372.443 44.13C372.443 33.9845 364.219 25.76 354.073 25.76C343.928 25.76 335.703 33.9845 335.703 44.13C335.703 54.2755 343.928 62.5 354.073 62.5Z" fill="white"/>
<path opacity="0.4" d="M354.133 57.5602C361.627 57.5602 367.703 51.4847 367.703 43.9902C367.703 36.4957 361.627 30.4202 354.133 30.4202C346.638 30.4202 340.562 36.4957 340.562 43.9902C340.562 51.4847 346.638 57.5602 354.133 57.5602Z" fill="white"/>
<path d="M353.261 49.4301C356.188 49.4301 358.561 47.0572 358.561 44.1301C358.561 41.203 356.188 38.8301 353.261 38.8301C350.334 38.8301 347.961 41.203 347.961 44.1301C347.961 47.0572 350.334 49.4301 353.261 49.4301Z" fill="#263238"/>
<path d="M316.441 62.3402L321.351 63.1403L328.551 58.8903V58.8802L324.881 57.2603L316.441 62.3402Z" fill="#B68DF5"/>
<path d="M350.794 46.1561L350.422 45.5278L321.179 62.8338L321.55 63.4621L350.794 46.1561Z" fill="#263238"/>
<path d="M320.723 67.5401L327.823 63.3201L328.553 58.8901L321.353 63.1401L320.723 67.5401Z" fill="#D3BBF9"/>
<path opacity="0.2" d="M320.723 67.5401L327.823 63.3201L328.553 58.8901L321.353 63.1401L320.723 67.5401Z" fill="#D3BBF9"/>
<path d="M352.493 43.8601L347.613 45.1201L352.063 47.5601L354.073 44.3701L352.493 43.8601Z" fill="white"/>
<path d="M354.961 12.7801C353.951 12.7801 353.141 11.9601 353.141 10.9601V2.91009C353.141 1.90009 353.961 1.09009 354.961 1.09009C355.961 1.09009 356.781 1.91009 356.781 2.91009V10.9601C356.781 11.9701 355.971 12.7801 354.961 12.7801Z" fill="#BB9EF7"/>
<path d="M354.961 87.17C353.951 87.17 353.141 86.35 353.141 85.35V77.3C353.141 76.29 353.961 75.48 354.961 75.48C355.961 75.48 356.781 76.3 356.781 77.3V85.35C356.781 86.36 355.971 87.17 354.961 87.17Z" fill="#BB9EF7"/>
<path d="M321.882 44.8102H313.832C312.822 44.8102 312.012 43.9902 312.012 42.9902C312.012 41.9902 312.832 41.1702 313.832 41.1702H321.882C322.892 41.1702 323.702 41.9902 323.702 42.9902C323.702 43.9902 322.892 44.8102 321.882 44.8102Z" fill="#BB9EF7"/>
<path d="M397.142 44.8102H389.082C388.072 44.8102 387.262 43.9902 387.262 42.9902C387.262 41.9902 388.082 41.1702 389.082 41.1702H397.142C398.152 41.1702 398.962 41.9902 398.962 42.9902C398.962 43.9902 398.152 44.8102 397.142 44.8102Z" fill="#BB9EF7"/>
<path opacity="0.5" d="M245.828 42.1577C244.794 42.1577 243.7 42.2521 242.554 42.4537H242.541C242.563 42.2735 242.58 42.0847 242.593 41.896C243.069 34.7566 237.667 28.5784 230.528 28.1022C227.13 27.8748 223.951 28.9774 221.501 30.9639C218.129 23.949 210.629 19.2123 201.941 20.1091C192.639 21.0701 185.388 28.7801 184.8 38.1118C184.749 38.9398 184.749 39.7593 184.8 40.5702C184.758 40.5616 184.715 40.5573 184.672 40.5445C182.492 39.9953 180.45 39.7421 178.554 39.7421C171.067 39.7421 165 45.8088 165 53.2957C165 60.7825 171.067 66.8492 178.554 66.8492H245.832C252.65 66.8492 258.18 61.3231 258.18 54.5013C258.176 47.6881 252.645 42.1577 245.828 42.1577Z" fill="#D3BBF9"/>
<rect x="200.176" y="20" width="9.00995" height="16.3037" fill="#3A7CF6"/>
<rect x="200.176" y="20" width="9.00995" height="1.28714" fill="#3A7CF6"/>
<rect x="203.605" y="20" width="2.14523" height="11.1552" fill="#8786F9"/>
<rect x="197.605" y="25.1484" width="2.57427" height="0.429045" fill="#286FAD"/>
<rect x="197.605" y="27.7227" width="2.57427" height="0.429045" fill="#286FAD"/>
<rect x="197.605" y="30.7263" width="2.57427" height="0.429045" fill="#286FAD"/>
<rect x="197.605" y="33.7295" width="2.57427" height="0.429045" fill="#286FAD"/>
<rect x="209.191" y="25.1484" width="2.57427" height="0.429045" fill="#286FAD"/>
<rect x="209.191" y="27.7227" width="2.57427" height="0.429045" fill="#286FAD"/>
<rect x="209.191" y="30.7261" width="2.57427" height="0.429045" fill="#286FAD"/>
<rect x="209.191" y="33.7295" width="2.57427" height="0.429045" fill="#286FAD"/>
<path fill-rule="evenodd" clip-rule="evenodd" d="M204.925 37.1357C204.055 37.1357 202.601 37.4699 201.232 37.8419C199.833 38.2202 198.422 38.6679 197.592 38.939C197.245 39.0535 196.937 39.2636 196.705 39.5451C196.472 39.8266 196.323 40.1681 196.275 40.5304C195.524 46.1758 197.268 50.3598 199.384 53.1277C200.281 54.3118 201.351 55.3544 202.558 56.221C203.045 56.5652 203.496 56.8288 203.879 57.0091C204.232 57.1755 204.612 57.3117 204.925 57.3117C205.237 57.3117 205.616 57.1755 205.97 57.0091C206.432 56.7845 206.874 56.5208 207.292 56.221C208.498 55.3545 209.568 54.3118 210.465 53.1277C212.581 50.3598 214.325 46.1758 213.574 40.5304C213.526 40.1679 213.378 39.8263 213.145 39.5445C212.912 39.2628 212.604 39.0525 212.257 38.9377C211.053 38.5428 209.839 38.177 208.617 37.8406C207.249 37.4712 205.795 37.1357 204.925 37.1357ZM204.925 43.4407C205.371 43.4401 205.804 43.5975 206.146 43.8852C206.487 44.1729 206.716 44.5722 206.792 45.0125C206.867 45.4527 206.785 45.9055 206.558 46.2906C206.332 46.6757 205.977 46.9683 205.555 47.1165L206.041 49.6259C206.058 49.7172 206.056 49.8113 206.033 49.9013C206.01 49.9914 205.967 50.0753 205.908 50.147C205.849 50.2187 205.774 50.2765 205.69 50.3161C205.606 50.3557 205.514 50.3763 205.421 50.3762H204.428C204.335 50.3761 204.243 50.3554 204.159 50.3157C204.075 50.276 204.001 50.2182 203.942 50.1465C203.883 50.0749 203.841 49.991 203.818 49.901C203.795 49.811 203.792 49.7171 203.81 49.6259L204.294 47.1165C203.873 46.9683 203.517 46.6757 203.291 46.2906C203.065 45.9055 202.982 45.4527 203.058 45.0125C203.133 44.5722 203.362 44.1729 203.704 43.8852C204.045 43.5975 204.478 43.4401 204.925 43.4407Z" fill="black" fill-opacity="0.5"/>
<path d="M25.3777 295.682C24.0974 297.13 24.2337 299.342 25.6819 300.622C27.1302 301.903 29.3421 301.766 30.6223 300.318L25.3777 295.682ZM91.9024 225.71L94.5072 223.372L91.8826 220.448L89.2801 223.392L91.9024 225.71ZM114.341 250.712L111.737 253.05L114.341 255.953L116.946 253.05L114.341 250.712ZM178.244 179.509L180.849 177.172L178.244 174.269L175.639 177.172L178.244 179.509ZM196.78 200.164L194.176 202.501L196.78 205.404L199.385 202.501L196.78 200.164ZM271.415 117.003L274.728 115.876L272.804 110.215L268.81 114.665L271.415 117.003ZM283.61 152.876L280.296 154.003L282.051 159.166L286.014 155.419L283.61 152.876ZM351.499 92.0982C351.553 90.1659 350.03 88.5556 348.098 88.5014L316.611 87.618C314.678 87.5638 313.068 89.0863 313.014 91.0185C312.96 92.9507 314.482 94.5611 316.414 94.6153L344.403 95.4005L343.618 123.389C343.564 125.322 345.086 126.932 347.018 126.986C348.951 127.04 350.561 125.518 350.615 123.586L351.499 92.0982ZM30.6223 300.318L94.5248 228.028L89.2801 223.392L25.3777 295.682L30.6223 300.318ZM89.2976 228.048L111.737 253.05L116.946 248.375L94.5072 223.372L89.2976 228.048ZM116.946 253.05L180.849 181.847L175.639 177.172L111.737 248.375L116.946 253.05ZM175.639 181.847L194.176 202.501L199.385 197.826L180.849 177.172L175.639 181.847ZM199.385 202.501L274.019 119.34L268.81 114.665L194.176 197.826L199.385 202.501ZM268.101 118.129L280.296 154.003L286.924 151.749L274.728 115.876L268.101 118.129ZM286.014 155.419L350.405 94.5433L345.596 89.4567L281.205 150.333L286.014 155.419Z" fill="#594A9E"/>
</svg>
