<svg width="333" height="579" viewBox="0 0 333 579" fill="none" xmlns="http://www.w3.org/2000/svg">
<g clip-path="url(#clip0_2_100)">
<g opacity="0.2">
<path opacity="0.0476" d="M127.9 472.648L139.251 462.465C139.417 462.373 152.7 450.389 152.921 450.389C156.03 448.679 159.654 447.576 163.426 447.043C165.026 446.823 166.793 446.768 168.43 446.768C173.14 446.768 177.794 448.017 181.161 449.966L249.435 488.29L252.949 490.257L324.738 530.548C327.81 532.313 330.238 534.978 331.361 537.79C331.894 539.15 332.207 540.584 332.244 542.073C332.354 547.22 329.19 552.072 323.542 555.326L310.111 561.906C309.817 562.071 285.329 573.872 285.072 573.725C280.822 576.17 275.008 577.254 269.599 577.254C264.889 577.254 260.235 576.004 256.85 574.056L200.074 540.621L191.777 535.731L126.704 497.425C123.558 495.606 121.074 492.867 120.007 489.963C119.529 488.658 119.234 487.298 119.216 485.901C119.069 480.754 122.251 475.901 127.9 472.648Z" fill="#ABB2E2"/>
<path opacity="0.0952" d="M128.049 473.089L139.327 463.163C139.677 462.961 152.537 451.528 152.942 451.546C156.032 449.929 159.62 448.955 163.3 448.477C164.808 448.274 166.648 448.293 168.212 448.293C172.682 448.293 177.521 449.727 180.722 451.565L248.058 489.374L251.517 491.323L322.33 531.081C325.237 532.753 327.831 535.474 328.935 538.139C329.487 539.481 329.836 540.859 329.892 542.311C330.094 547.348 327.022 552.164 321.41 555.399L308.164 561.887C307.575 562.218 283.86 573.449 283.345 573.173C279.298 575.507 273.263 576.224 268.13 576.224C263.66 576.224 258.802 574.791 255.601 572.934L199.562 539.977L191.375 535.161L127.148 497.388C124.167 495.661 121.518 492.867 120.451 490.11C119.954 488.841 119.623 487.518 119.568 486.139C119.366 481.121 122.438 476.324 128.049 473.089Z" fill="#A7ADDF"/>
<path opacity="0.1429" d="M128.2 473.512L139.422 463.862C139.937 463.568 152.374 452.686 153 452.704C156.091 451.179 159.623 450.333 163.229 449.892C164.664 449.727 166.577 449.819 168.049 449.819C172.281 449.819 177.303 451.418 180.339 453.164L246.718 490.459L250.122 492.371L319.942 531.596C322.701 533.195 325.461 535.97 326.528 538.47C327.08 539.775 327.485 541.117 327.577 542.532C327.889 547.477 324.909 552.219 319.334 555.436L306.254 561.832C305.389 562.328 282.41 572.989 281.656 572.567C277.829 574.772 271.555 575.158 266.698 575.158C262.467 575.158 257.407 573.541 254.39 571.795L199.086 539.316L191.01 534.573L127.611 497.352C124.778 495.716 121.963 492.848 120.914 490.257C120.417 489.007 120.05 487.739 119.958 486.397C119.663 481.507 122.625 476.728 128.2 473.512Z" fill="#A3A9DC"/>
<path opacity="0.1905" d="M128.347 473.953L139.496 464.56C140.195 464.156 152.19 453.826 153.036 453.862C156.109 452.429 159.604 451.712 163.118 451.326C164.48 451.179 166.448 451.363 167.847 451.363C171.839 451.363 177.064 453.146 179.916 454.8L245.356 491.58L248.705 493.473L317.549 532.165C320.162 533.672 323.087 536.503 324.117 538.856C324.688 540.124 325.111 541.429 325.24 542.808C325.663 547.642 322.774 552.348 317.237 555.546L304.34 561.869C303.181 562.531 280.975 572.622 279.981 572.052C276.357 574.129 269.862 574.166 265.281 574.166C261.289 574.166 256.046 572.364 253.176 570.728L198.608 538.727L190.641 534.058L128.089 497.37C125.421 495.826 122.422 492.903 121.411 490.459C120.895 489.246 120.491 488.014 120.38 486.709C119.939 481.875 122.809 477.151 128.347 473.953Z" fill="#9FA4D8"/>
<path opacity="0.2381" d="M128.51 474.375L139.585 465.259C140.45 464.762 152.041 454.984 153.071 455.02C156.143 453.679 159.584 453.09 163.024 452.741C164.312 452.612 166.354 452.87 167.66 452.87C171.413 452.87 176.822 454.818 179.508 456.381L244.011 492.646L247.323 494.503L315.174 532.661C317.621 534.077 320.711 536.963 321.723 539.168C322.294 540.418 322.772 541.668 322.919 543.01C323.434 547.734 320.656 552.403 315.155 555.564L302.424 561.795C300.971 562.641 279.537 572.144 278.286 571.427C274.883 573.394 268.167 573.063 263.844 573.063C260.091 573.063 254.645 571.096 251.959 569.534L198.127 538.01L190.271 533.415L128.565 497.278C126.044 495.826 122.88 492.83 121.887 490.569C121.371 489.374 120.911 488.198 120.764 486.911C120.212 482.243 122.99 477.555 128.51 474.375Z" fill="#9BA0D5"/>
<path opacity="0.2857" d="M128.655 474.816L139.657 465.957C140.705 465.35 151.854 456.123 153.106 456.178C156.16 454.928 159.582 454.469 162.912 454.175C164.107 454.064 166.223 454.414 167.456 454.414C170.988 454.414 176.563 456.546 179.102 457.998L242.666 493.767L245.922 495.605L312.762 533.231C315.061 534.555 318.318 537.514 319.311 539.572C319.9 540.786 320.415 541.999 320.581 543.304C321.206 547.917 318.52 552.549 313.056 555.693L300.509 561.832C298.761 562.843 278.1 571.776 276.592 570.912C273.409 572.75 266.454 572.088 262.407 572.088C258.874 572.088 253.263 569.938 250.724 568.486L197.628 537.44L189.883 532.919L129.004 497.333C126.649 495.973 123.301 492.922 122.344 490.808C121.811 489.65 121.333 488.492 121.149 487.26C120.505 482.61 123.191 477.978 128.655 474.816Z" fill="#979BD2"/>
<path opacity="0.3333" d="M128.804 475.258L139.733 466.674C140.947 465.976 151.673 457.3 153.145 457.355C156.199 456.197 159.639 456.362 162.822 455.627C163.926 455.37 166.115 455.976 167.274 455.976C170.567 455.976 176.326 458.274 178.699 459.634L241.307 494.889L244.508 496.69L310.391 533.783C312.543 535.014 315.984 538.029 316.922 539.94C317.511 541.135 318.081 542.293 318.283 543.562C319.019 548.083 316.425 552.66 310.998 555.785L298.616 561.851C296.592 563.027 276.667 571.409 274.92 570.379C271.939 572.089 264.764 571.078 260.974 571.078C257.681 571.078 251.867 568.743 249.512 567.383L197.152 536.816L189.517 532.368L129.485 497.315C127.277 496.047 123.763 492.94 122.825 490.974C122.292 489.834 121.758 488.731 121.556 487.536C120.783 482.978 123.377 478.383 128.804 475.258Z" fill="#9397CF"/>
<path opacity="0.381" d="M128.953 475.681L139.807 467.372C141.206 466.564 151.508 458.439 153.183 458.513C156.218 457.447 159.622 457.814 162.713 457.042C163.725 456.785 166.006 457.483 167.073 457.483C170.127 457.483 176.088 459.965 178.277 461.215L239.947 495.955L243.093 497.719L308 534.279C309.987 535.437 313.611 538.488 314.513 540.253C315.12 541.429 315.709 542.532 315.948 543.764C316.794 548.175 314.274 552.715 308.902 555.803L296.704 561.777C294.386 563.119 275.234 570.931 273.228 569.754C270.469 571.353 263.054 569.993 259.54 569.993C256.486 569.993 250.47 567.493 248.281 566.225L196.657 536.135L189.132 531.742L129.946 497.241C127.904 496.065 124.188 492.904 123.305 491.084C122.753 489.963 122.182 488.915 121.962 487.757C121.06 483.345 123.562 478.805 128.953 475.681Z" fill="#8F92CC"/>
<path opacity="0.4286" d="M129.102 476.122L139.883 468.071C141.447 467.17 151.327 459.579 153.203 459.671C156.239 458.697 159.587 459.267 162.605 458.476C163.543 458.237 165.88 459.028 166.873 459.028C169.688 459.028 175.833 461.674 177.856 462.851L238.588 497.076L241.678 498.822L305.592 534.849C307.432 535.915 311.222 539.022 312.087 540.639C312.694 541.779 313.338 542.845 313.595 544.04C314.552 548.359 312.124 552.826 306.788 555.914L294.756 561.796C292.144 563.303 273.764 570.545 271.501 569.24C268.944 570.71 261.327 569.001 258.071 569.001C255.256 569.001 249.056 566.317 247.032 565.141L196.144 535.529L188.73 531.21L130.39 497.242C128.514 496.157 124.613 492.922 123.749 491.268C123.178 490.183 122.571 489.172 122.314 488.033C121.338 483.713 123.749 479.21 129.102 476.122Z" fill="#8B8EC9"/>
<path opacity="0.4762" d="M129.265 476.544L139.973 468.769C141.72 467.758 151.177 460.737 153.256 460.829C156.273 459.946 159.603 460.718 162.528 459.909C163.375 459.671 165.803 460.553 166.705 460.553C169.299 460.553 175.609 463.383 177.467 464.45L237.242 498.16L240.277 499.87L303.216 535.363C304.909 536.338 308.883 539.499 309.692 540.969C310.318 542.091 310.999 543.102 311.293 544.26C312.36 548.469 310.024 552.899 304.725 555.95L292.877 561.758C289.97 563.431 272.363 570.103 269.843 568.651C267.506 569.993 259.65 567.934 256.67 567.934C254.076 567.934 247.692 565.067 245.834 564.001L195.681 534.849L188.377 530.603L130.866 497.186C129.136 496.193 125.034 492.903 124.224 491.396C123.654 490.33 123.01 489.374 122.716 488.271C121.63 484.08 123.93 479.614 129.265 476.544Z" fill="#8789C6"/>
<path opacity="0.5238" d="M129.412 476.986L140.064 469.468C141.977 468.365 151.011 461.877 153.31 461.987C156.328 461.197 159.602 462.171 162.436 461.325C163.208 461.105 165.692 462.079 166.502 462.079C168.856 462.079 175.351 465.075 177.044 466.049L235.88 499.245L238.879 500.936L300.824 535.897C302.351 536.779 306.527 539.996 307.3 541.319C307.944 542.422 308.661 543.378 308.974 544.499C310.152 548.598 307.907 552.991 302.645 556.024L290.963 561.74C287.78 563.578 270.927 569.681 268.149 568.082C266.015 569.313 257.939 566.905 255.234 566.905C252.879 566.905 246.293 563.854 244.619 562.898L195.202 534.224L188.009 530.052L131.343 497.168C129.78 496.267 125.475 492.922 124.72 491.58C124.131 490.533 123.451 489.632 123.138 488.566C121.905 484.448 124.113 480.037 129.412 476.986Z" fill="#8385C2"/>
<path opacity="0.5714" d="M129.563 477.427L140.141 470.185C142.239 468.972 150.83 463.053 153.332 463.163C156.331 462.465 159.569 463.641 162.329 462.777C163.028 462.557 165.567 463.641 166.303 463.641C168.419 463.641 175.115 466.821 176.624 467.685L234.522 500.385L237.466 502.039L298.436 536.466C299.816 537.257 304.397 540.418 304.893 541.705C305.721 542.661 306.292 543.69 306.641 544.775C307.929 548.782 305.777 553.12 300.552 556.134L289.053 561.759C285.576 563.762 269.478 569.295 266.46 567.549C264.547 568.651 256.231 565.894 253.803 565.894C251.687 565.894 244.917 562.678 243.39 561.795L194.709 533.599L187.626 529.5L131.807 497.168C130.39 496.359 125.662 493.069 125.184 491.764C124.411 490.863 123.859 489.871 123.51 488.86C122.185 484.834 124.301 480.441 129.563 477.427Z" fill="#7F80BF"/>
<path opacity="0.619" d="M129.705 477.849L140.21 470.865C142.473 469.56 150.66 464.174 153.364 464.303C156.363 463.714 159.546 465.075 162.214 464.174C162.821 463.972 165.452 465.13 166.096 465.13C167.972 465.13 174.853 468.475 176.196 469.247L233.155 501.432L236.044 503.068L296.021 536.962C297.253 537.661 302.037 540.878 302.46 542.017C303.325 542.918 303.913 543.929 304.3 544.977C305.698 548.873 303.637 553.175 298.449 556.152L287.116 561.685C283.345 563.854 268.019 568.817 264.763 566.923C263.07 567.898 254.534 564.81 252.363 564.81C250.486 564.81 243.513 561.409 242.17 560.637L194.226 532.919L187.253 528.893L132.262 497.113C131.011 496.396 126.062 493.069 125.657 491.892C124.848 491.028 124.277 490.073 123.909 489.08C122.456 485.202 124.498 480.864 129.705 477.849Z" fill="#7B7CBC"/>
<path opacity="0.6667" d="M129.854 478.291L140.286 471.582C142.733 470.167 150.478 465.351 153.404 465.479C156.384 464.983 159.438 465.001 162.124 465.626C162.676 465.535 165.344 466.692 165.914 466.692C167.552 466.692 174.616 470.222 175.794 470.902L231.815 502.554L234.648 504.153L293.632 537.514C294.699 538.139 299.685 541.393 300.052 542.385C300.936 543.249 301.561 544.223 301.966 545.234C303.474 549.021 301.487 553.267 296.355 556.245L285.205 561.704C281.14 564.038 266.587 568.431 263.073 566.391C261.583 567.255 252.825 563.799 250.93 563.799C249.293 563.799 242.136 560.215 240.94 559.535L193.732 532.313L186.869 528.361L132.725 497.113C131.621 496.47 126.488 493.106 126.12 492.077C125.292 491.249 124.685 490.33 124.298 489.375C122.716 485.57 124.685 481.269 129.854 478.291Z" fill="#7777B9"/>
<path opacity="0.7143" d="M129.998 478.713L140.356 472.262C142.968 470.754 150.29 466.472 153.436 466.619C156.417 466.214 159.416 466.325 162.01 467.042C162.488 466.968 165.229 468.218 165.708 468.218C167.124 468.218 174.355 471.912 175.367 472.501L230.431 503.656L233.209 505.237L291.217 538.066C292.137 538.599 297.307 541.907 297.62 542.753C298.521 543.58 299.184 544.517 299.607 545.491C301.226 549.168 299.331 553.377 294.235 556.318L283.251 561.685C278.909 564.203 265.111 568.008 261.34 565.839C260.07 566.574 251.074 562.77 249.455 562.77C248.038 562.77 240.697 559.02 239.685 558.432L193.212 531.669L186.461 527.772L133.162 497.076C132.224 496.525 126.888 493.106 126.576 492.223C125.711 491.433 125.104 490.551 124.662 489.632C122.988 485.937 124.865 481.691 129.998 478.713Z" fill="#7373B6"/>
<path opacity="0.7619" d="M130.167 479.155L140.451 472.979C143.229 471.379 150.147 467.648 153.477 467.795C156.439 467.483 159.401 467.685 161.921 468.475C162.326 468.42 165.123 469.743 165.527 469.743C166.705 469.743 174.138 473.622 174.965 474.1L229.092 504.741L231.833 506.285L288.848 538.599C289.62 539.04 294.974 542.403 295.25 543.102C296.188 543.892 296.869 544.793 297.311 545.73C299.04 549.315 297.237 553.469 292.178 556.391L281.378 561.667C276.742 564.35 263.698 567.585 259.687 565.269C258.62 565.876 249.403 561.74 248.06 561.74C246.882 561.74 239.339 557.807 238.511 557.31L192.775 531.026L186.133 527.202L133.662 497.039C132.871 496.58 127.334 493.106 127.076 492.389C126.193 491.635 125.549 490.79 125.089 489.889C123.268 486.305 125.052 482.095 130.167 479.155Z" fill="#6F6EB3"/>
<path opacity="0.8095" d="M130.311 479.596L140.522 473.677C143.484 471.968 149.96 468.788 153.51 468.953C156.472 468.733 159.379 469.027 161.808 469.909C162.121 469.854 164.991 471.288 165.322 471.288C166.26 471.288 173.877 475.331 174.539 475.717L227.709 505.844L230.395 507.369L286.434 539.132C287.041 539.481 292.598 542.881 292.818 543.451C293.775 544.205 294.493 545.069 294.971 545.969C296.829 549.443 295.1 553.561 290.077 556.465L279.443 561.667C274.513 564.516 262.241 567.181 257.973 564.718C257.127 565.214 247.67 560.711 246.603 560.711C245.665 560.711 237.938 556.594 237.257 556.208L192.256 530.401L185.725 526.651L134.119 497.021C133.494 496.653 127.753 493.143 127.533 492.554C126.631 491.838 125.95 491.029 125.472 490.165C123.54 486.673 125.233 482.518 130.311 479.596Z" fill="#6B6AB0"/>
<path opacity="0.8571" d="M130.464 480.018L140.601 474.375C143.729 472.574 149.8 469.946 153.553 470.111C156.497 469.982 159.367 470.368 161.722 471.324C161.961 471.287 164.905 472.795 165.144 472.795C165.843 472.795 173.643 477.022 174.14 477.316L226.371 506.946L229.002 508.435L284.049 539.664C284.509 539.922 290.249 543.377 290.414 543.8C291.389 544.517 292.125 545.344 292.64 546.208C294.609 549.572 292.972 553.652 287.986 556.52L277.536 561.63C272.311 564.644 260.812 566.74 256.286 564.129C255.642 564.497 245.984 559.663 245.174 559.663C244.475 559.663 236.545 555.362 236.049 555.068L191.784 529.739L185.363 526.063L134.585 496.984C134.107 496.708 128.164 493.142 128.017 492.701C127.079 492.021 126.38 491.231 125.883 490.422C123.804 487.058 125.423 482.922 130.464 480.018Z" fill="#6765AC"/>
<path opacity="0.9048" d="M130.611 480.46L140.674 475.074C143.986 473.162 149.616 471.085 153.571 471.269C156.497 471.232 159.33 471.71 161.611 472.758C161.777 472.74 164.776 474.339 164.941 474.339C165.419 474.339 173.386 478.732 173.735 478.934L225.028 508.049L227.604 509.52L281.675 540.216C281.988 540.4 287.912 543.892 288.022 544.168C289.034 544.848 289.789 545.638 290.322 546.466C292.401 549.719 290.856 553.763 285.907 556.612L275.622 561.63C270.103 564.81 259.377 566.335 254.594 563.578C254.17 563.817 244.272 558.634 243.739 558.634C243.261 558.634 235.147 554.167 234.816 553.965L191.287 529.114L184.976 525.511L135.045 496.984C134.732 496.8 128.587 493.179 128.477 492.885C127.52 492.223 126.784 491.488 126.251 490.716C124.08 487.426 125.607 483.345 130.611 480.46Z" fill="#6361A9"/>
<path opacity="0.9524" d="M130.755 480.901L140.764 475.791C144.241 473.787 149.447 472.243 153.624 472.446C156.549 472.501 159.327 473.07 161.516 474.21C161.59 474.192 164.681 475.901 164.754 475.901C164.993 475.901 173.144 480.478 173.328 480.57L223.664 509.152L226.185 510.586L279.262 540.749C279.409 540.841 285.536 544.389 285.591 544.517C286.621 545.161 287.412 545.914 287.983 546.705C290.19 549.848 288.7 553.836 283.806 556.667L273.706 561.612C267.911 564.957 257.921 565.913 252.898 563.008C252.677 563.137 242.559 557.586 242.283 557.586C242.043 557.586 233.746 552.936 233.58 552.844L190.787 528.452L184.587 524.923L135.483 496.947C135.318 496.855 128.989 493.179 128.934 493.032C127.959 492.407 127.186 491.709 126.634 490.955C124.353 487.812 125.806 483.75 130.755 480.901Z" fill="#5F5CA6"/>
<path opacity="0.2" d="M251.226 562.439L190.329 527.809L129.432 493.179C124.152 490.128 124.815 484.816 130.904 481.305L140.839 476.453C146.929 472.942 156.146 472.556 161.426 475.607L222.323 510.237L283.22 544.866C288.5 547.918 287.837 553.23 281.748 556.741L271.813 561.593C265.723 565.104 256.506 565.49 251.226 562.439Z" fill="#5B58A3"/>
</g>
<path d="M262.13 556.244L116.143 472.041C99.6775 462.538 86.3207 437.062 86.3207 415.115V26.6889C86.3207 15.5317 77.1402 13.0686 82.6963 9.06159C82.8987 8.91454 104.976 -0.974418 105.215 -1.06632C111.194 -3.36394 117.597 -4.37489 125.379 0.110064L271.366 84.3132C287.832 93.8162 301.188 119.292 301.188 141.239V529.665C301.188 541.319 297.417 549.627 291.419 553.432C291.07 553.652 266.38 565.067 265.975 565.196C260.658 566.96 269.342 560.398 262.13 556.244Z" fill="#AFB6E5"/>
<path d="M262.13 556.244L116.144 472.041C99.6775 462.538 86.3207 437.062 86.3207 415.115V26.6889C86.3207 15.5317 77.1402 13.0686 82.6963 9.06158C82.8987 8.91453 104.608 -0.845752 104.847 -0.937657C110.827 -3.23528 117.229 -4.24623 125.011 0.238723L270.998 84.4419C287.464 93.9448 300.821 119.421 300.821 141.368V529.794C300.821 541.448 297.049 549.756 291.051 553.561C290.702 553.781 266.361 565.049 265.975 565.196C260.658 566.96 269.342 560.398 262.13 556.244Z" fill="url(#paint0_linear_2_100)"/>
<path d="M262.13 556.244L116.143 472.041C99.6775 462.538 86.3207 437.062 86.3207 415.115V26.6887C86.3207 15.5314 77.1402 13.0684 82.6963 9.06133C82.8987 8.91428 104.258 -0.717334 104.498 -0.809239C110.477 -3.10686 116.879 -4.11781 124.662 0.367141L270.648 84.5703C287.114 94.0732 300.471 119.549 300.471 141.496V529.922C300.471 541.576 296.699 549.884 290.702 553.689C290.352 553.91 266.38 565.048 265.975 565.177C260.658 566.96 269.342 560.398 262.13 556.244Z" fill="url(#paint1_linear_2_100)"/>
<path d="M262.13 556.244L116.143 472.041C99.6775 462.538 86.3207 437.062 86.3207 415.115V26.6888C86.3207 15.5316 77.1402 13.0686 82.6963 9.0615C82.8987 8.91446 103.891 -0.570117 104.13 -0.662022C110.109 -2.95964 116.511 -3.97059 124.294 0.514358L270.28 84.7175C286.746 94.2205 300.103 119.696 300.103 141.643V530.07C300.103 541.723 296.331 550.031 290.334 553.836C289.984 554.057 266.361 565.067 265.975 565.196C260.658 566.96 269.342 560.398 262.13 556.244Z" fill="url(#paint2_linear_2_100)"/>
<path d="M262.13 556.244L116.144 472.041C99.6775 462.538 86.3207 437.062 86.3207 415.115V26.6888C86.3207 15.5316 77.1402 13.0685 82.6963 9.0615C82.8987 8.91445 103.541 -0.441455 103.78 -0.53336C109.759 -2.83098 116.162 -3.84193 123.944 0.64302L269.931 84.8462C286.397 94.3491 299.753 119.825 299.753 141.772V530.198C299.753 541.852 295.982 550.16 289.984 553.965C289.635 554.185 266.38 565.067 265.975 565.196C260.658 566.96 269.342 560.398 262.13 556.244Z" fill="url(#paint3_linear_2_100)"/>
<path d="M262.13 556.244L116.143 472.041C99.6775 462.538 86.3207 437.062 86.3207 415.115V26.6891C86.3207 15.5318 77.1402 13.0688 82.6963 9.06174C82.8987 8.91469 103.173 -0.312549 103.412 -0.404454C109.391 -2.70207 115.794 -3.71303 123.576 0.771926L269.563 84.9751C286.029 94.478 299.385 119.954 299.385 141.901V530.327C299.385 541.981 295.614 550.289 289.616 554.094C289.267 554.314 266.361 565.049 265.975 565.196C260.658 566.96 269.342 560.398 262.13 556.244Z" fill="url(#paint4_linear_2_100)"/>
<path d="M262.13 556.244L116.143 472.041C99.6775 462.538 86.3207 437.062 86.3207 415.115V26.6888C86.3207 15.5316 77.1402 13.0685 82.6963 9.06149C82.8987 8.91444 102.823 -0.184135 103.063 -0.276039C109.042 -2.57366 115.444 -3.5846 123.227 0.900347L269.213 85.1035C285.679 94.6064 299.036 120.082 299.036 142.029V530.456C299.036 542.109 295.264 550.417 289.267 554.222C288.917 554.443 266.38 565.049 265.975 565.177C260.658 566.96 269.342 560.398 262.13 556.244Z" fill="url(#paint5_linear_2_100)"/>
<path d="M262.13 556.244L116.143 472.041C99.6775 462.538 86.3207 437.062 86.3207 415.115V26.689C86.3207 15.5317 77.1402 13.0687 82.6963 9.06166C82.8987 8.91461 102.456 -0.0369143 102.695 -0.128819C108.674 -2.42644 115.076 -3.43739 122.859 1.04756L268.845 85.2507C285.311 94.7536 298.668 120.23 298.668 142.177V530.603C298.668 542.256 294.896 550.564 288.899 554.369C288.549 554.59 266.361 565.067 265.975 565.196C260.658 566.96 269.342 560.398 262.13 556.244Z" fill="url(#paint6_linear_2_100)"/>
<path d="M262.13 556.244L116.143 472.041C99.6775 462.538 86.3207 437.062 86.3207 415.115V26.689C86.3207 15.5317 77.1402 13.0687 82.6963 9.06165C82.8987 8.91461 102.088 0.091748 102.345 -0.000156879C108.324 -2.29778 114.727 -3.30873 122.509 1.17622L268.496 85.3794C284.962 94.8823 298.318 120.358 298.318 142.305V530.732C298.318 542.385 294.547 550.693 288.549 554.498C288.2 554.719 266.38 565.067 265.975 565.196C260.658 566.96 269.342 560.398 262.13 556.244Z" fill="url(#paint7_linear_2_100)"/>
<path d="M262.13 556.244L116.144 472.041C99.6775 462.538 86.3207 437.062 86.3207 415.115V26.689C86.3207 15.5317 77.1402 13.0687 82.6963 9.06165C82.8987 8.9146 101.738 0.22041 101.977 0.128505C107.956 -2.16911 114.359 -3.18007 122.141 1.30489L268.128 85.508C284.594 95.011 297.95 120.487 297.95 142.434V530.842C297.95 542.495 294.179 550.804 288.181 554.608C287.832 554.829 266.38 565.03 265.975 565.177C260.658 566.96 269.342 560.398 262.13 556.244Z" fill="url(#paint8_linear_2_100)"/>
<path d="M262.13 556.244L116.143 472.041C99.6775 462.538 86.3207 437.062 86.3207 415.115V26.689C86.3207 15.5317 77.1402 13.0687 82.6963 9.06165C82.8987 8.9146 101.37 0.349072 101.609 0.257167C107.589 -2.04045 113.991 -3.05141 121.773 1.43355L267.76 85.6367C284.226 95.1396 297.583 120.616 297.583 142.562V530.989C297.583 542.642 293.811 550.951 287.813 554.755C287.464 554.976 266.361 565.049 265.975 565.177C260.658 566.96 269.342 560.398 262.13 556.244Z" fill="url(#paint9_linear_2_100)"/>
<path d="M262.13 556.244L116.143 472.041C99.6775 462.538 86.3207 437.062 86.3207 415.115V26.6889C86.3207 15.5317 77.1402 13.0686 82.6963 9.06157C82.8987 8.91452 101.021 0.496045 101.26 0.40414C107.239 -1.89348 113.641 -2.90443 121.424 1.58052L267.41 85.7837C283.876 95.2866 297.233 120.763 297.233 142.709V531.136C297.233 542.789 293.461 551.098 287.464 554.902C287.114 555.123 266.38 565.067 265.975 565.196C260.658 566.96 269.342 560.398 262.13 556.244Z" fill="url(#paint10_linear_2_100)"/>
<path d="M262.13 556.244L116.143 472.041C99.6775 462.538 86.3207 437.062 86.3207 415.115V26.6891C86.3207 15.5319 77.1402 13.0689 82.6963 9.06181C82.8987 8.91476 100.653 0.624951 100.892 0.533046C106.871 -1.76457 113.273 -2.77553 121.056 1.70943L267.042 85.9126C283.508 95.4155 296.865 120.892 296.865 142.838V531.265C296.865 542.918 293.093 551.226 287.096 555.031C286.746 555.252 266.361 565.067 265.975 565.196C260.658 566.96 269.342 560.398 262.13 556.244Z" fill="url(#paint11_linear_2_100)"/>
<path d="M262.13 556.244L116.143 472.041C99.6775 462.538 86.3207 437.062 86.3207 415.115V26.6889C86.3207 15.5316 77.1402 13.0686 82.6963 9.06156C82.8987 8.91451 100.303 0.753369 100.542 0.661464C106.521 -1.63615 112.924 -2.64711 120.706 1.83784L266.693 86.041C283.159 95.5439 296.515 121.02 296.515 142.967V531.393C296.515 543.047 292.744 551.355 286.746 555.16C286.397 555.38 266.38 565.049 265.975 565.196C260.658 566.96 269.342 560.398 262.13 556.244Z" fill="url(#paint12_linear_2_100)"/>
<path d="M262.13 556.244L116.143 472.041C99.6775 462.538 86.3207 437.062 86.3207 415.115V26.6889C86.3207 15.5316 77.1402 13.0686 82.6963 9.06155C82.8987 8.91451 99.9351 0.882031 100.174 0.790126C106.154 -1.50749 112.556 -2.51845 120.338 1.96651L266.325 86.1696C282.791 95.6726 296.147 121.149 296.147 143.095V531.522C296.147 543.175 292.376 551.483 286.378 555.288C286.029 555.509 266.361 565.049 265.975 565.177C260.658 566.96 269.342 560.398 262.13 556.244Z" fill="url(#paint13_linear_2_100)"/>
<path d="M262.13 556.244L116.143 472.041C99.6775 462.538 86.3207 437.062 86.3207 415.115V26.6888C86.3207 15.5316 77.1402 13.0685 82.6963 9.06148C82.8987 8.91443 99.5855 1.029 99.8247 0.937095C105.804 -1.36052 112.206 -2.37147 119.989 2.11348L265.975 86.3166C282.441 95.8196 295.798 121.296 295.798 143.242V531.669C295.798 543.322 292.026 551.63 286.029 555.435C285.679 555.656 266.38 565.067 265.975 565.195C260.658 566.96 269.342 560.398 262.13 556.244Z" fill="url(#paint14_linear_2_100)"/>
<path d="M262.13 556.244L116.143 472.041C99.6775 462.538 86.3207 437.062 86.3207 415.115V26.6888C86.3207 15.5316 77.1402 13.0685 82.6963 9.06147C82.8987 8.91442 99.2175 1.15767 99.4567 1.06576C105.436 -1.23186 111.838 -2.24281 119.621 2.24214L265.607 86.4453C282.073 95.9482 295.43 121.424 295.43 143.371V531.797C295.43 543.451 291.658 551.759 285.661 555.564C285.311 555.784 266.361 565.067 265.975 565.195C260.658 566.96 269.342 560.398 262.13 556.244Z" fill="url(#paint15_linear_2_100)"/>
<path d="M262.13 556.244L116.143 472.041C99.6775 462.538 86.3207 437.062 86.3207 415.115V26.6888C86.3207 15.5316 77.1402 13.0685 82.6963 9.06147C82.8987 8.91442 98.8496 1.28633 99.1071 1.19442C105.086 -1.1032 111.489 -2.11415 119.271 2.3708L265.258 86.5739C281.724 96.0769 295.08 121.553 295.08 143.5V531.926C295.08 543.58 291.309 551.888 285.311 555.693C284.962 555.913 266.38 565.048 265.975 565.195C260.658 566.96 269.342 560.398 262.13 556.244Z" fill="url(#paint16_linear_2_100)"/>
<path d="M262.13 556.244L116.143 472.041C99.6775 462.538 86.3207 437.062 86.3207 415.115V26.6888C86.3207 15.5316 77.1402 13.0685 82.6963 9.06146C82.8987 8.91442 98.5 1.41499 98.7392 1.32309C104.718 -0.974534 111.121 -1.98549 118.903 2.49946L264.89 86.7026C281.356 96.2056 294.712 121.682 294.712 143.628V532.055C294.712 543.708 290.941 552.016 284.943 555.821C284.594 556.042 266.38 565.049 265.975 565.177C260.658 566.96 269.342 560.398 262.13 556.244Z" fill="url(#paint17_linear_2_100)"/>
<path d="M262.13 556.244L116.143 472.041C99.6775 462.538 86.3207 437.062 86.3207 415.115V26.6887C86.3207 15.5315 77.1402 13.0684 82.6963 9.06139C82.8987 8.91434 98.1321 1.56196 98.3712 1.47005C104.351 -0.827565 110.753 -1.83851 118.535 2.64644L264.522 86.8496C280.988 96.3525 294.344 121.829 294.344 143.775V532.202C294.344 543.855 290.573 552.163 284.575 555.968C284.226 556.189 266.361 565.067 265.975 565.195C260.658 566.96 269.342 560.398 262.13 556.244Z" fill="url(#paint18_linear_2_100)"/>
<path d="M262.13 556.244L116.143 472.041C99.6775 462.538 86.3207 437.062 86.3207 415.115V26.689C86.3207 15.5317 77.1402 13.0687 82.6963 9.06163C82.8987 8.91458 97.7825 1.69087 98.0217 1.59896C104.001 -0.698658 110.403 -1.70961 118.186 2.77535L264.172 86.9785C280.638 96.4814 293.995 121.957 293.995 143.904V532.312C293.995 543.966 290.223 552.274 284.226 556.079C283.876 556.299 266.38 565.049 265.975 565.177C260.658 566.96 269.342 560.398 262.13 556.244Z" fill="url(#paint19_linear_2_100)"/>
<path d="M262.13 556.244L116.143 472.041C99.6775 462.538 86.3207 437.062 86.3207 415.115V26.689C86.3207 15.5317 77.1402 13.0687 82.6963 9.06163C82.8987 8.91458 97.4145 1.81953 97.6537 1.72762C103.633 -0.569996 110.035 -1.58094 117.818 2.90401L263.804 87.1072C280.27 96.6101 293.627 122.086 293.627 144.033V532.459C293.627 544.113 289.855 552.421 283.858 556.226C283.508 556.446 266.361 565.049 265.975 565.196C260.658 566.96 269.342 560.398 262.13 556.244Z" fill="url(#paint20_linear_2_100)"/>
<path d="M248.204 562.825L102.217 478.621C85.7513 469.118 72.3945 443.642 72.3945 421.696V33.2692C72.3945 11.3408 85.7513 1.24963 102.217 10.7526L248.204 94.9557C264.67 104.459 278.027 129.935 278.027 151.882V540.308C278.027 562.236 264.67 572.309 248.204 562.825Z" fill="white"/>
<path d="M260.033 563.45C256.813 563.45 253.336 562.384 249.675 560.27L103.688 476.067C88.0683 467.06 75.3555 442.668 75.3555 421.714V33.2695C75.3555 19.2081 81.2612 10.1279 90.3865 10.1279C93.6061 10.1279 97.0833 11.194 100.744 13.3078L246.731 97.511C262.351 106.518 275.064 130.909 275.064 151.863V540.29C275.064 554.351 269.158 563.45 260.033 563.45Z" fill="url(#paint21_linear_2_100)"/>
<path d="M82.2734 426.64V39.7209C82.2734 23.6192 92.061 16.23 104.148 23.1964L246.253 105.175C258.34 112.142 268.128 130.835 268.128 146.937V533.856C268.128 549.958 258.34 557.347 246.253 550.381L104.148 468.401C92.061 461.435 82.2734 442.742 82.2734 426.64Z" fill="#AFB6E5"/>
<path d="M105.804 27.4794C94.4154 20.9174 85.1797 26.1743 85.1797 39.2248V430.5C85.1797 443.551 94.4154 459.469 105.804 466.031L244.633 546.098C256.022 552.66 265.257 547.403 265.257 534.353V143.077C265.257 130.027 256.022 114.109 244.633 107.547L105.804 27.4794Z" fill="url(#paint22_linear_2_100)"/>
<path d="M232.508 130.137L253.537 142.268C254.346 142.728 254.99 142.36 254.99 141.441C254.99 140.522 254.346 139.401 253.537 138.942L232.508 126.81C231.699 126.351 231.055 126.718 231.055 127.637C231.055 128.556 231.699 129.678 232.508 130.137ZM253.537 146.423L232.508 134.291C231.699 133.832 231.055 134.199 231.055 135.118C231.055 136.037 231.699 137.159 232.508 137.618L253.537 149.75C254.346 150.209 254.99 149.841 254.99 148.922C254.99 148.003 254.328 146.882 253.537 146.423ZM253.537 153.904L232.508 141.772C231.699 141.313 231.055 141.68 231.055 142.599C231.055 143.518 231.699 144.64 232.508 145.099L253.537 157.231C254.346 157.69 254.99 157.322 254.99 156.403C254.99 155.484 254.328 154.363 253.537 153.904Z" fill="#AFB6E5"/>
<path d="M125.034 68.5061C125.034 70.7302 123.47 71.6125 121.539 70.5096C119.607 69.3884 118.043 66.6864 118.043 64.4807C118.043 62.275 119.607 61.3743 121.539 62.4771C123.47 63.5984 125.034 66.3004 125.034 68.5061Z" fill="#AFB6E5"/>
<path d="M114.476 62.3852C114.476 64.6093 112.912 65.4916 110.98 64.3887C109.048 63.2675 107.484 60.5655 107.484 58.3598C107.484 56.1357 109.048 55.2534 110.98 56.3746C112.912 57.4591 114.476 60.1611 114.476 62.3852Z" fill="#AFB6E5"/>
<path d="M103.913 56.246C103.913 58.4701 102.349 59.3524 100.417 58.2495C98.4857 57.1283 96.9219 54.4263 96.9219 52.2205C96.9219 49.9964 98.4857 49.1142 100.417 50.217C102.349 51.3383 103.913 54.0219 103.913 56.246Z" fill="#AFB6E5"/>
<g opacity="0.5">
<path opacity="0.0909" d="M142.231 121.369C132.683 115.854 124.938 120.266 124.938 131.221V324.662C124.938 335.599 132.683 348.943 142.231 354.458L246.584 414.269C256.132 419.783 267.355 414.821 267.355 403.866V210.424C267.355 199.488 256.114 186.695 246.584 181.199L142.231 121.369Z" fill="#AFB6E5"/>
<path opacity="0.1818" d="M141.257 121.865C131.763 116.387 124.055 120.78 124.055 131.662V323.89C124.055 334.771 131.763 348.042 141.257 353.538L245.039 413.037C254.532 418.515 265.386 413.626 265.386 402.744V210.498C265.386 199.598 254.532 186.841 245.039 181.346L141.257 121.865Z" fill="#AFB6E5"/>
<path opacity="0.2727" d="M140.297 122.361C130.841 116.902 123.188 121.277 123.188 132.103V323.118C123.188 333.963 130.859 347.16 140.297 352.619L243.509 411.788C252.966 417.247 263.415 412.431 263.415 401.605V210.59C263.415 199.745 252.966 186.989 243.509 181.53L140.297 122.361Z" fill="#AFB6E5"/>
<path opacity="0.3636" d="M139.341 122.858C129.94 117.435 122.305 121.773 122.305 132.563V322.346C122.305 333.136 129.921 346.278 139.341 351.7L241.982 410.538C251.384 415.96 261.466 411.236 261.466 400.447V210.663C261.466 199.874 251.402 187.136 241.982 181.695L139.341 122.858Z" fill="#AFB6E5"/>
<path opacity="0.4545" d="M138.382 123.354C129.017 117.95 121.438 122.27 121.438 133.004V321.574C121.438 332.309 129.017 345.378 138.382 350.782L240.453 409.288C249.817 414.692 259.495 410.042 259.495 399.307V210.737C259.495 200.003 249.817 187.265 240.453 181.861L138.382 123.354Z" fill="#AFB6E5"/>
<path opacity="0.5455" d="M137.415 123.85C128.106 118.483 120.562 122.784 120.562 133.463V320.82C120.562 331.5 128.106 344.513 137.415 349.881L238.915 408.056C248.225 413.424 257.516 408.847 257.516 398.167V210.81C257.516 200.131 248.225 187.393 238.915 182.026L137.415 123.85Z" fill="#AFB6E5"/>
<path opacity="0.6364" d="M136.455 124.347C127.182 118.998 119.676 123.28 119.676 133.905V320.03C119.676 330.654 127.182 343.595 136.455 348.943L237.385 406.788C246.657 412.137 255.562 407.634 255.562 397.01V210.884C255.562 200.26 246.657 187.54 237.385 182.191L136.455 124.347Z" fill="#AFB6E5"/>
<path opacity="0.7273" d="M135.499 124.843C126.282 119.531 118.812 123.777 118.812 134.346V319.258C118.812 329.827 126.282 342.712 135.499 348.024L235.859 405.538C245.077 410.85 253.595 406.439 253.595 395.87V210.958C253.595 200.388 245.077 187.669 235.859 182.357L135.499 124.843Z" fill="#AFB6E5"/>
<path opacity="0.8182" d="M134.539 125.339C125.358 120.045 117.926 124.291 117.926 134.805V318.505C117.926 329.018 125.358 341.83 134.539 347.124L234.329 404.307C243.509 409.601 251.641 405.244 251.641 394.73V211.031C251.641 200.517 243.509 187.816 234.329 182.522L134.539 125.339Z" fill="#AFB6E5"/>
<path opacity="0.9091" d="M133.568 125.835C124.443 120.578 117.047 124.788 117.047 135.246V317.714C117.047 328.173 124.443 340.929 133.568 346.186L232.787 403.038C241.913 408.295 249.658 404.031 249.658 393.572V211.105C249.658 200.646 241.913 187.945 232.787 182.688L133.568 125.835Z" fill="#AFB6E5"/>
<path opacity="0.5" d="M132.609 126.332C123.539 121.093 116.18 125.284 116.18 135.687V316.942C116.18 327.346 123.539 340.029 132.609 345.267L231.258 401.789C240.328 407.027 247.687 402.836 247.687 392.433V211.178C247.687 200.774 240.328 188.092 231.258 182.853L132.609 126.332Z" fill="#AFB6E5"/>
</g>
<path opacity="0.95" d="M99.2535 104.09C87.2765 97.1792 77.5625 102.712 77.5625 116.442V292.33C77.5625 306.06 87.2765 322.787 99.2535 329.698L231.35 405.115C243.327 412.027 253.041 406.494 253.041 392.763V216.876C253.041 203.145 243.327 186.419 231.35 179.507L99.2535 104.09Z" fill="url(#paint23_linear_2_100)"/>
<path d="M231.35 179.489L99.2535 104.072C87.2765 97.1609 77.5625 102.694 77.5625 116.424V118.52C77.5625 104.789 87.2765 99.2563 99.2535 106.168L231.35 181.585C243.327 188.496 253.041 205.223 253.041 218.953V216.858C253.041 203.127 243.327 186.4 231.35 179.489Z" fill="url(#paint24_radial_2_100)"/>
<path opacity="0.3" d="M247.887 226.802C248.218 226.802 248.549 226.636 248.715 226.324C248.991 225.864 248.825 225.276 248.365 225L84.5331 131.239C84.0732 130.982 83.4844 131.129 83.2085 131.588C82.9325 132.048 83.0981 132.636 83.558 132.912L247.39 226.673C247.556 226.765 247.722 226.802 247.887 226.802Z" fill="#AFB6E5"/>
<path opacity="0.3" d="M247.887 252.48C248.218 252.48 248.549 252.315 248.715 252.002C248.991 251.543 248.825 250.954 248.365 250.679L84.5331 156.917C84.0732 156.66 83.4844 156.807 83.2085 157.267C82.9325 157.726 83.0981 158.314 83.558 158.59L247.39 252.351C247.556 252.443 247.722 252.48 247.887 252.48Z" fill="#AFB6E5"/>
<path opacity="0.3" d="M247.887 277.533C248.218 277.533 248.549 277.368 248.715 277.055C248.991 276.596 248.825 276.008 248.365 275.732L84.5331 181.971C84.0732 181.713 83.4844 181.86 83.2085 182.32C82.9325 182.779 83.0981 183.368 83.558 183.643L247.39 277.405C247.556 277.478 247.722 277.533 247.887 277.533Z" fill="#AFB6E5"/>
<path opacity="0.3" d="M247.887 303.211C248.218 303.211 248.549 303.046 248.715 302.734C248.991 302.274 248.825 301.686 248.365 301.41L84.5331 207.649C84.0732 207.392 83.4844 207.539 83.2085 207.998C82.9325 208.458 83.0981 209.046 83.558 209.322L247.39 303.083C247.556 303.175 247.722 303.211 247.887 303.211Z" fill="#AFB6E5"/>
<path opacity="0.3" d="M247.887 327.934C248.218 327.934 248.549 327.768 248.715 327.456C248.991 326.996 248.825 326.408 248.365 326.133L84.5331 232.371C84.0732 232.114 83.4844 232.261 83.2085 232.721C82.9325 233.18 83.0981 233.768 83.558 234.044L247.39 327.805C247.556 327.879 247.722 327.934 247.887 327.934Z" fill="#AFB6E5"/>
<path opacity="0.3" d="M247.887 353.612C248.218 353.612 248.549 353.446 248.715 353.134C248.991 352.674 248.825 352.086 248.365 351.811L84.5331 258.049C84.0732 257.792 83.4844 257.939 83.2085 258.399C82.9325 258.858 83.0981 259.446 83.558 259.722L247.39 353.483C247.556 353.575 247.722 353.612 247.887 353.612Z" fill="#AFB6E5"/>
<path opacity="0.3" d="M247.887 378.978C248.218 378.978 248.549 378.812 248.715 378.5C248.991 378.04 248.825 377.452 248.365 377.176L84.5331 283.415C84.0732 283.158 83.4844 283.305 83.2085 283.764C82.9325 284.224 83.0981 284.812 83.558 285.088L247.39 378.849C247.556 378.922 247.722 378.978 247.887 378.978Z" fill="#AFB6E5"/>
<path opacity="0.95" d="M211.109 188.165L197.992 180.592V362.085L211.109 369.658V188.165ZM230.004 217.115L216.886 209.542V370.872L230.004 378.444V217.115ZM159.08 163.608V339.238L172.198 346.811V171.181L159.08 163.608ZM191.663 215.663L178.545 208.09V350.34L191.663 357.913V215.663ZM152.752 180.518L139.634 172.945V327.511L152.752 335.084V180.518ZM100.723 190.389V304.645L113.84 312.218V197.962L100.723 190.389ZM133.287 182.026L120.169 174.453V315.765L133.287 323.338V182.026Z" fill="#2066C7"/>
<path d="M211.109 197.668L197.992 190.095V362.104L211.109 369.677V197.668ZM230.004 258.987L216.886 251.414V372.82L230.004 380.393V258.987ZM159.08 194.194V339.238L172.198 346.811V201.767L159.08 194.194ZM191.663 255.421L178.545 247.848V350.34L191.663 357.913V255.421ZM152.752 201.951L139.634 194.378V327.493L152.752 335.066V201.951ZM100.723 212.318V304.645L113.84 312.218V219.872L100.723 212.318ZM133.287 242.72L120.169 235.147V315.747L133.287 323.32V242.72Z" fill="url(#paint25_linear_2_100)"/>
<path d="M230.004 260.623L216.887 253.05V251.414L230.004 258.987V260.623Z" fill="#58595B"/>
<path d="M211.106 199.304L197.988 191.731V190.095L211.106 197.668V199.304Z" fill="#58595B"/>
<path d="M133.29 244.356L120.172 236.783V235.147L133.29 242.72V244.356Z" fill="#58595B"/>
<path d="M152.753 203.587L139.617 196.032V194.396L152.753 201.951V203.587Z" fill="#58595B"/>
<path d="M113.84 219.872V221.508L100.723 213.954V212.318L113.84 219.872Z" fill="#58595B"/>
<path d="M191.659 257.057L178.523 249.484V247.848L191.659 255.421V257.057Z" fill="#58595B"/>
<path d="M172.2 203.385L159.082 195.83V194.194L172.2 201.749V203.385Z" fill="#58595B"/>
<g opacity="0.5">
<path opacity="0.0909" d="M106.559 402.729C96.7525 397.068 88.8047 401.608 88.8047 412.839V429.455C88.8047 440.704 96.7525 454.398 106.559 460.059L236.741 535.715C246.547 541.377 258.101 536.285 258.101 525.036V508.42C258.101 497.171 246.566 484.028 236.741 478.385L106.559 402.729Z" fill="#AFB6E5"/>
<path opacity="0.1818" d="M106.981 404.145C97.2118 398.52 89.3008 403.023 89.3008 414.217V429.584C89.3008 440.778 97.2118 454.417 106.981 460.041L236.575 535.366C246.344 540.991 257.475 535.973 257.475 524.779V509.412C257.475 498.218 246.326 485.094 236.575 479.47L106.981 404.145Z" fill="#AFB6E5"/>
<path opacity="0.2727" d="M107.409 405.542C97.6946 399.935 89.8203 404.42 89.8203 415.559V429.676C89.8203 440.815 97.6946 454.38 107.409 459.986L236.414 534.98C246.128 540.586 256.872 535.642 256.872 524.503V510.387C256.872 499.248 246.128 486.142 236.414 480.536L107.409 405.542Z" fill="#AFB6E5"/>
<path opacity="0.3636" d="M107.828 406.957C98.1695 401.387 90.332 405.854 90.332 416.919V429.786C90.332 440.87 98.1695 454.361 107.828 459.949L236.245 534.594C245.904 540.164 256.262 535.311 256.262 524.227V511.361C256.262 500.277 245.904 487.171 236.245 481.602L107.828 406.957Z" fill="#AFB6E5"/>
<path opacity="0.4545" d="M108.231 408.354C98.6093 402.803 90.8086 407.251 90.8086 418.28V429.878C90.8086 440.907 98.6093 454.343 108.231 459.894L236.059 534.208C245.681 539.759 255.634 534.98 255.634 523.952V512.353C255.634 501.325 245.681 488.238 236.059 482.687L108.231 408.354Z" fill="#AFB6E5"/>
<path opacity="0.5455" d="M108.659 409.769C99.092 404.255 91.3281 408.667 91.3281 419.64V429.988C91.3281 440.962 99.092 454.325 108.659 459.839L235.916 533.804C245.483 539.318 255.032 534.613 255.032 523.658V513.309C255.032 502.336 245.483 489.249 235.916 483.734L108.659 409.769Z" fill="#AFB6E5"/>
<path opacity="0.6364" d="M109.082 411.166C99.5524 405.67 91.8438 410.063 91.8438 420.982V430.08C91.8438 440.999 99.5708 454.288 109.082 459.784L235.751 533.418C245.281 538.914 254.425 534.282 254.425 523.364V514.265C254.425 503.347 245.263 490.278 235.751 484.782L109.082 411.166Z" fill="#AFB6E5"/>
<path opacity="0.7273" d="M109.483 412.582C100.008 407.122 92.3359 411.497 92.3359 422.36V430.209C92.3359 441.072 100.008 454.306 109.483 459.765L235.563 533.069C245.038 538.528 253.795 533.988 253.795 523.125V515.276C253.795 504.413 245.038 491.344 235.563 485.885L109.483 412.582Z" fill="#AFB6E5"/>
<path opacity="0.8182" d="M109.909 413.997C100.489 408.556 92.8359 412.912 92.8359 423.72V430.319C92.8359 441.127 100.471 454.288 109.909 459.729L235.4 532.683C244.82 538.124 253.191 533.657 253.191 522.849V516.25C253.191 505.442 244.838 492.392 235.4 486.951L109.909 413.997Z" fill="#AFB6E5"/>
<path opacity="0.9091" d="M110.333 415.394C100.95 409.99 93.3516 414.309 93.3516 425.062V430.411C93.3516 441.164 100.95 454.27 110.333 459.674L235.235 532.297C244.618 537.701 252.566 533.326 252.566 522.573V517.224C252.566 506.471 244.6 493.439 235.235 488.017L110.333 415.394Z" fill="#AFB6E5"/>
<path opacity="0.5" d="M110.752 416.809C101.425 411.423 93.8633 415.743 93.8633 426.422V430.503C93.8633 441.201 101.425 454.233 110.752 459.618L235.066 531.892C244.394 537.278 251.955 532.958 251.955 522.279V518.198C251.955 507.501 244.394 494.469 235.066 489.083L110.752 416.809Z" fill="#AFB6E5"/>
</g>
<path d="M246.383 542.057L106.339 461.015C98.2806 456.365 91.6758 443.774 91.6758 433.021V425.393C91.6758 414.659 98.2806 409.677 106.339 414.328L246.383 495.369C254.441 500.02 261.046 512.611 261.046 523.364V530.992C261.046 541.726 254.441 546.707 246.383 542.057Z" fill="url(#paint26_linear_2_100)"/>
<path d="M246.383 495.369L106.339 414.328C98.2806 409.677 91.6758 414.659 91.6758 425.393V427.029C91.6758 416.294 98.2806 411.313 106.339 415.964L246.383 497.005C254.441 501.656 261.046 514.247 261.046 524.999V523.364C261.046 512.611 254.441 500.02 246.383 495.369Z" fill="url(#paint27_radial_2_100)"/>
<path d="M114.1 453.148L117.596 455.17V447.138L114.1 445.116V453.148ZM119.656 456.347L123.152 458.368V444.895L119.656 442.873V456.347ZM108.562 449.821L112.058 451.843V448.259L108.562 446.237V449.821ZM125.194 440.521V459.545L128.69 461.567V442.542L125.194 440.521Z" fill="white"/>
<path d="M153.288 466.603V457.266C153.288 454.693 151.467 451.549 149.222 450.263C146.978 448.958 145.156 450.005 145.156 452.579V461.916C145.156 464.085 146.444 466.622 148.192 468.166V473.11L146.039 471.879V473.57L152.405 477.246V475.555L150.252 474.323V469.379C152 469.82 153.288 468.772 153.288 466.603Z" fill="white"/>
<path d="M184.218 477.393L177.539 478.22V476.015L166.004 469.361V479.194L177.539 485.848V483.643L184.218 492.171C184.751 493.072 185.653 493.164 185.653 492.318V478.919C185.653 478.036 184.751 477.081 184.218 477.393Z" fill="white"/>
<path d="M205.133 487.41C199.908 484.396 195.658 485.499 195.658 489.874C195.658 491.215 196.1 492.704 196.799 494.211L194.867 498.237L200.736 499.781C202.061 501.123 203.533 502.336 205.115 503.255C210.34 506.269 214.59 505.166 214.59 500.81C214.59 496.454 210.358 490.425 205.133 487.41Z" fill="white"/>
<path d="M233.138 501.288C227.968 498.31 223.773 500.7 223.773 506.619C223.773 512.556 227.968 519.779 233.138 522.776C238.308 525.753 242.502 523.364 242.502 517.445C242.521 511.49 238.326 504.266 233.138 501.288ZM238.62 519.54L236.946 520.496L233.138 513.934L229.33 516.103L227.655 513.217L231.464 511.048L227.655 504.505L229.33 503.549L233.138 510.093L236.946 507.924L238.62 510.81L234.812 512.979L238.62 519.54Z" fill="#F36DD4"/>
<path d="M128.545 394.27C89.1004 371.515 57.125 316.427 57.125 271.21C57.125 225.993 89.1004 207.777 128.545 230.533C167.99 253.288 199.965 308.376 199.965 353.593C199.965 398.81 167.99 417.026 128.545 394.27Z" fill="url(#paint28_radial_2_100)"/>
<path d="M107.849 324.772V414.857C73.1324 394.822 43.8431 353.538 33.1172 309.497L107.849 324.772Z" fill="url(#paint29_linear_2_100)"/>
<path d="M107.848 414.857L114.876 410.758L114.765 321.684L107.848 324.772V414.857Z" fill="#792EB0"/>
<path d="M33.1172 309.497L40.1452 305.398L114.877 320.673L107.849 324.772L33.1172 309.497Z" fill="#F36DD4"/>
<path d="M174.006 329.055C163.851 287.33 130.256 248.344 98.9799 241.948C89.5787 240.036 81.4652 241.286 74.9892 245.109L74.9524 245.036L65.8823 251.763L66.4894 252.737C57.8241 264.133 55.1932 283.047 60.7677 305.913L104.978 314.938L117.396 335.01V385.723C123.983 389.51 129.539 391.716 135.794 393.002C142.196 394.307 147.973 394.124 153.088 392.69L154.026 394.197C154.026 394.197 162.728 387.911 163.814 386.992L165.157 385.999L165.065 385.852C176.214 375.173 180.225 354.568 174.006 329.055Z" fill="url(#paint30_linear_2_100)"/>
<path d="M110.353 322.75L53.7247 311.188C43.5691 269.464 60.6791 240.826 91.9553 247.223C123.232 253.619 156.826 292.605 166.982 334.33C177.137 376.055 160.027 404.692 128.751 398.296C122.496 397.009 116.921 394.822 110.353 391.017V322.75Z" fill="url(#paint31_linear_2_100)"/>
<path d="M167.439 333.852C157.283 292.127 123.689 253.141 92.4128 246.745C87.2062 245.679 82.4044 245.605 78.0625 246.377C81.8708 245.954 85.9736 246.138 90.3706 247.039C121.647 253.436 155.241 292.422 165.397 334.146C173.86 368.923 163.373 394.601 141.535 398.48C164.753 395.87 176.178 369.695 167.439 333.852Z" fill="url(#paint32_radial_2_100)"/>
</g>
<defs>
<linearGradient id="paint0_linear_2_100" x1="103.561" y1="0.581159" x2="284.703" y2="560.271" gradientUnits="userSpaceOnUse">
<stop stop-color="#B0B7E6"/>
<stop offset="0.1919" stop-color="#B2B8E6"/>
<stop offset="0.2828" stop-color="#B3B9E6"/>
<stop offset="0.4091" stop-color="#AFB6E5"/>
<stop offset="0.9091" stop-color="#AFB6E5"/>
<stop offset="1" stop-color="#B0B7E6"/>
</linearGradient>
<linearGradient id="paint1_linear_2_100" x1="103.383" y1="0.655172" x2="284.52" y2="560.329" gradientUnits="userSpaceOnUse">
<stop stop-color="#B2B9E6"/>
<stop offset="0.1919" stop-color="#B4BBE7"/>
<stop offset="0.2828" stop-color="#B7BDE7"/>
<stop offset="0.4091" stop-color="#AFB6E5"/>
<stop offset="0.9091" stop-color="#AFB6E5"/>
<stop offset="1" stop-color="#B2B9E6"/>
</linearGradient>
<linearGradient id="paint2_linear_2_100" x1="103.206" y1="0.729595" x2="284.338" y2="560.389" gradientUnits="userSpaceOnUse">
<stop stop-color="#B3BAE7"/>
<stop offset="0.1919" stop-color="#B7BDE9"/>
<stop offset="0.2828" stop-color="#BAC0E9"/>
<stop offset="0.4091" stop-color="#AFB6E5"/>
<stop offset="0.9091" stop-color="#AFB6E5"/>
<stop offset="1" stop-color="#B3BAE7"/>
</linearGradient>
<linearGradient id="paint3_linear_2_100" x1="103.028" y1="0.803856" x2="284.155" y2="560.448" gradientUnits="userSpaceOnUse">
<stop stop-color="#B5BBE8"/>
<stop offset="0.1919" stop-color="#B9C0EA"/>
<stop offset="0.2828" stop-color="#BEC4EA"/>
<stop offset="0.4091" stop-color="#AFB6E5"/>
<stop offset="0.9091" stop-color="#AFB6E5"/>
<stop offset="1" stop-color="#B5BBE8"/>
</linearGradient>
<linearGradient id="paint4_linear_2_100" x1="102.851" y1="0.878349" x2="283.973" y2="560.507" gradientUnits="userSpaceOnUse">
<stop stop-color="#B6BDE8"/>
<stop offset="0.1919" stop-color="#BCC2EB"/>
<stop offset="0.2828" stop-color="#C2C7EB"/>
<stop offset="0.4091" stop-color="#AFB6E5"/>
<stop offset="0.9091" stop-color="#AFB6E5"/>
<stop offset="1" stop-color="#B6BDE8"/>
</linearGradient>
<linearGradient id="paint5_linear_2_100" x1="102.673" y1="0.952184" x2="283.79" y2="560.566" gradientUnits="userSpaceOnUse">
<stop stop-color="#B8BEE9"/>
<stop offset="0.1919" stop-color="#BEC5EC"/>
<stop offset="0.2828" stop-color="#C6CBEC"/>
<stop offset="0.3927" stop-color="#B2B9E6"/>
<stop offset="0.4091" stop-color="#AFB6E5"/>
<stop offset="0.9091" stop-color="#AFB6E5"/>
<stop offset="1" stop-color="#B8BEE9"/>
</linearGradient>
<linearGradient id="paint6_linear_2_100" x1="102.496" y1="1.02661" x2="283.608" y2="560.625" gradientUnits="userSpaceOnUse">
<stop stop-color="#B9BFEA"/>
<stop offset="0.1919" stop-color="#C1C7EE"/>
<stop offset="0.2828" stop-color="#CACEEE"/>
<stop offset="0.3784" stop-color="#B6BDE7"/>
<stop offset="0.4091" stop-color="#AFB6E5"/>
<stop offset="0.9091" stop-color="#AFB6E5"/>
<stop offset="1" stop-color="#B9BFEA"/>
</linearGradient>
<linearGradient id="paint7_linear_2_100" x1="102.318" y1="1.10086" x2="283.426" y2="560.684" gradientUnits="userSpaceOnUse">
<stop stop-color="#BAC1EA"/>
<stop offset="0.1919" stop-color="#C4C9EF"/>
<stop offset="0.2828" stop-color="#CDD2EF"/>
<stop offset="0.37" stop-color="#B9C0E8"/>
<stop offset="0.4091" stop-color="#AFB6E5"/>
<stop offset="0.9091" stop-color="#AFB6E5"/>
<stop offset="0.999" stop-color="#BAC1EA"/>
<stop offset="1" stop-color="#BAC1EA"/>
</linearGradient>
<linearGradient id="paint8_linear_2_100" x1="102.141" y1="1.17512" x2="283.243" y2="560.743" gradientUnits="userSpaceOnUse">
<stop stop-color="#BCC2EB"/>
<stop offset="0.1919" stop-color="#C6CCF0"/>
<stop offset="0.277" stop-color="#D0D4F0"/>
<stop offset="0.2828" stop-color="#D1D5F0"/>
<stop offset="0.361" stop-color="#BDC3EA"/>
<stop offset="0.4091" stop-color="#AFB6E5"/>
<stop offset="0.9091" stop-color="#AFB6E5"/>
<stop offset="0.9881" stop-color="#BAC0EA"/>
<stop offset="1" stop-color="#BCC2EB"/>
</linearGradient>
<linearGradient id="paint9_linear_2_100" x1="101.963" y1="1.24937" x2="283.061" y2="560.802" gradientUnits="userSpaceOnUse">
<stop stop-color="#BDC3EC"/>
<stop offset="0.1919" stop-color="#C9CEF1"/>
<stop offset="0.2716" stop-color="#D3D7F1"/>
<stop offset="0.2828" stop-color="#D5D9F1"/>
<stop offset="0.3538" stop-color="#C1C7EB"/>
<stop offset="0.4091" stop-color="#AFB6E5"/>
<stop offset="0.9091" stop-color="#AFB6E5"/>
<stop offset="0.9836" stop-color="#BAC0EA"/>
<stop offset="1" stop-color="#BDC3EC"/>
</linearGradient>
<linearGradient id="paint10_linear_2_100" x1="101.786" y1="1.32338" x2="282.879" y2="560.861" gradientUnits="userSpaceOnUse">
<stop stop-color="#BFC5EC"/>
<stop offset="0.1919" stop-color="#CBD1F3"/>
<stop offset="0.2627" stop-color="#D5D9F3"/>
<stop offset="0.2828" stop-color="#D9DCF3"/>
<stop offset="0.3478" stop-color="#C5CAEC"/>
<stop offset="0.4091" stop-color="#AFB6E5"/>
<stop offset="0.9091" stop-color="#AFB6E5"/>
<stop offset="0.9763" stop-color="#BAC0EA"/>
<stop offset="1" stop-color="#BFC5EC"/>
</linearGradient>
<linearGradient id="paint11_linear_2_100" x1="101.609" y1="1.39787" x2="282.696" y2="560.92" gradientUnits="userSpaceOnUse">
<stop stop-color="#C0C6ED"/>
<stop offset="0.1919" stop-color="#CED3F4"/>
<stop offset="0.2591" stop-color="#D8DCF4"/>
<stop offset="0.2828" stop-color="#DDE0F4"/>
<stop offset="0.3431" stop-color="#C9CEEE"/>
<stop offset="0.4091" stop-color="#AFB6E5"/>
<stop offset="0.9091" stop-color="#AFB6E5"/>
<stop offset="0.9732" stop-color="#BAC0EA"/>
<stop offset="1" stop-color="#C0C6ED"/>
</linearGradient>
<linearGradient id="paint12_linear_2_100" x1="101.431" y1="1.47188" x2="282.514" y2="560.979" gradientUnits="userSpaceOnUse">
<stop stop-color="#C2C7EE"/>
<stop offset="0.1919" stop-color="#D0D6F5"/>
<stop offset="0.253" stop-color="#DADEF5"/>
<stop offset="0.2828" stop-color="#E1E3F5"/>
<stop offset="0.3388" stop-color="#CDD1EF"/>
<stop offset="0.4091" stop-color="#AFB6E5"/>
<stop offset="0.9091" stop-color="#AFB6E5"/>
<stop offset="0.9679" stop-color="#BAC0EA"/>
<stop offset="1" stop-color="#C2C7EE"/>
</linearGradient>
<linearGradient id="paint13_linear_2_100" x1="101.254" y1="1.54595" x2="282.332" y2="561.038" gradientUnits="userSpaceOnUse">
<stop stop-color="#C3C9EE"/>
<stop offset="0.1919" stop-color="#D3D8F6"/>
<stop offset="0.253" stop-color="#DDE1F6"/>
<stop offset="0.2828" stop-color="#E4E7F6"/>
<stop offset="0.3361" stop-color="#D0D5F0"/>
<stop offset="0.4091" stop-color="#AFB6E5"/>
<stop offset="0.9091" stop-color="#AFB6E5"/>
<stop offset="0.9656" stop-color="#BAC0EA"/>
<stop offset="1" stop-color="#C3C9EE"/>
</linearGradient>
<linearGradient id="paint14_linear_2_100" x1="101.076" y1="1.62014" x2="282.149" y2="561.097" gradientUnits="userSpaceOnUse">
<stop stop-color="#C4CAEF"/>
<stop offset="0.1919" stop-color="#D6DAF8"/>
<stop offset="0.2504" stop-color="#E0E3F8"/>
<stop offset="0.2828" stop-color="#E8EAF8"/>
<stop offset="0.3328" stop-color="#D4D8F1"/>
<stop offset="0.4091" stop-color="#AFB6E5"/>
<stop offset="0.9091" stop-color="#AFB6E5"/>
<stop offset="0.9635" stop-color="#BAC0EA"/>
<stop offset="1" stop-color="#C4CAEF"/>
</linearGradient>
<linearGradient id="paint15_linear_2_100" x1="100.899" y1="1.69439" x2="281.967" y2="561.156" gradientUnits="userSpaceOnUse">
<stop stop-color="#C6CBF0"/>
<stop offset="0.1919" stop-color="#D8DDF9"/>
<stop offset="0.2458" stop-color="#E2E6F9"/>
<stop offset="0.2828" stop-color="#ECEEF9"/>
<stop offset="0.3299" stop-color="#D8DCF3"/>
<stop offset="0.4091" stop-color="#AFB6E5"/>
<stop offset="0.9091" stop-color="#AFB6E5"/>
<stop offset="0.9597" stop-color="#BAC0EA"/>
<stop offset="1" stop-color="#C6CBF0"/>
</linearGradient>
<linearGradient id="paint16_linear_2_100" x1="100.721" y1="1.76864" x2="281.784" y2="561.215" gradientUnits="userSpaceOnUse">
<stop stop-color="#C7CDF0"/>
<stop offset="0.1919" stop-color="#DBDFFA"/>
<stop offset="0.2439" stop-color="#E5E8FA"/>
<stop offset="0.2828" stop-color="#F0F1FA"/>
<stop offset="0.3274" stop-color="#DCDFF4"/>
<stop offset="0.4091" stop-color="#AFB6E5"/>
<stop offset="0.9091" stop-color="#AFB6E5"/>
<stop offset="0.9581" stop-color="#BAC0EA"/>
<stop offset="1" stop-color="#C7CDF0"/>
</linearGradient>
<linearGradient id="paint17_linear_2_100" x1="100.544" y1="1.8429" x2="281.602" y2="561.274" gradientUnits="userSpaceOnUse">
<stop stop-color="#C9CEF1"/>
<stop offset="0.1919" stop-color="#DDE2FB"/>
<stop offset="0.2404" stop-color="#E7EAFB"/>
<stop offset="0.2828" stop-color="#F4F5FB"/>
<stop offset="0.3252" stop-color="#E0E3F5"/>
<stop offset="0.4091" stop-color="#AFB6E5"/>
<stop offset="0.9091" stop-color="#AFB6E5"/>
<stop offset="0.9551" stop-color="#BAC0EA"/>
<stop offset="1" stop-color="#C9CEF1"/>
</linearGradient>
<linearGradient id="paint18_linear_2_100" x1="100.366" y1="1.91708" x2="281.419" y2="561.332" gradientUnits="userSpaceOnUse">
<stop stop-color="#CACFF2"/>
<stop offset="0.1919" stop-color="#E0E4FD"/>
<stop offset="0.2404" stop-color="#EAEDFD"/>
<stop offset="0.2828" stop-color="#F7F8FD"/>
<stop offset="0.3236" stop-color="#E3E6F6"/>
<stop offset="0.4066" stop-color="#B1B8E6"/>
<stop offset="0.4091" stop-color="#AFB6E5"/>
<stop offset="0.9091" stop-color="#AFB6E5"/>
<stop offset="0.9539" stop-color="#BAC0EA"/>
<stop offset="1" stop-color="#CACFF2"/>
</linearGradient>
<linearGradient id="paint19_linear_2_100" x1="100.189" y1="1.9914" x2="281.237" y2="561.392" gradientUnits="userSpaceOnUse">
<stop stop-color="#CCD1F2"/>
<stop offset="0.1919" stop-color="#E2E7FE"/>
<stop offset="0.2374" stop-color="#ECEFFE"/>
<stop offset="0.2828" stop-color="#FBFCFE"/>
<stop offset="0.3217" stop-color="#E7EAF8"/>
<stop offset="0.4009" stop-color="#B5BBE7"/>
<stop offset="0.4091" stop-color="#AFB6E5"/>
<stop offset="0.9091" stop-color="#AFB6E5"/>
<stop offset="0.9514" stop-color="#BAC0EA"/>
<stop offset="1" stop-color="#CCD1F2"/>
</linearGradient>
<linearGradient id="paint20_linear_2_100" x1="100.011" y1="2.06565" x2="281.055" y2="561.451" gradientUnits="userSpaceOnUse">
<stop stop-color="#CDD2F3"/>
<stop offset="0.1919" stop-color="#E5E9FF"/>
<stop offset="0.2361" stop-color="#EFF2FF"/>
<stop offset="0.2828" stop-color="white"/>
<stop offset="0.3201" stop-color="#EBEDF9"/>
<stop offset="0.3957" stop-color="#B9BFE8"/>
<stop offset="0.4091" stop-color="#AFB6E5"/>
<stop offset="0.9091" stop-color="#AFB6E5"/>
<stop offset="0.9503" stop-color="#BAC0EA"/>
<stop offset="1" stop-color="#CDD2F3"/>
</linearGradient>
<linearGradient id="paint21_linear_2_100" x1="-187.808" y1="435.209" x2="451.895" y2="173.183" gradientUnits="userSpaceOnUse">
<stop stop-color="#AFB6E5"/>
<stop offset="0.1449" stop-color="#B6BCE8"/>
<stop offset="0.3485" stop-color="#C8CDF1"/>
<stop offset="0.5808" stop-color="#E5E9FF"/>
<stop offset="0.8551" stop-color="#F5F6FF"/>
<stop offset="1" stop-color="white"/>
</linearGradient>
<linearGradient id="paint22_linear_2_100" x1="61.2683" y1="69.724" x2="343.655" y2="608.677" gradientUnits="userSpaceOnUse">
<stop offset="0.00505051" stop-color="#273B98"/>
<stop offset="0.2274" stop-color="#2F2BA2"/>
<stop offset="0.399" stop-color="#361CAC"/>
<stop offset="0.768" stop-color="#440B89"/>
<stop offset="1" stop-color="#4E0070"/>
</linearGradient>
<linearGradient id="paint23_linear_2_100" x1="39.4835" y1="393.192" x2="254.522" y2="155.881" gradientUnits="userSpaceOnUse">
<stop offset="0.00505051" stop-color="#2BE9A3"/>
<stop offset="0.2899" stop-color="#07CDBF"/>
<stop offset="0.3434" stop-color="#00C7C5"/>
<stop offset="0.4359" stop-color="#09BECA"/>
<stop offset="0.5859" stop-color="#21A7D9"/>
<stop offset="0.7738" stop-color="#4881F1"/>
<stop offset="0.8173" stop-color="#5277F7"/>
</linearGradient>
<radialGradient id="paint24_radial_2_100" cx="0" cy="0" r="1" gradientUnits="userSpaceOnUse" gradientTransform="translate(165.305 160.03) scale(163.091 162.941)">
<stop stop-color="#711F56"/>
<stop offset="0.1614" stop-color="#6C1E52"/>
<stop offset="0.3626" stop-color="#5C1946"/>
<stop offset="0.5849" stop-color="#431233"/>
<stop offset="0.8208" stop-color="#200918"/>
<stop offset="1"/>
</radialGradient>
<linearGradient id="paint25_linear_2_100" x1="150.176" y1="329.339" x2="208.858" y2="201.643" gradientUnits="userSpaceOnUse">
<stop stop-color="#AFB6E5"/>
<stop offset="0.1449" stop-color="#B6BCE8"/>
<stop offset="0.3485" stop-color="#C8CDF1"/>
<stop offset="0.5808" stop-color="#E5E9FF"/>
<stop offset="0.9546" stop-color="#F5F4FC"/>
<stop offset="1" stop-color="#F7F6FB"/>
</linearGradient>
<linearGradient id="paint26_linear_2_100" x1="272.603" y1="563.359" x2="77.3452" y2="390.258" gradientUnits="userSpaceOnUse">
<stop stop-color="#BB6DF3"/>
<stop offset="0.5253" stop-color="#836DF3"/>
<stop offset="0.6604" stop-color="#7A6FF4"/>
<stop offset="0.879" stop-color="#6274F6"/>
<stop offset="1" stop-color="#5277F7"/>
</linearGradient>
<radialGradient id="paint27_radial_2_100" cx="0" cy="0" r="1" gradientUnits="userSpaceOnUse" gradientTransform="translate(168.003 459.656) scale(159.427 159.281)">
<stop stop-color="#711F56"/>
<stop offset="0.1614" stop-color="#6C1E52"/>
<stop offset="0.3626" stop-color="#5C1946"/>
<stop offset="0.5849" stop-color="#431233"/>
<stop offset="0.8208" stop-color="#200918"/>
<stop offset="1"/>
</radialGradient>
<radialGradient id="paint28_radial_2_100" cx="0" cy="0" r="1" gradientUnits="userSpaceOnUse" gradientTransform="translate(140.506 314.236) scale(82.2179 82.1426)">
<stop stop-color="#AFB6E5"/>
<stop offset="0.1449" stop-color="#B6BCE8"/>
<stop offset="0.3485" stop-color="#C8CDF1"/>
<stop offset="0.5808" stop-color="#E5E9FF"/>
<stop offset="0.8551" stop-color="#F5F6FF"/>
<stop offset="1" stop-color="white"/>
</radialGradient>
<linearGradient id="paint29_linear_2_100" x1="33.1205" y1="362.179" x2="107.854" y2="362.179" gradientUnits="userSpaceOnUse">
<stop offset="0.00505051" stop-color="#836DF3"/>
<stop offset="0.0529" stop-color="#8C6DF3"/>
<stop offset="0.2205" stop-color="#A66DF3"/>
<stop offset="0.3713" stop-color="#B56DF3"/>
<stop offset="0.4899" stop-color="#BB6DF3"/>
<stop offset="1" stop-color="#F36DD4"/>
</linearGradient>
<linearGradient id="paint30_linear_2_100" x1="161.058" y1="385.609" x2="78.1937" y2="245.611" gradientUnits="userSpaceOnUse">
<stop offset="0.0909" stop-color="#4088EC"/>
<stop offset="0.5" stop-color="#388CD6"/>
<stop offset="0.691" stop-color="#4EC0EA"/>
<stop offset="0.798" stop-color="#58D9F3"/>
<stop offset="1" stop-color="#38A6F5"/>
</linearGradient>
<linearGradient id="paint31_linear_2_100" x1="61.727" y1="358.411" x2="176.946" y2="273.758" gradientUnits="userSpaceOnUse">
<stop stop-color="#5277F7"/>
<stop offset="0.46" stop-color="#2E9AE1"/>
<stop offset="0.9899" stop-color="#00C7C5"/>
</linearGradient>
<radialGradient id="paint32_radial_2_100" cx="0" cy="0" r="1" gradientUnits="userSpaceOnUse" gradientTransform="translate(134.171 302.865) scale(63.1002 63.0424)">
<stop stop-color="#711F56"/>
<stop offset="0.1614" stop-color="#6C1E52"/>
<stop offset="0.3626" stop-color="#5C1946"/>
<stop offset="0.5849" stop-color="#431233"/>
<stop offset="0.8208" stop-color="#200918"/>
<stop offset="1"/>
</radialGradient>
<clipPath id="clip0_2_100">
<rect width="333" height="579" fill="white"/>
</clipPath>
</defs>
</svg>
