<svg width="315" height="326" viewBox="0 0 315 326" fill="none" xmlns="http://www.w3.org/2000/svg">
<path fill-rule="evenodd" clip-rule="evenodd" d="M166.357 2.03377C240.896 3.66541 288.192 74.7739 307.351 146.535C323.212 205.943 297.409 267.273 246.418 301.91C199.858 333.538 140.586 322.924 93.8404 291.569C39.9392 255.415 -10.8231 202.713 4.90533 139.915C23.8751 64.1751 87.9987 0.318518 166.357 2.03377Z" fill="white" stroke="#F5BD1F" stroke-width="3" stroke-dasharray="12 12"/>
<g filter="url(#filter0_d_52_268)">
<path fill-rule="evenodd" clip-rule="evenodd" d="M166.25 12.5312C235.979 14.0503 280.224 80.2548 298.147 147.067C312.984 202.378 288.846 259.478 241.145 291.727C197.589 321.173 142.141 311.291 98.4113 282.099C47.9876 248.438 0.500265 199.371 15.214 140.903C32.9599 70.3869 92.9465 10.9342 166.25 12.5312Z" fill="#F5BD1F"/>
</g>
<defs>
<filter id="filter0_d_52_268" x="0.496155" y="4.49976" width="314" height="321" filterUnits="userSpaceOnUse" color-interpolation-filters="sRGB">
<feFlood flood-opacity="0" result="BackgroundImageFix"/>
<feColorMatrix in="SourceAlpha" type="matrix" values="0 0 0 0 0 0 0 0 0 0 0 0 0 0 0 0 0 0 127 0" result="hardAlpha"/>
<feOffset dy="4"/>
<feGaussianBlur stdDeviation="6"/>
<feComposite in2="hardAlpha" operator="out"/>
<feColorMatrix type="matrix" values="0 0 0 0 0 0 0 0 0 0 0 0 0 0 0 0 0 0 0.15 0"/>
<feBlend mode="normal" in2="BackgroundImageFix" result="effect1_dropShadow_52_268"/>
<feBlend mode="normal" in="SourceGraphic" in2="effect1_dropShadow_52_268" result="shape"/>
</filter>
</defs>
</svg>
