<svg width="30" height="27" viewBox="0 0 30 27" fill="none" xmlns="http://www.w3.org/2000/svg">
<path d="M26.2501 11.125C25.8387 11.2083 25.4199 11.2502 25.0001 11.25H24.5751C24.9339 12.9071 24.8622 14.6285 24.3668 16.25C22.9686 16.3559 21.5624 16.2406 20.2001 15.9083C20.1993 15.5591 20.1043 15.2165 19.9251 14.9167C20.9214 13.6098 21.7034 12.1527 22.2418 10.6C21.8553 10.4105 21.4895 10.1815 21.1501 9.91668C20.6622 11.417 19.9271 12.8253 18.9751 14.0833C18.6118 13.9295 18.2096 13.8925 17.8243 13.9777C17.439 14.0628 17.0898 14.2657 16.8251 14.5583C16.5334 14.3917 16.2418 14.225 15.9918 14.0333C14.3095 12.9109 12.9047 11.4206 11.8835 9.67502C12.0485 9.47036 12.1687 9.23328 12.2361 8.97917C12.3036 8.72505 12.3169 8.45959 12.2751 8.20002C14.5618 7.42485 17.0087 7.247 19.3834 7.68335C19.1781 7.26082 19.0216 6.81629 18.9168 6.35835C16.4749 6.02722 13.9892 6.28436 11.6668 7.10835C11.4044 6.85268 11.0751 6.67645 10.7168 6.60002H10.5084C10.4084 6.25002 10.3168 5.90002 10.2418 5.54168C10.1668 5.18335 10.1251 4.86668 10.0835 4.52501C11.4144 3.80458 12.8923 3.39778 14.4045 3.33568C15.9166 3.27357 17.4229 3.55781 18.8084 4.16668C18.8774 3.59329 19.0261 3.03232 19.2501 2.50002C17.4736 1.76535 15.543 1.48107 13.6302 1.67247C11.7173 1.86386 9.88131 2.525 8.28556 3.59708C6.68981 4.66916 5.38371 6.11896 4.48341 7.81757C3.58311 9.51617 3.11652 11.4109 3.12512 13.3333C3.12512 13.7083 3.12512 14.075 3.18345 14.4417C3.33381 16.0139 3.80184 17.5392 4.55916 18.9252C5.31648 20.3112 6.34732 21.5289 7.58923 22.5047C8.83113 23.4805 10.2582 24.1939 11.784 24.6018C13.3098 25.0097 14.9026 25.1036 16.4657 24.8777C18.0289 24.6518 19.5299 24.1109 20.8778 23.2877C22.2257 22.4645 23.3924 21.3763 24.3073 20.0888C25.2221 18.8014 25.866 17.3416 26.2 15.7979C26.534 14.2542 26.551 12.6588 26.2501 11.1083V11.125ZM8.96678 5.22502C8.96678 5.40002 9.01678 5.58335 9.05012 5.75835C9.12512 6.12501 9.22512 6.48335 9.32512 6.84168C9.006 7.03065 8.74917 7.30887 8.58628 7.64205C8.4234 7.97523 8.36158 8.34879 8.40845 8.71668C7.09008 9.57499 5.91228 10.6319 4.91678 11.85C5.11603 10.5315 5.57698 9.26612 6.27251 8.12837C6.96803 6.99062 7.88409 6.00348 8.96678 5.22502V5.22502ZM8.96678 18.3167C8.63992 18.4247 8.34747 18.6172 8.11914 18.8748C7.89081 19.1324 7.73473 19.4459 7.66678 19.7833H7.13345C5.78768 18.1782 4.98279 16.1893 4.83345 14.1L4.92512 13.9417C5.96863 12.3236 7.33284 10.9367 8.93345 9.86668C9.17343 10.1173 9.47669 10.2984 9.81115 10.3908C10.1456 10.4832 10.4988 10.4835 10.8334 10.3917C11.9481 12.2753 13.4717 13.8844 15.2918 15.1C15.6335 15.325 15.9835 15.5333 16.3335 15.7333C16.3054 16.0521 16.357 16.3728 16.4834 16.6667C14.9584 17.8777 13.1993 18.7601 11.3168 19.2583C11.0985 18.8505 10.7422 18.5335 10.3118 18.364C9.88127 18.1946 9.40455 18.1837 8.96678 18.3333V18.3167ZM14.8001 23.3167C13.1053 23.3171 11.4386 22.884 9.95845 22.0583L10.1918 22.0083C10.5234 21.8995 10.8197 21.7037 11.0499 21.4414C11.28 21.179 11.4355 20.8596 11.5001 20.5167C13.6309 19.9733 15.6202 18.9786 17.3334 17.6C17.7404 17.8378 18.221 17.9167 18.6826 17.8213C19.1442 17.7259 19.5541 17.463 19.8334 17.0833C21.0092 17.389 22.2186 17.5458 23.4334 17.55H23.8751C23.0706 19.2801 21.7878 20.7439 20.1784 21.7687C18.5689 22.7935 16.6998 23.3364 14.7918 23.3333L14.8001 23.3167Z" fill="black"/>
<path d="M25.0007 9.16658C27.3018 9.16658 29.1673 7.30111 29.1673 4.99992C29.1673 2.69873 27.3018 0.833252 25.0007 0.833252C22.6995 0.833252 20.834 2.69873 20.834 4.99992C20.834 7.30111 22.6995 9.16658 25.0007 9.16658Z" fill="black"/>
</svg>
