<svg width="398" height="374" viewBox="0 0 398 374" fill="none" xmlns="http://www.w3.org/2000/svg">
<path d="M375.45 27.929V34.3047" stroke="#B8D1FB" stroke-width="3.8861" stroke-miterlimit="10" stroke-linecap="round" stroke-linejoin="round"/>
<path d="M372.259 31.1213H378.635" stroke="#B8D1FB" stroke-width="3.8861" stroke-miterlimit="10" stroke-linecap="round" stroke-linejoin="round"/>
<path d="M322.144 18.5068V28.376" stroke="#B8D1FB" stroke-width="3.8861" stroke-miterlimit="10" stroke-linecap="round" stroke-linejoin="round"/>
<path d="M317.211 23.4414H327.071" stroke="#B8D1FB" stroke-width="3.8861" stroke-miterlimit="10" stroke-linecap="round" stroke-linejoin="round"/>
<path d="M370.063 83.459V88.6581" stroke="#B8D1FB" stroke-width="3.8861" stroke-miterlimit="10" stroke-linecap="round" stroke-linejoin="round"/>
<path d="M367.462 86.0586H372.661" stroke="#B8D1FB" stroke-width="3.8861" stroke-miterlimit="10" stroke-linecap="round" stroke-linejoin="round"/>
<path d="M362.926 57.0531C367.878 57.0531 371.892 53.0389 371.892 48.087C371.892 43.1351 367.878 39.1208 362.926 39.1208C357.974 39.1208 353.96 43.1351 353.96 48.087C353.96 53.0389 357.974 57.0531 362.926 57.0531Z" stroke="#B8D1FB" stroke-width="3.8861" stroke-miterlimit="10" stroke-linecap="round" stroke-linejoin="round"/>
<path d="M391.961 124.45V116.459" stroke="#B8D1FB" stroke-width="3.8861" stroke-miterlimit="10" stroke-linecap="round" stroke-linejoin="round"/>
<path d="M395.957 120.455H387.967" stroke="#B8D1FB" stroke-width="3.8861" stroke-miterlimit="10" stroke-linecap="round" stroke-linejoin="round"/>
<path d="M344.955 110.002V102.011" stroke="#B8D1FB" stroke-width="3.8861" stroke-miterlimit="10" stroke-linecap="round" stroke-linejoin="round"/>
<path d="M348.951 106.007H340.961" stroke="#B8D1FB" stroke-width="3.8861" stroke-miterlimit="10" stroke-linecap="round" stroke-linejoin="round"/>
<path d="M368.962 146.742C372.977 146.742 376.232 143.487 376.232 139.472C376.232 135.458 372.977 132.203 368.962 132.203C364.947 132.203 361.692 135.458 361.692 139.472C361.692 143.487 364.947 146.742 368.962 146.742Z" stroke="#B8D1FB" stroke-width="3.8861" stroke-miterlimit="10" stroke-linecap="round" stroke-linejoin="round"/>
<path d="M17.4468 266.677V281.024" stroke="#B8D1FB" stroke-width="3.8861" stroke-miterlimit="10" stroke-linecap="round" stroke-linejoin="round"/>
<path d="M10.2686 273.855H24.6162" stroke="#B8D1FB" stroke-width="3.8861" stroke-miterlimit="10" stroke-linecap="round" stroke-linejoin="round"/>
<path d="M37.0425 324.879V334.748" stroke="#B8D1FB" stroke-width="3.8861" stroke-miterlimit="10" stroke-linecap="round" stroke-linejoin="round"/>
<path d="M32.1094 329.814H41.9785" stroke="#B8D1FB" stroke-width="3.8861" stroke-miterlimit="10" stroke-linecap="round" stroke-linejoin="round"/>
<path d="M9.58503 324.834C13.5999 324.834 16.8546 321.579 16.8546 317.564C16.8546 313.549 13.5999 310.294 9.58503 310.294C5.57014 310.294 2.31543 313.549 2.31543 317.564C2.31543 321.579 5.57014 324.834 9.58503 324.834Z" stroke="#B8D1FB" stroke-width="3.8861" stroke-miterlimit="10" stroke-linecap="round" stroke-linejoin="round"/>
<path d="M14.3827 344.663C16.1357 344.663 17.5569 343.242 17.5569 341.489C17.5569 339.736 16.1357 338.315 14.3827 338.315C12.6296 338.315 11.2085 339.736 11.2085 341.489C11.2085 343.242 12.6296 344.663 14.3827 344.663Z" stroke="#B8D1FB" stroke-width="3.8861" stroke-miterlimit="10" stroke-linecap="round" stroke-linejoin="round"/>
<path d="M115.164 150.828V157.195" stroke="#B8D1FB" stroke-width="3.8861" stroke-miterlimit="10" stroke-linecap="round" stroke-linejoin="round"/>
<path d="M111.982 154.012H118.358" stroke="#B8D1FB" stroke-width="3.8861" stroke-miterlimit="10" stroke-linecap="round" stroke-linejoin="round"/>
<path d="M35.5259 134.501V144.371" stroke="#B8D1FB" stroke-width="3.8861" stroke-miterlimit="10" stroke-linecap="round" stroke-linejoin="round"/>
<path d="M30.5928 139.436H40.4619" stroke="#B8D1FB" stroke-width="3.8861" stroke-miterlimit="10" stroke-linecap="round" stroke-linejoin="round"/>
<path d="M32.4102 44.3018V54.1618" stroke="#B8D1FB" stroke-width="3.8861" stroke-miterlimit="10" stroke-linecap="round" stroke-linejoin="round"/>
<path d="M27.4868 49.2273H37.3468" stroke="#B8D1FB" stroke-width="3.8861" stroke-miterlimit="10" stroke-linecap="round" stroke-linejoin="round"/>
<path d="M24.0189 118.503C28.9708 118.503 32.985 114.489 32.985 109.537C32.985 104.585 28.9708 100.571 24.0189 100.571C19.067 100.571 15.0527 104.585 15.0527 109.537C15.0527 114.489 19.067 118.503 24.0189 118.503Z" stroke="#B8D1FB" stroke-width="3.8861" stroke-miterlimit="10" stroke-linecap="round" stroke-linejoin="round"/>
<path d="M60.8236 34.7245C65.7754 34.7245 69.7897 30.7103 69.7897 25.7584C69.7897 20.8065 65.7754 16.7922 60.8236 16.7922C55.8717 16.7922 51.8574 20.8065 51.8574 25.7584C51.8574 30.7103 55.8717 34.7245 60.8236 34.7245Z" stroke="#B8D1FB" stroke-width="3.8861" stroke-miterlimit="10" stroke-linecap="round" stroke-linejoin="round"/>
<path d="M134.14 182.58C139.092 182.58 143.107 178.565 143.107 173.613C143.107 168.661 139.092 164.647 134.14 164.647C129.189 164.647 125.174 168.661 125.174 173.613C125.174 178.565 129.189 182.58 134.14 182.58Z" stroke="#B8D1FB" stroke-width="3.8861" stroke-miterlimit="10" stroke-linecap="round" stroke-linejoin="round"/>
<path d="M84.1741 43.1343C86.3402 43.1343 88.0962 41.3783 88.0962 39.2122C88.0962 37.046 86.3402 35.29 84.1741 35.29C82.0079 35.29 80.252 37.046 80.252 39.2122C80.252 41.3783 82.0079 43.1343 84.1741 43.1343Z" stroke="#B8D1FB" stroke-width="3.8861" stroke-miterlimit="10" stroke-linecap="round" stroke-linejoin="round"/>
<path d="M51.7191 97.7886C53.4722 97.7886 54.8933 96.3674 54.8933 94.6144C54.8933 92.8613 53.4722 91.4402 51.7191 91.4402C49.9661 91.4402 48.5449 92.8613 48.5449 94.6144C48.5449 96.3674 49.9661 97.7886 51.7191 97.7886Z" stroke="#B8D1FB" stroke-width="3.8861" stroke-miterlimit="10" stroke-linecap="round" stroke-linejoin="round"/>
<path d="M124.751 18.4067C126.504 18.4067 127.926 16.9856 127.926 15.2325C127.926 13.4795 126.504 12.0583 124.751 12.0583C122.998 12.0583 121.577 13.4795 121.577 15.2325C121.577 16.9856 122.998 18.4067 124.751 18.4067Z" stroke="#B8D1FB" stroke-width="3.8861" stroke-miterlimit="10" stroke-linecap="round" stroke-linejoin="round"/>
<path d="M295.379 74.1007C295.534 72.2217 295.635 70.3336 295.635 68.4091C295.635 30.629 265.006 0 227.226 0C195.046 0 168.065 22.2284 160.778 52.1642C154.593 45.9435 146.193 42.1217 136.935 42.1217C119.34 42.1217 104.837 55.9404 102.758 73.7723C85.2357 75.3686 71.5083 90.0902 71.5083 108.032C71.5083 127.031 86.914 142.437 105.914 142.437H289.651C308.651 142.437 324.056 127.031 324.056 108.032C324.075 90.9658 311.661 76.8279 295.379 74.1007Z" fill="#2382D4"/>
<path opacity="0.2" d="M289.66 132.75H105.932C88.5651 132.75 74.2083 119.88 71.8642 103.161C71.6362 104.748 71.5176 106.372 71.5176 108.022C71.5176 127.022 86.9233 142.428 105.923 142.428H289.66C308.66 142.428 324.066 127.022 324.066 108.022C324.066 106.372 323.947 104.757 323.719 103.17C321.384 119.889 307.027 132.75 289.66 132.75Z" fill="#000042"/>
<path d="M283.432 162.367H268.062V173.896H283.432V162.367Z" fill="#D4ECFF"/>
<path d="M348.742 162.367H333.373V173.896H348.742V162.367Z" fill="#D4ECFF"/>
<path d="M357.914 153.829H258.885V167.912H357.914V153.829Z" fill="#2382D5"/>
<path d="M348.734 158.527H293.131V162.367H348.734V158.527Z" fill="#D4ECFF"/>
<path d="M283.523 162.148C284.701 162.148 285.657 161.193 285.657 160.014C285.657 158.835 284.701 157.879 283.523 157.879C282.344 157.879 281.388 158.835 281.388 160.014C281.388 161.193 282.344 162.148 283.523 162.148Z" fill="white"/>
<path d="M276.274 162.148C277.452 162.148 278.408 161.193 278.408 160.014C278.408 158.835 277.452 157.879 276.274 157.879C275.095 157.879 274.139 158.835 274.139 160.014C274.139 161.193 275.095 162.148 276.274 162.148Z" fill="white"/>
<path d="M269.011 162.148C270.19 162.148 271.146 161.193 271.146 160.014C271.146 158.835 270.19 157.879 269.011 157.879C267.833 157.879 266.877 158.835 266.877 160.014C266.877 161.193 267.833 162.148 269.011 162.148Z" fill="white"/>
<path d="M233.521 372.1H371.252C385.399 372.1 396.864 360.634 396.864 346.487V208.757C396.864 194.61 385.399 183.145 371.252 183.145" stroke="#06007B" stroke-width="1.872" stroke-miterlimit="10" stroke-linecap="round" stroke-linejoin="round"/>
<path d="M396.865 258.833C396.865 244.686 385.399 233.22 371.252 233.22" stroke="#06007B" stroke-width="1.872" stroke-miterlimit="10" stroke-linecap="round" stroke-linejoin="round"/>
<path d="M396.865 308.634C396.865 294.487 385.399 283.022 371.252 283.022" stroke="#06007B" stroke-width="1.872" stroke-miterlimit="10" stroke-linecap="round" stroke-linejoin="round"/>
<path d="M372.1 332.541C381.541 332.541 389.184 340.194 389.184 349.625L389.175 351.686C389.175 361.127 381.523 368.77 372.091 368.77H250.889" stroke="#06007B" stroke-width="1.9381" stroke-miterlimit="10" stroke-linecap="round" stroke-linejoin="round"/>
<path d="M358.215 182.643C358.215 186.027 360.96 188.764 364.335 188.764H368.011C371.395 188.764 374.131 186.018 374.131 182.643C374.131 179.259 371.386 176.523 368.011 176.523H364.335C360.951 176.523 358.215 179.259 358.215 182.643Z" fill="#06007B"/>
<path d="M274.707 211.786H254.495V222.457H274.707V211.786Z" fill="#06007B"/>
<path d="M351.941 211.786H331.728V222.457H351.941V211.786Z" fill="#06007B"/>
<path d="M368.781 209.587C368.781 212.971 366.036 215.707 362.661 215.707H243.784C240.4 215.707 237.664 212.962 237.664 209.587V177.125C237.664 173.741 240.41 171.004 243.784 171.004H362.652C366.036 171.004 368.772 173.75 368.772 177.125V209.587H368.781Z" fill="#2382D5"/>
<path opacity="0.2" d="M362.652 207.143H243.784C240.4 207.143 237.664 204.397 237.664 201.022V209.596C237.664 212.98 240.41 215.716 243.784 215.716H362.652C366.036 215.716 368.772 212.971 368.772 209.596V201.022C368.781 204.397 366.036 207.143 362.652 207.143Z" fill="#06007B"/>
<path d="M282.971 178.356H244.388V199.791H282.971V178.356Z" fill="white"/>
<path d="M361.424 178.356H289.093V199.791H361.424V178.356Z" fill="white"/>
<path d="M320.465 182.032H306.61V186.93H320.465V182.032Z" fill="#2382D4"/>
<path d="M356.102 182.032H342.247V186.93H356.102V182.032Z" fill="#2382D4"/>
<path d="M338.141 182.032H324.286V186.93H338.141V182.032Z" fill="#2382D5"/>
<path d="M358.215 232.91C358.215 236.294 360.96 239.03 364.335 239.03H368.011C371.395 239.03 374.131 236.285 374.131 232.91C374.131 229.526 371.386 226.79 368.011 226.79H364.335C360.951 226.79 358.215 229.526 358.215 232.91Z" fill="#06007B"/>
<path d="M274.707 262.052H254.495V272.724H274.707V262.052Z" fill="#06007B"/>
<path d="M351.941 262.052H331.728V272.724H351.941V262.052Z" fill="#06007B"/>
<path d="M368.781 259.854C368.781 263.238 366.036 265.974 362.661 265.974H243.784C240.4 265.974 237.664 263.229 237.664 259.854V227.392C237.664 224.008 240.41 221.271 243.784 221.271H362.652C366.036 221.271 368.772 224.017 368.772 227.392V259.854H368.781Z" fill="#2382D5"/>
<path opacity="0.2" d="M362.652 257.409H243.784C240.4 257.409 237.664 254.664 237.664 251.289V259.863C237.664 263.247 240.41 265.983 243.784 265.983H362.652C366.036 265.983 368.772 263.238 368.772 259.863V251.289C368.781 254.664 366.036 257.409 362.652 257.409Z" fill="#06007B"/>
<path d="M282.971 228.623H244.388V250.058H282.971V228.623Z" fill="white"/>
<path d="M361.424 228.623H289.093V250.058H361.424V228.623Z" fill="white"/>
<path d="M320.465 232.299H306.61V237.197H320.465V232.299Z" fill="#2382D5"/>
<path d="M356.102 232.299H342.247V237.197H356.102V232.299Z" fill="#2382D5"/>
<path d="M338.141 232.299H324.286V237.197H338.141V232.299Z" fill="#2382D5"/>
<path d="M358.215 283.177C358.215 286.561 360.96 289.298 364.335 289.298H368.011C371.395 289.298 374.131 286.552 374.131 283.177C374.131 279.793 371.386 277.057 368.011 277.057H364.335C360.951 277.057 358.215 279.793 358.215 283.177Z" fill="#06007B"/>
<path d="M274.707 312.32H254.495V322.991H274.707V312.32Z" fill="#06007B"/>
<path d="M351.941 312.32H331.728V322.991H351.941V312.32Z" fill="#06007B"/>
<path d="M368.781 310.121C368.781 313.505 366.036 316.242 362.661 316.242H243.784C240.4 316.242 237.664 313.496 237.664 310.121V277.659C237.664 274.275 240.41 271.539 243.784 271.539H362.652C366.036 271.539 368.772 274.284 368.772 277.659V310.121H368.781Z" fill="#2382D5"/>
<path opacity="0.2" d="M362.652 307.677H243.784C240.4 307.677 237.664 304.931 237.664 301.556V310.13C237.664 313.514 240.41 316.251 243.784 316.251H362.652C366.036 316.251 368.772 313.505 368.772 310.13V301.556C368.781 304.931 366.036 307.677 362.652 307.677Z" fill="#06007B"/>
<path d="M282.971 278.89H244.388V300.325H282.971V278.89Z" fill="white"/>
<path d="M361.424 278.89H289.093V300.325H361.424V278.89Z" fill="white"/>
<path d="M320.465 282.566H306.61V287.464H320.465V282.566Z" fill="#2382D5"/>
<path d="M356.102 282.566H342.247V287.464H356.102V282.566Z" fill="#2382D5"/>
<path d="M338.141 282.566H324.286V287.464H338.141V282.566Z" fill="#2382D5"/>
<path d="M358.215 333.444C358.215 336.828 360.96 339.564 364.335 339.564H368.011C371.395 339.564 374.131 336.819 374.131 333.444C374.131 330.06 371.386 327.324 368.011 327.324H364.335C360.951 327.324 358.215 330.06 358.215 333.444Z" fill="#06007B"/>
<path d="M274.707 362.586H254.495V373.258H274.707V362.586Z" fill="#06007B"/>
<path d="M351.941 362.586H331.728V373.258H351.941V362.586Z" fill="#06007B"/>
<path d="M368.781 360.397C368.781 363.781 366.036 366.518 362.661 366.518H243.784C240.4 366.518 237.664 363.772 237.664 360.397V327.935C237.664 324.551 240.41 321.814 243.784 321.814H362.652C366.036 321.814 368.772 324.56 368.772 327.935V360.397H368.781Z" fill="#2382D5"/>
<path opacity="0.2" d="M362.652 357.944H243.784C240.4 357.944 237.664 355.198 237.664 351.823V360.397C237.664 363.781 240.41 366.518 243.784 366.518H362.652C366.036 366.518 368.772 363.772 368.772 360.397V351.823C368.781 355.198 366.036 357.944 362.652 357.944Z" fill="#06007B"/>
<path d="M282.971 329.157H244.388V350.592H282.971V329.157Z" fill="white"/>
<path d="M361.424 329.157H289.093V350.592H361.424V329.157Z" fill="white"/>
<path d="M320.465 332.833H306.61V337.731H320.465V332.833Z" fill="#2382D5"/>
<path d="M356.102 332.833H342.247V337.731H356.102V332.833Z" fill="#2382D5"/>
<path d="M338.141 332.833H324.286V337.731H338.141V332.833Z" fill="#2382D5"/>
<path d="M227.128 148.338H211.704V225.467H227.128V148.338Z" fill="#81B5FC"/>
<path d="M199.928 162.047L219.42 128.299L238.903 162.047H199.928Z" fill="#81B5FC"/>
<path d="M199.106 234.005H129.584V365.14H199.106V234.005Z" fill="#2382D4"/>
<path d="M274.594 362.623H54.0889V373.386H274.594V362.623Z" fill="#1C68B7"/>
<path d="M274.464 331.045C274.464 335.761 270.642 339.583 265.926 339.583H62.7513C58.0357 339.583 54.2139 335.761 54.2139 331.045V213.664C54.2139 208.949 58.0357 205.127 62.7513 205.127H265.926C270.642 205.127 274.464 208.949 274.464 213.664V331.045Z" fill="white"/>
<path d="M265.924 342.575H62.7494C56.3919 342.575 51.2202 337.403 51.2202 331.045V213.664C51.2202 207.307 56.3919 202.135 62.7494 202.135H265.924C272.282 202.135 277.454 207.307 277.454 213.664V331.045C277.454 337.403 272.282 342.575 265.924 342.575ZM62.7494 208.119C59.6938 208.119 57.2037 210.609 57.2037 213.664V331.045C57.2037 334.101 59.6938 336.591 62.7494 336.591H265.924C268.98 336.591 271.47 334.101 271.47 331.045V213.664C271.47 210.609 268.98 208.119 265.924 208.119H62.7494Z" fill="#2F6A9D"/>
<path d="M180.213 128.299H164.789V205.428H180.213V128.299Z" fill="#81B5FC"/>
<path d="M191.988 191.719L172.505 225.467L153.013 191.719H191.988Z" fill="#81B5FC"/>
<path opacity="0.2" d="M99.7381 189.521C99.6104 188.025 98.6709 186.72 97.3027 186.109L54.4878 167.183C54.1412 167.028 53.7854 166.946 53.4115 166.891C53.3476 166.882 53.2747 166.873 53.2108 166.873C52.5176 166.809 51.8061 166.891 51.1585 167.183L8.33446 186.109C6.95716 186.72 6.0268 188.025 5.8991 189.521C0.663526 249.483 49.1063 270.344 49.5988 270.544C50.1005 270.754 50.6386 270.863 51.1768 270.863H52.1254H54.4513C54.9894 270.863 55.5276 270.754 56.0293 270.544C56.5309 270.344 104.974 249.483 99.7381 189.521Z" fill="#000042"/>
<path d="M90.1212 185.589L47.3063 166.663L4.49132 185.589C-0.543587 243.235 45.6736 262.454 45.6736 262.454H48.9481C48.9481 262.454 95.1561 243.235 90.1212 185.589Z" fill="#D4ECFF"/>
<path d="M48.9479 266.577H45.6734C45.1352 266.577 44.5971 266.467 44.0954 266.257C43.6028 266.057 -4.83989 245.187 0.395682 185.234C0.523378 183.738 1.46286 182.433 2.83104 181.822L45.646 162.896C46.7041 162.431 47.9172 162.431 48.9752 162.896L91.7902 181.822C93.1675 182.433 94.0979 183.738 94.2256 185.234C99.4611 245.196 51.0184 266.057 50.5258 266.257C50.0242 266.467 49.486 266.577 48.9479 266.577ZM46.5399 258.34H48.0722C53.7912 255.686 89.2819 237.197 86.1989 188.362L47.3061 171.169L8.41322 188.362C5.33938 237.188 40.8209 255.686 46.5399 258.34Z" fill="#1C68B7"/>
<path opacity="0.1" d="M94.2208 185.234C94.0931 183.738 93.1536 182.433 91.7854 181.822L48.9705 162.896C48.2225 162.567 47.4016 162.485 46.6172 162.613V266.567H48.9431C49.4812 266.567 50.0194 266.458 50.5211 266.248C51.0136 266.057 99.4564 245.187 94.2208 185.234Z" fill="#000042"/>
<path d="M48.1586 236.422C61.0495 236.422 71.4997 225.971 71.4997 213.08C71.4997 200.189 61.0495 189.739 48.1586 189.739C35.2676 189.739 24.8174 200.189 24.8174 213.08C24.8174 225.971 35.2676 236.422 48.1586 236.422Z" fill="#2382D4"/>
<path d="M41.9685 231.615L30.6309 212.05L35.684 209.122L42.6891 221.217L60.8677 197.958L65.4647 201.542L41.9685 231.615Z" fill="white"/>
<path opacity="0.2" d="M254.294 236.285H120.139C119.2 236.285 118.434 237.051 118.434 237.99V310.905C118.434 311.845 119.2 312.611 120.139 312.611H254.294C255.233 312.611 256 311.845 256 310.905V237.999C256 237.051 255.243 236.285 254.294 236.285Z" fill="#000042"/>
<path d="M249.165 234.579H115.011V307.494H249.165V234.579Z" fill="#D4ECFF" stroke="#2382D4" stroke-width="3.7439" stroke-miterlimit="10" stroke-linecap="round" stroke-linejoin="round"/>
<path d="M249.092 234.597H115.011V243.883H249.092V234.597Z" fill="#1C68B7"/>
<path d="M243.334 240.909C244.629 240.909 245.678 239.86 245.678 238.565C245.678 237.27 244.629 236.221 243.334 236.221C242.039 236.221 240.99 237.27 240.99 238.565C240.99 239.86 242.039 240.909 243.334 240.909Z" fill="white"/>
<path d="M234.8 240.909C236.094 240.909 237.144 239.86 237.144 238.565C237.144 237.27 236.094 236.221 234.8 236.221C233.505 236.221 232.456 237.27 232.456 238.565C232.456 239.86 233.505 240.909 234.8 240.909Z" fill="white"/>
<path d="M226.262 240.909C227.557 240.909 228.606 239.86 228.606 238.565C228.606 237.27 227.557 236.221 226.262 236.221C224.967 236.221 223.918 237.27 223.918 238.565C223.918 239.86 224.967 240.909 226.262 240.909Z" fill="white"/>
<path opacity="0.2" d="M185.573 264.889H85.1305C84.191 264.889 83.4248 265.655 83.4248 266.595V326.703C83.4248 327.643 84.191 328.409 85.1305 328.409H185.564C186.504 328.409 187.27 327.643 187.27 326.703V266.595C187.279 265.655 186.513 264.889 185.573 264.889Z" fill="#000042"/>
<path d="M180.449 263.183H80.0156V323.292H180.449V263.183Z" fill="#D4ECFF" stroke="#2382D5" stroke-width="3.7439" stroke-miterlimit="10" stroke-linecap="round" stroke-linejoin="round"/>
<path d="M180.376 263.192H80.0156V272.478H180.376V263.192Z" fill="#1C68B7"/>
<path d="M174.608 269.504C175.903 269.504 176.952 268.455 176.952 267.16C176.952 265.865 175.903 264.816 174.608 264.816C173.314 264.816 172.264 265.865 172.264 267.16C172.264 268.455 173.314 269.504 174.608 269.504Z" fill="white"/>
<path d="M166.074 269.504C167.369 269.504 168.418 268.455 168.418 267.16C168.418 265.865 167.369 264.816 166.074 264.816C164.779 264.816 163.73 265.865 163.73 267.16C163.73 268.455 164.779 269.504 166.074 269.504Z" fill="white"/>
<path d="M157.537 269.504C158.831 269.504 159.881 268.455 159.881 267.16C159.881 265.865 158.831 264.816 157.537 264.816C156.242 264.816 155.192 265.865 155.192 267.16C155.192 268.455 156.242 269.504 157.537 269.504Z" fill="white"/>
</svg>
