<svg width="26" height="26" viewBox="0 0 26 26" fill="none" xmlns="http://www.w3.org/2000/svg">
<path d="M13.0007 11.1536C18.1281 11.1536 22.2847 9.40468 22.2847 7.24731C22.2847 5.08995 18.1281 3.34106 13.0007 3.34106C7.8733 3.34106 3.71671 5.08995 3.71671 7.24731C3.71671 9.40468 7.8733 11.1536 13.0007 11.1536Z" stroke="white" stroke-width="1.5625" stroke-miterlimit="10" stroke-linecap="round"/>
<path d="M22.2847 11.4465C22.2847 13.6038 18.1263 15.3528 13.0007 15.3528C7.87517 15.3528 3.71671 13.6038 3.71671 11.4465" stroke="white" stroke-width="1.5625" stroke-miterlimit="10" stroke-linecap="round"/>
<path d="M22.2847 15.6458C22.2847 17.803 18.1263 19.552 13.0007 19.552C7.87517 19.552 3.71671 17.803 3.71671 15.6458" stroke="white" stroke-width="1.5625" stroke-miterlimit="10" stroke-linecap="round"/>
<path d="M3.71671 7.21021V19.7844C3.71671 21.9211 7.87517 23.6536 13.0007 23.6536C18.1263 23.6536 22.2847 21.9211 22.2847 19.7844V7.21021" stroke="white" stroke-width="1.5625" stroke-miterlimit="10" stroke-linecap="round"/>
</svg>
