<svg width="232" height="246" viewBox="0 0 232 246" fill="none" xmlns="http://www.w3.org/2000/svg">
<path d="M186.83 195.049C187.422 192.282 187.723 189.462 187.728 186.633C187.724 176.031 183.511 165.865 176.015 158.369C168.519 150.873 158.353 146.66 147.752 146.657C145.274 146.657 142.802 146.89 140.367 147.353C139.349 147.152 138.317 147.353 137.258 147.219C133.489 139.039 127.439 132.12 119.835 127.292C112.23 122.464 103.395 119.933 94.3876 120.001H79.6462C73.4753 119.971 67.3592 121.159 61.6483 123.497C55.9374 125.835 50.7439 129.277 46.3655 133.625C41.9871 137.974 38.5098 143.144 36.1328 148.839C33.7559 154.533 32.5261 160.641 32.5138 166.812C32.5138 167.161 32.5138 167.335 32.5138 167.683C22.7794 169.423 14.053 174.754 8.06282 182.622C2.07259 190.49 -0.744711 200.32 0.168795 210.166C1.0823 220.013 5.66001 229.157 12.9954 235.788C20.3308 242.42 29.889 246.055 39.7773 245.974H184.511C191.264 246.281 197.863 243.893 202.856 239.336C207.848 234.778 210.826 228.423 211.133 221.67C211.441 214.917 209.053 208.319 204.495 203.326C199.937 198.334 193.583 195.356 186.83 195.049Z" fill="#7A0DCB"/>
<path opacity="0.5" d="M186.83 195.049C187.422 192.282 187.723 189.462 187.728 186.633C187.724 176.031 183.511 165.865 176.015 158.369C168.519 150.873 158.353 146.66 147.752 146.657C145.274 146.657 142.802 146.89 140.367 147.353C139.349 147.152 138.317 147.353 137.258 147.219C133.489 139.039 127.439 132.12 119.835 127.292C112.23 122.464 103.395 119.933 94.3876 120.001H79.6462C73.4753 119.971 67.3592 121.159 61.6483 123.497C55.9374 125.835 50.7439 129.277 46.3655 133.625C41.9871 137.974 38.5098 143.144 36.1328 148.839C33.7559 154.533 32.5261 160.641 32.5138 166.812C32.5138 167.161 32.5138 167.335 32.5138 167.683C22.7794 169.423 14.053 174.754 8.06282 182.622C2.07259 190.49 -0.744711 200.32 0.168795 210.166C1.0823 220.013 5.66001 229.157 12.9954 235.788C20.3308 242.42 29.889 246.055 39.7773 245.974H184.511C191.264 246.281 197.863 243.893 202.856 239.336C207.848 234.778 210.826 228.423 211.133 221.67C211.441 214.917 209.053 208.319 204.495 203.326C199.937 198.334 193.583 195.356 186.83 195.049Z" fill="white"/>
<path opacity="0.4" d="M186.831 195.049C187.422 192.282 187.723 189.462 187.728 186.633C187.725 176.031 183.512 165.865 176.016 158.369C168.52 150.873 158.354 146.66 147.752 146.657C145.275 146.657 142.802 146.89 140.368 147.353C139.35 147.152 138.318 147.353 137.259 147.219C133.489 139.039 127.439 132.12 119.835 127.292C112.231 122.464 103.395 119.933 94.3884 120.001C88.2175 119.971 82.1014 121.159 76.3905 123.497C70.6795 125.835 65.4861 129.277 61.1077 133.625C56.7292 137.974 53.2519 143.144 50.875 148.839C48.4981 154.533 47.2683 160.641 47.256 166.812C47.256 167.161 47.256 167.335 47.256 167.683C37.5216 169.423 28.7952 174.754 22.805 182.622C16.8148 190.49 13.9975 200.32 14.911 210.166C15.8245 220.013 20.4022 229.157 27.7376 235.788C35.073 242.42 44.6312 246.055 54.5195 245.974H184.512C191.265 246.281 197.864 243.893 202.856 239.336C207.849 234.778 210.826 228.423 211.134 221.67C211.441 214.917 209.053 208.319 204.496 203.326C199.938 198.334 193.584 195.356 186.831 195.049Z" fill="white"/>
<path d="M216.021 46.2036C216.386 44.5005 216.571 42.7639 216.574 41.0223C216.572 34.4956 213.978 28.237 209.363 23.6219C204.748 19.0069 198.49 16.4132 191.963 16.4111C190.438 16.4112 188.916 16.5549 187.417 16.8401C186.79 16.7163 186.155 16.8401 185.503 16.7576C183.182 11.7213 179.457 7.46148 174.776 4.48924C170.094 1.51701 164.655 -0.041446 159.11 0.000838144H150.034C146.235 -0.0176222 142.47 0.713758 138.954 2.15307C135.438 3.59238 132.24 5.71133 129.545 8.3885C126.849 11.0657 124.708 14.2484 123.245 17.7544C121.782 21.2604 121.025 25.0207 121.017 28.8198C121.017 29.0343 121.017 29.1416 121.017 29.3561C115.024 30.4269 109.652 33.7092 105.964 38.553C102.276 43.3968 100.542 49.4488 101.104 55.5107C101.666 61.5725 104.485 67.2022 109.001 71.2848C113.517 75.3675 119.401 77.6054 125.489 77.5555H214.594C218.752 77.7447 222.814 76.2747 225.888 73.4687C228.961 70.6627 230.794 66.7507 230.984 62.5932C231.173 58.4357 229.703 54.3732 226.897 51.2996C224.091 48.226 220.179 46.3929 216.021 46.2036Z" fill="#7A0DCB"/>
<path opacity="0.5" d="M216.021 46.2036C216.386 44.5005 216.571 42.7639 216.574 41.0223C216.572 34.4956 213.978 28.237 209.363 23.6219C204.748 19.0069 198.49 16.4132 191.963 16.4111C190.438 16.4112 188.916 16.5549 187.417 16.8401C186.79 16.7163 186.155 16.8401 185.503 16.7576C183.182 11.7213 179.457 7.46148 174.776 4.48924C170.094 1.51701 164.655 -0.041446 159.11 0.000838144H150.034C146.235 -0.0176222 142.47 0.713758 138.954 2.15307C135.438 3.59238 132.24 5.71133 129.545 8.3885C126.849 11.0657 124.708 14.2484 123.245 17.7544C121.782 21.2604 121.025 25.0207 121.017 28.8198C121.017 29.0343 121.017 29.1416 121.017 29.3561C115.024 30.4269 109.652 33.7092 105.964 38.553C102.276 43.3968 100.542 49.4488 101.104 55.5107C101.666 61.5725 104.485 67.2022 109.001 71.2848C113.517 75.3675 119.401 77.6054 125.489 77.5555H214.594C218.752 77.7447 222.814 76.2747 225.888 73.4687C228.961 70.6627 230.794 66.7507 230.984 62.5932C231.173 58.4357 229.703 54.3732 226.897 51.2996C224.091 48.226 220.179 46.3929 216.021 46.2036Z" fill="white"/>
<path opacity="0.4" d="M216.024 46.2036C216.388 44.5005 216.574 42.7639 216.577 41.0223C216.575 34.4956 213.981 28.237 209.366 23.6219C204.751 19.0069 198.492 16.4132 191.966 16.4111C190.44 16.4112 188.918 16.5549 187.42 16.8401C186.793 16.7163 186.157 16.8401 185.505 16.7576C183.185 11.7213 179.46 7.46148 174.779 4.48924C170.097 1.51701 164.657 -0.041446 159.112 0.000838144C155.313 -0.0176222 151.548 0.713758 148.032 2.15307C144.516 3.59238 141.319 5.71133 138.623 8.3885C135.927 11.0657 133.787 14.2484 132.323 17.7544C130.86 21.2604 130.103 25.0207 130.095 28.8198C130.095 29.0343 130.095 29.1416 130.095 29.3561C124.102 30.4269 118.73 33.7092 115.042 38.553C111.354 43.3968 109.62 49.4488 110.182 55.5107C110.744 61.5725 113.563 67.2022 118.079 71.2848C122.595 75.3675 128.479 77.6054 134.567 77.5555H214.597C218.754 77.7447 222.817 76.2747 225.89 73.4687C228.964 70.6627 230.797 66.7507 230.986 62.5932C231.176 58.4357 229.706 54.3732 226.9 51.2996C224.094 48.226 220.182 46.3929 216.024 46.2036Z" fill="white"/>
</svg>
