<svg width="465" height="362" viewBox="0 0 465 362" fill="none" xmlns="http://www.w3.org/2000/svg">
<g clip-path="url(#clip0_2_22736)">
<g opacity="0.6">
<path opacity="0.6" d="M67.1901 347.451C67.1901 350.599 71.1495 353.18 75.9818 353.18H347.462C352.301 353.18 356.254 350.605 356.254 347.451C356.254 344.302 352.295 341.721 347.462 341.721H75.9818C71.1495 341.721 67.1901 344.302 67.1901 347.451Z" fill="#897AA0"/>
</g>
<path d="M104.312 231.609L103.489 229.932C106.556 228.56 109.418 226.098 111.27 222.999C109.418 226.098 106.562 228.554 103.495 229.919L101.593 226.041C101.587 226.041 101.587 226.048 101.581 226.048L100.178 223.186C106.051 220.343 110.329 213.061 98.1699 204.919C43.4311 164.208 6.79306 118.84 7.39164 85.6044C4.35509 31.745 78.9156 20.1365 69.2636 93.1979L58.9942 93.2416C72.2751 50.6229 20.0678 34.9183 18.6899 85.5607C24.0521 133.709 66.1647 159.364 109.718 199.938C124.67 214.539 114.107 230.406 104.312 231.609ZM54.3739 54.987C47.2782 48.9396 37.2895 48.4533 28.928 53.7464C25.3615 56.0032 22.4247 59.0706 20.1925 62.7925C22.4247 59.083 25.3553 56.0157 28.9218 53.7588C37.2832 48.4658 47.272 48.9521 54.3677 54.9995C62.8039 62.1816 62.8101 62.1691 54.3739 54.987ZM105.983 206.415L70.0679 175.835C52.2664 160.842 38.3432 146.041 28.6973 131.851C18.1536 116.346 12.3362 101.028 11.4009 86.3151C10.8584 76.1342 12.8911 67.1379 17.1435 60.1429C12.8911 67.1442 10.8522 76.1467 11.3947 86.3276C12.3299 101.041 18.1474 116.359 28.6911 131.864C38.337 146.054 52.2601 160.854 70.0616 175.848L105.976 206.428C109.693 210.867 110.628 215.393 108.676 219.52C108.489 219.913 108.283 220.293 108.059 220.661C108.283 220.293 108.495 219.907 108.682 219.508C110.634 215.387 109.699 210.861 105.983 206.415Z" fill="#2382D4"/>
<path d="M109.79 199.813C66.2305 159.239 24.1242 133.585 18.7619 85.4359C20.1399 34.7936 72.2911 50.6103 59.0101 93.229C59.0101 93.229 62.876 93.2352 62.876 93.229C65.8377 75.9035 62.8635 62.0506 54.4272 54.8622C47.3316 48.8148 37.3428 48.3285 28.9814 53.6216C19.4727 59.6441 14.4596 71.4085 15.2328 85.8973C16.9288 112.631 36.1456 141.658 72.3534 172.163L108.524 202.961L108.63 203.086C115.408 211.072 113.687 218.055 112.059 221.503C110.295 225.243 106.585 227.438 103.074 229.003L104.309 231.615C114.098 230.412 124.729 214.402 109.79 199.813Z" fill="#73A6D2"/>
<path d="M223.485 199.264C267.3 159.065 309.568 133.778 315.242 85.6728C314.182 35.018 261.875 50.2736 274.888 93.0045L264.619 92.8674C255.434 19.7311 329.92 31.9755 326.541 85.8037C326.927 119.046 289.996 164.096 235.002 204.333C222.793 212.369 227.021 219.688 232.882 222.581L231.46 225.43C231.454 225.43 231.454 225.424 231.448 225.424L229.521 229.283C226.466 227.893 223.622 225.405 221.789 222.294C223.622 225.412 226.466 227.899 229.527 229.296L228.692 230.966C218.921 229.682 208.458 213.728 223.485 199.264ZM279.777 54.7936C286.91 48.8085 296.905 48.4033 305.229 53.7712C308.777 56.0592 311.688 59.1452 313.902 62.8797C311.695 59.1452 308.777 56.053 305.223 53.7587C296.899 48.3908 286.903 48.7961 279.77 54.7811C271.291 61.8946 271.297 61.9071 279.777 54.7936ZM224.408 218.84C224.595 219.239 224.801 219.626 225.025 220C224.801 219.632 224.601 219.252 224.414 218.853C222.494 214.713 223.454 210.193 227.201 205.786L263.31 175.511C281.205 160.667 295.221 145.991 304.961 131.889C315.604 116.477 321.521 101.203 322.55 86.502C323.155 76.3211 321.178 67.2999 316.97 60.2674C321.172 67.2999 323.149 76.3149 322.544 86.4895C321.515 101.19 315.598 116.465 304.954 131.876C295.215 145.979 281.198 160.661 263.303 175.499L227.195 205.773C223.454 210.181 222.488 214.695 224.408 218.84Z" fill="#73A6D2"/>
<path d="M223.431 199.133C267.246 158.934 309.514 133.647 315.188 85.5419C314.128 34.887 261.877 50.2549 274.89 92.9921C274.89 92.9921 271.024 92.9671 271.024 92.9609C268.175 75.6104 271.236 61.7824 279.716 54.6689C286.849 48.6839 296.844 48.2786 305.168 53.6465C314.639 59.75 319.578 71.558 318.711 86.0407C316.847 112.755 297.443 141.621 261.042 171.808L224.678 202.294L224.572 202.419C217.744 210.349 219.415 217.344 221.024 220.804C222.764 224.558 226.461 226.789 229.959 228.379L228.712 230.979C218.923 229.688 208.404 213.591 223.431 199.133Z" fill="#2382D4"/>
<path d="M266.712 36.8693C264.517 118.809 241.696 186.696 196.759 229.551C194.24 231.964 191.64 234.302 188.972 236.54C188.398 237.032 187.818 237.512 187.238 237.993C185.019 239.819 182.755 241.59 180.436 243.304C180.417 243.516 180.386 243.728 180.361 243.934H151.866C151.847 243.716 151.816 243.504 151.797 243.304C151.174 242.843 150.563 242.382 149.946 241.908C149.041 241.216 148.144 240.524 147.258 239.807C146.753 239.408 146.254 239.003 145.755 238.591C94.0968 196.615 69.1934 124.837 66.9363 36.8756C66.8989 35.398 67.2356 34.014 67.8591 32.8481C68.969 30.7471 70.9705 29.3381 73.2525 29.3381H260.39C262.678 29.3381 264.679 30.7471 265.783 32.8481C266.407 34.0077 266.749 35.398 266.712 36.8693Z" fill="#73A6D2"/>
<path d="M99.0025 336.472V338.08C99.0773 342.045 101.877 345.237 105.325 345.237L232.274 345.119C235.765 345.113 238.59 341.833 238.59 337.781V336.59C238.59 335.512 238.39 334.483 238.022 333.56C237.05 331.085 234.924 329.352 232.429 329.265C208.792 328.379 192.449 320.225 182.442 305.767C182.367 305.661 182.286 305.555 182.217 305.449C181.731 304.745 181.263 304.021 180.815 303.286C180.746 303.18 180.677 303.074 180.609 302.962C180.185 302.862 179.673 301.104 179.15 298.236C179.087 297.887 179.025 297.531 178.963 297.151C178.85 296.478 178.738 295.755 178.626 294.994C177.485 287.245 176.375 275.119 176.057 264.533C175.957 261.471 175.939 258.535 175.988 255.873C176.007 254.819 176.045 253.816 176.094 252.862C176.113 252.488 176.132 252.132 176.157 251.777C176.431 247.525 173.519 243.928 169.853 243.928H162.739C161.036 243.928 159.509 244.701 158.387 245.948C157.027 247.438 156.254 249.607 156.447 251.951C156.447 251.976 156.454 252.008 156.454 252.033C156.535 252.943 156.597 253.897 156.653 254.888C156.666 255.225 156.684 255.574 156.703 255.935C157.239 268.036 156.242 285.2 154.982 294.994C154.882 295.761 154.789 296.484 154.683 297.151C154.627 297.531 154.571 297.893 154.514 298.236C154.003 301.291 153.479 302.98 153.018 302.556C152.831 302.824 152.644 303.093 152.444 303.361C152.164 303.747 151.889 304.134 151.603 304.508C151.266 304.957 150.929 305.393 150.58 305.823C139.263 320.144 123.844 327.588 104.901 329.159C102.475 329.358 100.437 331.116 99.5263 333.56C99.1896 334.452 99.0025 335.437 99.0025 336.472Z" fill="#73A6D2"/>
<path d="M175.872 250.673C173.073 250.368 170.211 250.543 167.418 250.717C164.175 250.917 160.945 251.197 157.697 251.284C157.048 251.303 156.45 251.39 155.882 251.521C156.076 251.683 156.269 251.858 156.469 252.008C156.543 252.918 156.606 253.872 156.662 254.863C158.271 256.104 159.966 257.051 161.731 257.7C163.439 258.323 165.217 258.647 167.031 258.647C170.198 258.647 173.21 257.656 175.991 255.848C176.01 254.794 176.047 253.791 176.097 252.831C176.222 252.75 176.34 252.656 176.465 252.569C176.222 252.008 176.01 251.372 175.872 250.673Z" fill="#DD970A"/>
<path d="M191.668 214.327C191.668 223.124 190.034 231.278 187.241 237.987C184.498 244.608 180.625 249.82 176.092 252.862C173.237 254.782 170.119 255.836 166.852 255.836C165.037 255.836 163.26 255.512 161.552 254.888C159.775 254.24 158.073 253.286 156.458 252.033C152.835 249.234 149.68 245.013 147.261 239.801C144.642 234.19 142.871 227.432 142.266 220.05C142.117 218.304 142.042 216.54 142.03 214.738V214.327C142.03 191.397 153.141 172.812 166.858 172.812C179.996 172.812 190.758 189.888 191.624 211.509C191.649 212.438 191.668 213.379 191.668 214.327Z" fill="#2382D4"/>
<path d="M170.698 237.986C170.885 237.506 171.072 237.032 171.253 236.534C172.107 234.295 172.943 231.964 173.753 229.545C188.169 186.689 195.496 118.802 196.194 36.8631C196.206 35.3856 196.094 34.0015 195.895 32.8357C195.539 30.7347 194.897 29.3257 194.168 29.3257H241.412C243.301 29.3257 244.953 30.7347 245.864 32.8357C246.375 34.0015 246.662 35.3918 246.631 36.8631C244.822 118.802 225.973 186.689 188.868 229.545C186.785 231.958 184.64 234.295 182.439 236.534C181.965 237.026 181.485 237.506 181.011 237.986C179.178 239.813 177.308 241.584 175.393 243.298C175.375 243.51 175.356 243.722 175.331 243.928H168.497C168.503 243.716 168.516 243.504 168.522 243.298C169.264 241.59 169.987 239.813 170.698 237.986Z" fill="#2382D4"/>
<path d="M161.574 249.869C161.568 251.553 161.562 253.236 161.549 254.888C161.449 270.113 161.019 283.972 159.903 294.994C159.884 295.219 159.853 295.449 159.835 295.668C155.576 296.129 154.422 301.154 157.06 303.367C157.284 303.554 157.54 303.723 157.827 303.872C150.295 327.831 126.819 337.002 99.0039 338.087V336.472C99.0039 332.613 101.592 329.44 104.909 329.159C124.419 327.538 140.2 319.689 151.604 304.508C151.891 304.134 152.172 303.747 152.452 303.355C151.741 303.336 151.074 303.068 150.532 302.631C149.578 301.877 148.954 300.612 148.954 299.171C148.954 298.012 149.359 296.977 150.008 296.21C150.663 295.456 151.56 294.988 152.558 294.988H154.99C156.249 285.194 157.247 268.03 156.711 255.929C156.648 254.558 156.574 253.255 156.468 252.033C152.845 249.233 149.69 245.013 147.271 239.801C94.5956 197.993 69.2308 125.679 66.955 36.8695C66.9176 35.392 67.2542 34.0079 67.8778 32.8421H63.1016V14.1575H87.4937C87.5873 18.3408 87.7244 25.18 87.9053 29.3321C87.9489 30.4979 88.005 31.6763 88.0611 32.8421C91.372 100.754 106.231 162.936 142.027 214.738C145.905 220.362 150.033 225.861 154.416 231.222C154.934 236.079 155.626 240.293 157.303 243.922C157.627 244.62 157.983 245.281 158.388 245.942C159.23 247.344 160.277 248.654 161.574 249.869Z" fill="#2382D5"/>
<path d="M185.496 303.286H147.1" stroke="#2382D4" stroke-width="21.4507" stroke-miterlimit="10" stroke-linecap="round"/>
<path d="M162.961 296.584H147.099" stroke="#2382D4" stroke-width="21.4507" stroke-miterlimit="10" stroke-linecap="round"/>
<path d="M175.711 296.584H162.96" stroke="#73A6D2" stroke-width="21.4507" stroke-miterlimit="10" stroke-linecap="round"/>
<path d="M180.486 303.267H185.493C189.184 303.267 192.184 300.275 192.184 296.578C192.184 292.887 189.191 289.888 185.493 289.888H176.433C172.742 289.888 173.796 292.881 173.796 296.578C173.802 300.275 176.795 303.267 180.486 303.267Z" fill="#73A6D2"/>
<path d="M175.461 261.808H158.283" stroke="#2382D4" stroke-width="21.4507" stroke-miterlimit="10" stroke-linecap="round"/>
<path d="M169.059 256.129H158.284" stroke="#2382D4" stroke-width="21.4507" stroke-miterlimit="10" stroke-linecap="round"/>
<path d="M175.461 256.129H173.004" stroke="#73A6D2" stroke-width="21.4507" stroke-miterlimit="10" stroke-linecap="round"/>
<path d="M193.723 232.5H139.333" stroke="#2382D4" stroke-width="21.4507" stroke-miterlimit="10" stroke-linecap="round"/>
<path d="M157.949 225.144H139.337" stroke="#2382D4" stroke-width="21.4507" stroke-miterlimit="10" stroke-linecap="round"/>
<path d="M193.723 225.144H157.945" stroke="#73A6D2" stroke-width="21.4507" stroke-miterlimit="10" stroke-linecap="round"/>
<path d="M266.883 36.4082L66.8638 43.0978V31.5017H266.883V36.4082Z" fill="#2F6A9D"/>
<path d="M62.8171 13.3906H269.77V32.069H62.8171V13.3906Z" fill="#2382D4"/>
<path d="M257.281 13.3906C257.275 18.8271 257.206 26.8383 257.088 32.069H232.621C232.559 26.8508 232.503 18.8395 232.465 13.3906H257.281Z" fill="#73A6D2"/>
<path d="M194.204 345.157C185.768 334.982 178.148 324.178 172.83 312.002C171.813 309.67 172.162 307.008 174.507 305.605C174.669 305.512 174.837 305.431 175.012 305.356C174.837 305.032 174.663 304.708 174.494 304.377C174.332 304.059 174.208 303.741 174.114 303.43H170.223C172.25 299.926 172.119 294.184 170.404 290.443C169.531 290.131 167.392 290.237 167.392 290.237C167.392 290.237 168.421 273.803 168.215 267.083C168.159 267.076 168.11 267.07 168.053 267.058C167.829 266.964 167.604 266.871 167.38 266.777C167.305 266.734 167.243 266.677 167.174 266.634C166.588 267.245 167.237 265.505 166.557 266.029C163.695 268.23 159.617 265.668 162.448 263.492C166.825 260.131 167.205 254.071 164.269 249.645C164.219 249.564 164.169 249.489 164.125 249.408H163.421C166.426 248.155 167.286 240.568 167.349 238.965C167.405 237.619 165.566 232.12 166.912 232.026C173.759 231.559 172.823 219.246 169.082 218.155C168.571 217.033 168.926 211.528 169.132 210.206C174.694 174.875 196.561 142.868 227.151 124.432C233.005 120.897 238.343 130.062 232.5 133.578C219.132 141.639 207.722 152.45 198.855 165.044C200.676 164.607 202.84 165.199 204.08 166.44C206.319 168.678 205.839 171.665 204.08 173.934C194.696 186.054 191.036 201.54 187.644 216.222C188.717 216.927 189.515 218.03 190.014 219.302C191.043 221.952 191.036 224.782 190.232 227.488C190.008 228.236 189.665 228.853 189.253 229.364C190.064 230.605 190.326 232.207 190.045 233.791C190.001 234.04 189.945 234.283 189.895 234.533C190.163 234.701 190.407 234.907 190.644 235.125C190.089 235.605 189.534 236.079 188.979 236.546C188.405 237.039 187.825 237.519 187.245 237.999C184.502 244.614 180.636 249.82 176.109 252.862C176.059 253.816 176.028 254.82 176.003 255.873C175.997 255.873 175.991 255.879 175.991 255.879V255.886C175.941 258.542 175.966 261.478 176.059 264.545C176.34 273.853 176.901 282.164 177.893 289.826C177.942 290.2 178.317 292.769 178.366 293.13C178.454 293.779 178.541 294.402 178.628 295.007C178.741 295.767 178.853 296.491 178.965 297.164C179.027 297.544 179.09 297.9 179.152 298.249C179.676 301.117 180.187 302.875 180.611 302.974C180.673 303.087 180.742 303.193 180.811 303.299C181.26 304.034 181.727 304.757 182.214 305.462C182.282 305.568 182.363 305.674 182.438 305.78C190.793 317.85 203.563 325.524 221.302 328.243C226.633 330.038 232.083 331.522 237.576 332.644C238.212 333.785 238.586 335.144 238.586 336.603V337.794C238.586 339.409 238.131 340.892 237.376 342.102C236.254 341.896 235.132 341.678 234.016 341.435C235.1 341.728 236.192 341.99 237.289 342.233C236.136 343.985 234.321 345.119 232.276 345.119L217.536 345.132C216.164 344.502 214.805 343.841 213.464 343.149C214.169 343.822 214.886 344.477 215.609 345.132L194.204 345.157Z" fill="#2382D4"/>
<path d="M99.0064 336.472V338.081C99.0812 342.046 101.881 345.238 105.329 345.238L232.277 345.119C235.769 345.113 238.594 341.834 238.594 337.781V336.591C238.594 335.512 238.394 334.483 238.026 333.561H99.5301C99.1934 334.452 99.0064 335.437 99.0064 336.472Z" fill="#2F6A9D"/>
<path d="M251.201 56.4392C251.37 65.4106 247.753 70.8034 238.014 70.4355C246.013 70.9842 250.465 76.8196 250.465 85.4855C251.831 74.9867 257.174 71.8133 264.195 70.9655C254.761 70.3233 251.226 64.7622 251.201 56.4392Z" fill="white"/>
<path d="M292.991 227.35C294.175 227.138 272.602 235.63 272.602 235.63C272.602 235.63 294.026 240.486 293.514 240.499L292.991 227.35Z" fill="black"/>
<path d="M253.075 110.48H269.973L291.391 350.244H272.729C230.061 350.244 191.073 296.572 185.648 230.362C180.217 164.152 210.408 110.48 253.075 110.48Z" fill="#594A9E"/>
<path d="M269.801 110.479C312.468 110.479 351.457 164.152 356.881 230.362C362.306 296.571 332.121 350.244 289.454 350.244C246.786 350.244 207.798 296.571 202.373 230.362C196.942 164.152 227.133 110.479 269.801 110.479Z" fill="#594A9E"/>
<path d="M203.203 192.488C205.092 178.161 208.783 165.037 213.952 153.684C218.66 143.323 224.602 134.432 231.523 127.462C242.235 116.683 255.298 110.473 269.801 110.473C312.468 110.473 351.457 164.146 356.881 230.356C358.428 249.258 357.081 267.139 353.365 283.03C350.522 295.188 346.3 306.185 340.932 315.599C328.736 337.014 310.635 350.238 289.46 350.238C246.793 350.238 207.804 296.565 202.373 230.349C201.282 217.12 201.619 204.389 203.203 192.488ZM208.59 230.356C208.733 232.101 209.768 233.523 210.891 233.523H211.751C217.369 289.128 249.904 334.103 285.838 336.073L285.95 337.426C286.093 339.172 287.122 340.593 288.251 340.593C289.379 340.593 290.177 339.172 290.034 337.426L289.928 336.117C307.948 335.456 323.349 323.822 333.805 305.356C338.581 296.933 342.322 287.089 344.816 276.204C347.747 263.404 348.95 249.184 348.071 234.171H348.526C349.661 234.171 350.453 232.756 350.31 231.004C350.166 229.258 349.131 227.837 348.009 227.837H347.572C342.123 171.727 309.251 126.29 273.006 124.632L272.943 123.934C272.8 122.194 271.771 120.773 270.642 120.773C269.514 120.773 268.722 122.194 268.865 123.934L268.922 124.632C257.031 125.174 246.294 130.511 237.384 139.426C231.224 145.592 225.93 153.472 221.734 162.674C217.182 172.643 213.921 184.171 212.231 196.739C210.934 206.353 210.56 216.59 211.227 227.201H210.373C209.244 227.195 208.446 228.61 208.59 230.356Z" fill="#4A36A3"/>
<path d="M274.822 146.82L274.79 146.428C274.647 144.676 273.618 143.26 272.49 143.26C271.367 143.26 270.563 144.676 270.706 146.428L270.738 146.82C242.779 148.447 223.007 183.61 225.526 227.195H225.065C223.942 227.195 223.138 228.61 223.282 230.362C223.425 232.108 224.46 233.529 225.582 233.529H226.044C230.645 276.902 255.96 311.927 284.012 313.878L284.075 314.627C284.218 316.372 285.253 317.794 286.376 317.794C287.504 317.794 288.302 316.372 288.159 314.627L288.103 313.928C316.136 312.625 336.058 277.675 333.751 234.171H334.025C335.147 234.171 335.952 232.756 335.808 231.004C335.665 229.258 334.63 227.837 333.507 227.837H333.264C328.831 183.953 303.186 148.46 274.822 146.82ZM269.559 132.232C269.809 133.803 270.769 135.025 271.816 135.025C272.864 135.025 273.625 133.809 273.612 132.232C307.164 133.878 337.573 175.929 342.673 227.856C341.669 228.036 340.99 229.377 341.121 231.004C341.251 232.619 342.137 233.947 343.159 234.146C346.121 285.705 322.521 327.201 289.3 328.511C289.144 326.784 288.121 325.393 286.999 325.393C285.895 325.393 285.104 326.765 285.21 328.473C251.97 326.503 221.91 284.944 216.641 233.529C217.745 233.498 218.524 232.089 218.381 230.362C218.237 228.629 217.227 227.226 216.117 227.195C212.956 175.561 236.413 133.859 269.559 132.232Z" fill="#594A9E"/>
<path d="M343.159 234.146C343.246 234.165 343.333 234.171 343.421 234.171H348.066C351.358 289.907 325.837 334.801 289.923 336.123L289.305 328.561C289.305 328.542 289.305 328.529 289.299 328.511C322.52 327.195 346.127 285.699 343.159 234.146ZM216.647 233.529C221.915 284.938 251.975 326.503 285.215 328.473C285.215 328.505 285.221 328.529 285.221 328.561L285.839 336.086C249.899 334.109 217.364 289.14 211.746 233.535H216.609C216.622 233.529 216.634 233.529 216.647 233.529ZM273 124.626C309.246 126.284 342.118 171.721 347.567 227.831H342.897C342.816 227.831 342.741 227.837 342.666 227.849C337.566 175.916 307.157 133.865 273.605 132.226C273.605 132.101 273.599 131.976 273.586 131.851L273 124.626ZM268.923 124.626L269.515 131.851C269.527 131.976 269.54 132.101 269.559 132.226C236.412 133.859 212.955 175.561 216.129 227.189C216.117 227.189 216.104 227.189 216.092 227.189H211.228C207.718 171.378 233.083 126.272 268.923 124.626Z" fill="white"/>
<path d="M276.642 169.027L276.579 168.279C276.436 166.527 275.407 165.112 274.278 165.112C273.156 165.112 272.352 166.527 272.495 168.279L272.558 169.027C252.486 170.623 238.301 195.842 239.835 227.195H239.349H238.532C237.41 227.195 236.605 228.61 236.749 230.362C236.892 232.108 237.927 233.529 239.05 233.529H239.866H240.353C243.932 264.664 262.026 289.758 282.191 291.665L282.253 292.451C282.397 294.203 283.432 295.618 284.554 295.618C285.683 295.618 286.481 294.203 286.337 292.451L286.281 291.734C306.433 290.456 320.762 265.437 319.434 234.171H319.945C321.067 234.171 321.872 232.756 321.728 231.004C321.585 229.258 320.55 227.837 319.428 227.837H318.966C315.543 196.191 297.112 170.642 276.642 169.027ZM271.367 154.433L271.385 154.663C271.529 156.409 272.564 157.83 273.686 157.83C274.815 157.83 275.613 156.409 275.469 154.663L275.451 154.433C301.109 156.066 324.279 188.149 328.375 227.837H328.213C327.084 227.837 326.286 229.258 326.43 231.004C326.573 232.756 327.602 234.171 328.73 234.171H328.861C330.825 273.486 312.818 305.038 287.478 306.322C287.229 304.758 286.263 303.536 285.221 303.536C284.192 303.536 283.432 304.726 283.426 306.273C258.061 304.346 235.202 272.713 230.963 233.51C231.948 233.311 232.621 231.977 232.49 230.368C232.359 228.753 231.468 227.425 230.451 227.226C228.244 187.818 246.102 156.054 271.367 154.433Z" fill="#594A9E"/>
<path d="M328.852 234.171H333.753C336.054 277.669 316.132 312.619 288.105 313.928L287.513 306.709C287.5 306.578 287.488 306.453 287.469 306.329C312.803 305.032 330.816 273.486 328.852 234.171ZM230.947 233.504C235.193 272.706 258.045 304.346 283.41 306.266C283.41 306.41 283.416 306.553 283.429 306.696L284.015 313.872C255.956 311.921 230.648 276.896 226.046 233.523H230.691C230.779 233.529 230.86 233.523 230.947 233.504ZM274.818 146.82C303.176 148.46 328.827 183.953 333.267 227.837H328.366C324.269 188.148 301.099 156.066 275.441 154.433L274.818 146.82ZM270.734 146.82L271.357 154.433C246.099 156.054 228.235 187.818 230.423 227.22C230.336 227.201 230.249 227.195 230.161 227.195H225.516C223.003 183.604 242.781 148.448 270.734 146.82Z" fill="#5793CE"/>
<path d="M278.463 191.253C278.276 189.576 277.272 188.236 276.175 188.236C275.084 188.236 274.298 189.576 274.385 191.253C262.196 192.781 253.591 208.08 254.165 227.195H254.052C252.93 227.195 252.126 228.61 252.269 230.362C252.413 232.108 253.448 233.529 254.57 233.529H254.682C257.207 252.432 268.1 267.594 280.371 269.414L280.39 269.645C280.533 271.397 281.568 272.812 282.691 272.812C283.819 272.812 284.617 271.397 284.474 269.645L284.462 269.52C296.732 268.292 305.474 253.199 305.1 234.171C306.197 234.127 306.964 232.725 306.827 231.004C306.69 229.321 305.724 227.943 304.651 227.843C302.263 208.429 291.046 192.806 278.463 191.253ZM273.188 176.64C273.369 178.335 274.379 179.682 275.477 179.682C276.58 179.682 277.366 178.329 277.266 176.64C295.036 178.236 310.992 200.387 314.06 227.837C312.963 227.887 312.196 229.29 312.339 231.004C312.476 232.7 313.449 234.078 314.534 234.165C315.532 261.266 303.086 282.893 285.615 284.121C285.291 282.719 284.393 281.678 283.426 281.678C282.479 281.678 281.762 282.681 281.643 284.047C264.135 282.208 248.46 260.456 245.261 233.435C246.128 233.099 246.689 231.846 246.564 230.356C246.439 228.866 245.672 227.619 244.756 227.276C243.515 200.087 255.798 178.223 273.188 176.64Z" fill="#594A9E"/>
<path d="M314.532 234.165C314.569 234.165 314.607 234.171 314.638 234.171H319.439C320.761 265.431 306.432 290.449 286.286 291.734L285.725 284.851C285.707 284.601 285.669 284.358 285.613 284.128C303.084 282.893 315.529 261.266 314.532 234.165ZM245.253 233.435C248.451 260.455 264.127 282.207 281.635 284.047C281.616 284.302 281.61 284.57 281.635 284.845L282.196 291.665C262.031 289.757 243.937 264.664 240.358 233.529H244.772C244.941 233.529 245.103 233.498 245.253 233.435ZM276.641 169.027C297.111 170.642 315.542 196.191 318.965 227.837H314.12C314.102 227.837 314.083 227.837 314.058 227.837C310.984 200.387 295.028 178.242 277.264 176.64C277.264 176.596 277.258 176.559 277.258 176.515L276.641 169.027ZM272.556 169.027L273.168 176.515C273.174 176.559 273.174 176.596 273.18 176.64C255.79 178.223 243.507 200.087 244.741 227.282C244.579 227.226 244.417 227.195 244.249 227.195H239.834C238.3 195.842 252.485 170.623 272.556 169.027Z" fill="white"/>
<path d="M280.314 213.809L280.189 212.313C280.046 210.567 279.017 209.146 277.888 209.146C276.766 209.146 275.962 210.567 276.105 212.313L276.23 213.809C271.84 215.137 268.785 220.767 268.679 227.837H268.193C267.07 227.837 266.266 229.258 266.409 231.004C266.553 232.756 267.588 234.171 268.71 234.171H269.359C270.849 240.636 274.621 245.674 278.948 246.921L279.017 247.787C279.16 249.539 280.195 250.96 281.318 250.96C282.446 250.96 283.244 249.539 283.101 247.787L283.032 246.921C287.154 245.674 290.091 240.636 290.527 234.177H291.581C292.71 234.177 293.508 232.762 293.364 231.01C293.221 229.265 292.186 227.843 291.057 227.843H290.159C288.894 220.767 284.916 215.137 280.314 213.809ZM275.008 198.89L275.02 199.009C275.164 200.754 276.199 202.176 277.321 202.176C278.45 202.176 279.248 200.754 279.104 199.009L279.092 198.89C288.968 200.405 297.716 212.625 299.743 227.831H299.631C298.508 227.831 297.704 229.252 297.847 230.998C297.991 232.75 299.026 234.165 300.148 234.165H300.179C300.242 248.997 293.414 260.699 283.843 261.889L283.831 261.721C283.687 259.969 282.652 258.554 281.524 258.554C280.401 258.554 279.597 259.969 279.74 261.721L279.747 261.765C270.182 260.007 261.758 248.23 259.607 233.529H259.682C260.81 233.529 261.608 232.107 261.465 230.362C261.322 228.61 260.293 227.195 259.164 227.195H259.089C258.821 212.276 265.512 200.38 275.008 198.89Z" fill="#594A9E"/>
<path d="M305.102 234.165C305.476 253.192 296.734 268.286 284.463 269.514L283.84 261.896C293.411 260.705 300.238 249.003 300.176 234.171H305.046C305.064 234.171 305.083 234.171 305.102 234.165ZM254.678 233.529H259.597C261.748 248.236 270.172 260.007 279.737 261.765L280.367 269.408C268.096 267.594 257.209 252.432 254.678 233.529ZM278.459 191.253C291.041 192.806 302.258 208.429 304.647 227.837C304.603 227.831 304.565 227.831 304.522 227.831H299.733C297.707 212.619 288.959 200.399 279.082 198.89L278.471 191.403C278.471 191.353 278.465 191.303 278.459 191.253ZM274.381 191.253C274.381 191.303 274.387 191.353 274.393 191.403L275.004 198.89C265.508 200.38 258.818 212.276 259.08 227.195H254.16C253.586 208.08 262.185 192.781 274.381 191.253Z" fill="#5793CE"/>
<path d="M274.863 234.146C275.642 236.129 276.858 237.693 278.255 238.498C278.255 238.535 278.261 238.566 278.261 238.604L278.941 246.92C274.614 245.673 270.841 240.636 269.351 234.171H274.626C274.707 234.171 274.788 234.158 274.863 234.146ZM285.033 234.028C285.232 234.121 285.444 234.171 285.656 234.171H290.52C290.089 240.63 287.146 245.667 283.025 246.914L282.345 238.604C282.345 238.566 282.339 238.529 282.333 238.498C283.623 237.675 284.59 236.06 285.033 234.028ZM280.313 213.809C284.92 215.137 288.892 220.767 290.158 227.837H285.139C285.026 227.837 284.92 227.849 284.821 227.874C284.104 225.256 282.663 223.155 280.955 222.195C280.967 221.97 280.967 221.733 280.949 221.496L280.313 213.809ZM276.228 213.803L276.858 221.49C276.877 221.727 276.914 221.964 276.964 222.188C275.418 223.142 274.32 225.231 274.027 227.83H268.678C268.784 220.761 271.839 215.131 276.228 213.803Z" fill="#E03347"/>
<path d="M276.965 222.188C277.283 223.604 278.187 224.657 279.16 224.657C280.133 224.657 280.862 223.604 280.95 222.188C282.658 223.149 284.098 225.25 284.815 227.868C283.861 228.105 283.225 229.42 283.35 230.998C283.469 232.419 284.167 233.622 285.027 234.021C284.585 236.06 283.618 237.669 282.328 238.492C282.153 236.79 281.143 235.43 280.039 235.43C278.936 235.43 278.144 236.79 278.25 238.492C276.853 237.687 275.637 236.122 274.858 234.14C275.862 233.959 276.535 232.619 276.404 230.992C276.261 229.246 275.232 227.824 274.103 227.824H274.022C274.322 225.231 275.419 223.142 276.965 222.188Z" fill="white"/>
<path d="M238.541 227.195H239.357C238.235 227.195 237.431 228.61 237.574 230.362C237.718 232.107 238.753 233.529 239.875 233.529H239.058C237.936 233.529 236.901 232.107 236.757 230.362C236.62 228.61 237.418 227.195 238.541 227.195Z" fill="#FFA8A7"/>
<path d="M210.375 227.195H211.229H216.092C216.105 227.195 216.117 227.195 216.13 227.195C217.24 227.226 218.25 228.629 218.393 230.362C218.537 232.089 217.757 233.498 216.654 233.529C216.641 233.529 216.629 233.529 216.616 233.529H211.753H210.898C209.776 233.529 208.741 232.107 208.598 230.362C208.448 228.61 209.246 227.195 210.375 227.195Z" fill="#FFA8A7"/>
<path d="M225.068 227.195H225.53H230.175C230.262 227.195 230.35 227.201 230.437 227.22C231.459 227.419 232.345 228.747 232.476 230.362C232.607 231.97 231.94 233.304 230.948 233.504C230.867 233.523 230.78 233.529 230.693 233.529H226.047H225.586C224.464 233.529 223.429 232.107 223.285 230.362C223.142 228.61 223.94 227.195 225.068 227.195Z" fill="#FFA8A7"/>
<path d="M239.355 227.195H239.842H244.256C244.425 227.195 244.587 227.226 244.749 227.282C245.672 227.619 246.432 228.865 246.557 230.362C246.682 231.852 246.114 233.099 245.254 233.441C245.104 233.498 244.942 233.535 244.774 233.535H240.359H239.873C238.751 233.535 237.716 232.114 237.572 230.368C237.429 228.61 238.233 227.195 239.355 227.195Z" fill="#FFA8A7"/>
<path d="M254.053 227.195H254.165H259.084H259.159C260.288 227.195 261.316 228.61 261.46 230.362C261.603 232.107 260.805 233.529 259.677 233.529H259.602H254.682H254.57C253.448 233.529 252.413 232.107 252.269 230.362C252.132 228.61 252.93 227.195 254.053 227.195Z" fill="#FFA8A7"/>
<path d="M342.9 227.837H347.57H348.001C349.129 227.837 350.164 229.258 350.308 231.004C350.451 232.756 349.653 234.171 348.524 234.171H348.069H343.424C343.337 234.171 343.249 234.165 343.162 234.146C342.139 233.946 341.254 232.618 341.123 231.004C340.992 229.377 341.672 228.036 342.676 227.855C342.744 227.843 342.819 227.837 342.9 227.837Z" fill="#FFA8A7"/>
<path d="M328.205 227.837H328.367H333.268H333.511C334.633 227.837 335.668 229.258 335.811 231.004C335.955 232.756 335.157 234.171 334.028 234.171H333.754H328.853H328.722C327.593 234.171 326.565 232.756 326.421 231.004C326.278 229.258 327.076 227.837 328.205 227.837Z" fill="#FFA8A7"/>
<path d="M314.123 227.837H318.967H319.429C320.551 227.837 321.586 229.258 321.729 231.004C321.873 232.756 321.075 234.171 319.946 234.171H319.441H314.64C314.603 234.171 314.565 234.171 314.534 234.165C313.449 234.077 312.483 232.7 312.339 231.004C312.196 229.289 312.963 227.887 314.06 227.837C314.079 227.837 314.104 227.837 314.123 227.837Z" fill="#FFA8A7"/>
<path d="M299.625 227.837H299.737H304.526C304.569 227.837 304.607 227.837 304.651 227.843C305.729 227.943 306.689 229.32 306.827 231.004C306.97 232.724 306.197 234.121 305.099 234.171C305.081 234.171 305.062 234.171 305.043 234.171H300.174H300.142C299.02 234.171 297.985 232.756 297.842 231.004C297.705 229.258 298.503 227.837 299.625 227.837Z" fill="#FFA8A7"/>
<path d="M285.134 227.837H290.153H291.051C292.18 227.837 293.215 229.258 293.358 231.004C293.502 232.756 292.704 234.171 291.575 234.171H290.521H285.658C285.446 234.171 285.24 234.121 285.034 234.027C284.174 233.628 283.469 232.425 283.357 231.004C283.226 229.426 283.862 228.117 284.822 227.874C284.922 227.849 285.028 227.837 285.134 227.837Z" fill="#FFA8A7"/>
<path d="M268.192 227.837H268.678H274.028H274.109C275.237 227.837 276.266 229.258 276.41 231.004C276.54 232.631 275.867 233.971 274.863 234.152C274.788 234.165 274.707 234.171 274.626 234.171H269.351H268.703C267.58 234.171 266.545 232.756 266.402 231.004C266.265 229.258 267.063 227.837 268.192 227.837Z" fill="#FFA8A7"/>
<path d="M287.008 325.394C288.124 325.394 289.153 326.79 289.308 328.511C289.308 328.529 289.309 328.542 289.315 328.561L289.932 336.123L290.038 337.432C290.181 339.178 289.383 340.599 288.255 340.599C287.132 340.599 286.097 339.178 285.954 337.432L285.842 336.086L285.224 328.561C285.224 328.529 285.218 328.505 285.218 328.473C285.106 326.765 285.898 325.394 287.008 325.394Z" fill="#FFA8A7"/>
<path d="M285.21 303.535C286.257 303.535 287.218 304.757 287.467 306.322C287.486 306.447 287.504 306.572 287.511 306.703L288.103 313.922L288.159 314.62C288.303 316.366 287.504 317.787 286.376 317.787C285.254 317.787 284.218 316.366 284.075 314.62L284.013 313.872L283.427 306.696C283.414 306.547 283.408 306.403 283.408 306.266C283.427 304.726 284.181 303.535 285.21 303.535Z" fill="#FFA8A7"/>
<path d="M283.421 281.677C284.387 281.677 285.285 282.719 285.609 284.121C285.665 284.352 285.703 284.595 285.722 284.845L286.283 291.727L286.339 292.444C286.482 294.196 285.684 295.612 284.556 295.612C283.433 295.612 282.398 294.196 282.255 292.444L282.192 291.659L281.631 284.838C281.606 284.564 281.613 284.296 281.631 284.04C281.756 282.687 282.473 281.677 283.421 281.677Z" fill="#FFA8A7"/>
<path d="M281.52 258.554C282.649 258.554 283.677 259.969 283.827 261.721L283.84 261.889L284.463 269.508L284.476 269.633C284.619 271.384 283.821 272.8 282.692 272.8C281.57 272.8 280.535 271.384 280.392 269.633L280.373 269.402L279.743 261.758L279.737 261.715C279.593 259.975 280.398 258.554 281.52 258.554Z" fill="#FFA8A7"/>
<path d="M270.645 120.767C271.774 120.767 272.803 122.188 272.946 123.934L273.002 124.626L273.594 131.851C273.607 131.976 273.613 132.101 273.613 132.226C273.626 133.797 272.865 135.019 271.817 135.019C270.776 135.019 269.81 133.803 269.56 132.226C269.542 132.101 269.523 131.976 269.517 131.851L268.924 124.626L268.868 123.934C268.725 122.188 269.523 120.767 270.645 120.767Z" fill="#FFA8A7"/>
<path d="M272.486 143.26C273.614 143.26 274.643 144.675 274.786 146.427L274.818 146.82L275.441 154.432L275.46 154.663C275.603 156.409 274.805 157.83 273.677 157.83C272.554 157.83 271.519 156.409 271.376 154.663L271.357 154.432L270.734 146.82L270.702 146.427C270.559 144.675 271.357 143.26 272.486 143.26Z" fill="#FFA8A7"/>
<path d="M274.277 165.112C275.405 165.112 276.434 166.527 276.577 168.279L276.64 169.027L277.251 176.515C277.257 176.558 277.257 176.596 277.257 176.64C277.357 178.335 276.571 179.682 275.468 179.682C274.37 179.682 273.36 178.329 273.179 176.64C273.173 176.602 273.173 176.558 273.167 176.515L272.556 169.027L272.493 168.279C272.356 166.527 273.154 165.112 274.277 165.112Z" fill="#FFA8A7"/>
<path d="M276.172 188.236C277.27 188.236 278.274 189.576 278.461 191.253C278.467 191.303 278.473 191.353 278.473 191.403L279.084 198.89L279.097 199.009C279.24 200.755 278.442 202.176 277.313 202.176C276.191 202.176 275.156 200.755 275.013 199.009L275 198.89L274.389 191.403C274.383 191.353 274.383 191.303 274.377 191.253C274.296 189.576 275.081 188.236 276.172 188.236Z" fill="#FFA8A7"/>
<path d="M277.887 209.14C279.015 209.14 280.044 210.561 280.188 212.307L280.312 213.803L280.942 221.49C280.961 221.733 280.961 221.964 280.948 222.188C280.861 223.604 280.132 224.657 279.159 224.657C278.186 224.657 277.288 223.604 276.964 222.188C276.914 221.964 276.877 221.733 276.858 221.49L276.228 213.803L276.104 212.307C275.96 210.561 276.765 209.14 277.887 209.14Z" fill="#FFA8A7"/>
<path d="M280.044 235.437C281.147 235.437 282.157 236.796 282.332 238.498C282.338 238.535 282.338 238.566 282.344 238.604L283.024 246.914L283.093 247.781C283.236 249.533 282.438 250.954 281.309 250.954C280.187 250.954 279.152 249.533 279.009 247.781L278.94 246.914L278.26 238.597C278.26 238.56 278.254 238.529 278.254 238.491C278.148 236.796 278.94 235.437 280.044 235.437Z" fill="#FFA8A7"/>
<path opacity="0.5" d="M280.441 231.241L333.802 305.356L340.922 315.605C346.297 306.191 350.518 295.194 353.355 283.037L344.807 276.204L284.481 230.524L280.441 231.241Z" fill="#51244E"/>
<path opacity="0.5" d="M280.308 231.708C279.482 231.708 278.812 231.038 278.812 230.212C278.812 229.386 279.482 228.716 280.308 228.716C281.135 228.716 281.805 229.386 281.805 230.212C281.805 231.038 281.135 231.708 280.308 231.708Z" fill="#51244E"/>
<path opacity="0.5" d="M203.203 192.488L212.232 196.733L278.119 227.743L279.16 224.657L237.384 139.42L231.523 127.462C224.602 134.433 218.66 143.317 213.952 153.684C208.783 165.037 205.092 178.155 203.203 192.488Z" fill="white"/>
<path d="M446.208 209.189C443.782 209.595 442.435 208.011 443.202 205.679L444.948 200.393C445.721 198.061 448.334 195.823 450.753 195.424L473.35 191.671C475.775 191.265 477.122 192.849 476.355 195.181L474.609 200.468C473.836 202.799 471.223 205.037 468.804 205.436L446.208 209.189Z" fill="#2382D5"/>
<path d="M446.195 209.215C443.776 209.632 442.996 211.577 444.468 213.541L447.816 218.018C449.288 219.981 452.031 221.334 453.908 221.016C455.785 220.698 458.298 220.281 459.489 220.081C460.679 219.882 463.622 219.352 466.042 218.903L478.98 216.496C481.393 216.048 482.01 214.202 480.345 212.394L476.186 207.868C474.528 206.06 471.186 204.919 468.767 205.337L446.195 209.215Z" fill="#2382D5"/>
<path d="M313.602 230.848L473.211 206.771C474.096 206.633 474.695 205.804 474.564 204.925C474.427 204.04 473.598 203.435 472.718 203.572L313.11 227.65C312.224 227.787 311.626 228.616 311.757 229.495C311.894 230.38 312.723 230.985 313.602 230.848Z" fill="#73A6D2"/>
<path d="M474.562 204.925C474.425 204.04 473.596 203.435 472.717 203.572L313.108 227.65C312.223 227.787 311.624 228.616 311.755 229.495L474.562 204.925Z" fill="#2382D5"/>
<path d="M421.787 213.148L430.335 220.449L434.656 219.732C429.244 216.927 421.787 213.148 421.787 213.148Z" fill="white"/>
<path d="M280.436 231.241C285.262 231.633 292.227 231.384 292.227 231.384L291.859 228.946L291.391 225.848C291.391 225.848 284.582 227.388 280.112 229.246L280.031 230.349L280.436 231.241Z" fill="#5A4D66"/>
<path d="M280.032 230.343L291.816 228.641L291.392 225.848C291.392 225.848 284.584 227.388 280.113 229.246L280.032 230.343Z" fill="#9480AD"/>
</g>
<defs>
<clipPath id="clip0_2_22736">
<rect width="465" height="362" fill="white" transform="matrix(-1 0 0 1 465 0)"/>
</clipPath>
</defs>
</svg>
