<svg width="72" height="68" viewBox="0 0 72 68" fill="none" xmlns="http://www.w3.org/2000/svg">
<path fill-rule="evenodd" clip-rule="evenodd" d="M15.6563 23.3729C20.8987 13.9443 29.6784 5.24647 40.3233 7.50428C51.2186 9.81519 56.668 21.2334 57.6066 32.2706C58.4891 42.6468 54.095 53.0594 44.5523 57.2312C34.868 61.4649 23.4786 58.2882 16.581 50.206C10.1201 42.6357 10.8613 31.997 15.6563 23.3729Z" fill="#F5BD1F" fill-opacity="0.15"/>
<path fill-rule="evenodd" clip-rule="evenodd" d="M25.7608 10.2849C37.2049 6.19319 51.1024 5.34867 58.4419 15.1702C65.954 25.2227 62.0882 38.9435 54.6848 48.9902C47.7248 58.4352 36.2683 63.9907 25.0865 60.4345C13.7387 56.8255 6.45119 45.6724 6.61216 33.7015C6.76293 22.4886 15.2932 14.0275 25.7608 10.2849Z" stroke="#F5BD1F" stroke-dasharray="6 6"/>
<path d="M40.6523 24.7935H46.2365V30.3776H40.6523V24.7935Z" stroke="#F5BD1F" stroke-width="1.66667" stroke-linecap="round" stroke-linejoin="round"/>
<path d="M40.6523 39.312H46.2365V44.8961H40.6523V39.312Z" stroke="#F5BD1F" stroke-width="1.66667" stroke-linecap="round" stroke-linejoin="round"/>
<path d="M26.1328 39.312H31.7169V44.8961H26.1328V39.312Z" stroke="#F5BD1F" stroke-width="1.66667" stroke-linecap="round" stroke-linejoin="round"/>
<path d="M26.1328 24.7935H31.7169V30.3776H26.1328V24.7935Z" stroke="#F5BD1F" stroke-width="1.66667" stroke-linecap="round" stroke-linejoin="round"/>
<path d="M27.25 34.8447H39.535" stroke="#F5BD1F" stroke-width="1.66667" stroke-linecap="round" stroke-linejoin="round"/>
<path d="M44.0039 34.8447H45.1207" stroke="#F5BD1F" stroke-width="1.66667" stroke-linecap="round" stroke-linejoin="round"/>
<path d="M36.1836 42.1045V43.2213" stroke="#F5BD1F" stroke-width="1.66667" stroke-linecap="round" stroke-linejoin="round"/>
<path d="M36.1836 30.936V38.7538" stroke="#F5BD1F" stroke-width="1.66667" stroke-linecap="round" stroke-linejoin="round"/>
<path d="M36.1836 25.9102V27.027" stroke="#F5BD1F" stroke-width="1.66667" stroke-linecap="round" stroke-linejoin="round"/>
</svg>
