<svg width="26" height="26" viewBox="0 0 26 26" fill="none" xmlns="http://www.w3.org/2000/svg">
<path d="M22.1946 18.5683L17.7908 14.5643C17.5826 14.3751 17.3091 14.2742 17.0279 14.2829C16.7468 14.2915 16.48 14.4092 16.2839 14.6109L13.6915 17.2769C13.0675 17.1578 11.813 16.7667 10.5216 15.4786C9.23031 14.1862 8.83922 12.9284 8.72331 12.3088L11.3872 9.71527C11.5892 9.51932 11.707 9.25249 11.7156 8.97124C11.7243 8.68999 11.6233 8.41639 11.4338 8.20835L7.43089 3.80568C7.24135 3.59699 6.97792 3.4704 6.69655 3.4528C6.41518 3.4352 6.13804 3.52798 5.92397 3.71143L3.57314 5.72752C3.38584 5.91549 3.27405 6.16567 3.25897 6.4306C3.24272 6.70143 2.93289 13.1169 7.90756 18.0938C12.2474 22.4325 17.6836 22.7499 19.1807 22.7499C19.3996 22.7499 19.5339 22.7434 19.5696 22.7413C19.8345 22.7264 20.0846 22.6142 20.2716 22.426L22.2866 20.0741C22.4708 19.8607 22.5643 19.5838 22.5471 19.3024C22.5299 19.0211 22.4034 18.7576 22.1946 18.5683Z" fill="#594A9E"/>
</svg>
