<svg width="26" height="26" viewBox="0 0 26 26" fill="none" xmlns="http://www.w3.org/2000/svg">
<path d="M21.668 4.33325H4.33464C3.14297 4.33325 2.1788 5.30825 2.1788 6.49992L2.16797 19.4999C2.16797 20.6916 3.14297 21.6666 4.33464 21.6666H21.668C22.8596 21.6666 23.8346 20.6916 23.8346 19.4999V6.49992C23.8346 5.30825 22.8596 4.33325 21.668 4.33325ZM21.2346 8.93742L13.5755 13.7258C13.2288 13.9424 12.7738 13.9424 12.4271 13.7258L4.76797 8.93742C4.65934 8.87644 4.56421 8.79405 4.48835 8.69524C4.41248 8.59644 4.35745 8.48326 4.32659 8.36257C4.29573 8.24188 4.28968 8.11618 4.3088 7.99308C4.32793 7.86999 4.37183 7.75205 4.43786 7.64641C4.50388 7.54077 4.59065 7.44963 4.69292 7.3785C4.79519 7.30736 4.91083 7.25772 5.03284 7.23258C5.15485 7.20743 5.28069 7.2073 5.40275 7.2322C5.52481 7.25709 5.64055 7.3065 5.74297 7.37742L13.0013 11.9166L20.2596 7.37742C20.3621 7.3065 20.4778 7.25709 20.5999 7.2322C20.7219 7.2073 20.8478 7.20743 20.9698 7.23258C21.0918 7.25772 21.2074 7.30736 21.3097 7.3785C21.412 7.44963 21.4987 7.54077 21.5647 7.64641C21.6308 7.75205 21.6747 7.86999 21.6938 7.99308C21.7129 8.11618 21.7069 8.24188 21.676 8.36257C21.6452 8.48326 21.5901 8.59644 21.5143 8.69524C21.4384 8.79405 21.3433 8.87644 21.2346 8.93742Z" fill="#594A9E"/>
</svg>
