<svg width="73" height="69" viewBox="0 0 73 69" fill="none" xmlns="http://www.w3.org/2000/svg">
<path fill-rule="evenodd" clip-rule="evenodd" d="M15.8827 23.7165C21.2022 14.1492 30.111 5.32354 40.9124 7.61454C51.968 9.95945 57.4975 21.5456 58.4499 32.7451C59.3453 43.2738 54.8866 53.8396 45.2036 58.0727C35.3769 62.3687 23.82 59.1453 16.821 50.9443C10.2651 43.2626 11.0172 32.4674 15.8827 23.7165Z" fill="#F5BD1F" fill-opacity="0.15"/>
<path fill-rule="evenodd" clip-rule="evenodd" d="M26.1396 10.4361C37.752 6.28415 51.8539 5.42722 59.3013 15.3931C66.9239 25.5935 63.0013 39.5161 55.489 49.7106C48.4266 59.2944 36.8016 64.9316 25.4554 61.3231C13.9407 57.661 6.54606 46.344 6.70939 34.1969C6.86238 22.8192 15.5181 14.2337 26.1396 10.4361Z" stroke="#F5BD1F" stroke-dasharray="6 6"/>
<path d="M47.3791 34.6888L37.3726 24.6822C36.9533 24.2629 36.3753 24.0249 35.7747 24.0249H27.6493C26.4027 24.0249 25.3828 25.0448 25.3828 26.2914V34.4168C25.3828 35.0174 25.6208 35.5953 26.0514 36.0146L36.058 46.0212C36.9419 46.9051 38.3811 46.9051 39.2651 46.0212L47.3905 37.8958C48.2744 37.0119 48.2744 35.584 47.3791 34.6888ZM37.6559 44.4233L27.6493 34.4168V26.2914H35.7747L45.7812 36.298L37.6559 44.4233Z" fill="#F5BD1F"/>
<path d="M30.4811 30.8245C31.4199 30.8245 32.181 30.0635 32.181 29.1247C32.181 28.1859 31.4199 27.4248 30.4811 27.4248C29.5423 27.4248 28.7812 28.1859 28.7812 29.1247C28.7812 30.0635 29.5423 30.8245 30.4811 30.8245Z" fill="#F5BD1F"/>
</svg>
