<svg width="634" height="637" viewBox="0 0 634 637" fill="none" xmlns="http://www.w3.org/2000/svg">
<path fill-rule="evenodd" clip-rule="evenodd" d="M438.154 132.479C501.266 158.93 580.776 184.847 595.626 251.648C610.413 318.164 540.339 368.078 503.234 425.229C468.356 478.95 449.699 550.713 388.726 570.324C325.741 590.583 257.577 560.465 204.16 521.425C155.365 485.763 130.621 429.595 115.948 370.965C101.247 312.226 90.4345 247.532 122.808 196.362C154.734 145.901 217.627 129.607 276.151 117.751C331.398 106.559 386.166 110.69 438.154 132.479Z" fill="#F5BD1F"/>
<path fill-rule="evenodd" clip-rule="evenodd" d="M324.658 102.508C390.503 92.9113 469.741 74.6503 515.599 122.865C561.261 170.874 527.896 247.588 525.627 313.805C523.495 376.049 543.922 445.192 502.95 492.097C460.626 540.548 388.735 549.621 324.658 543.869C266.127 538.615 217.355 504.219 175.74 462.723C134.049 421.151 92.6106 372.667 93.9352 313.805C95.2415 255.759 139.477 210.656 182.295 171.443C222.717 134.424 270.42 110.413 324.658 102.508Z" fill="url(#paint0_linear_106_15)"/>
<path d="M239.404 148.607C274.802 117.414 380.483 106.086 428.899 104.32C517.398 98.6683 531.343 169.306 529.903 195.782C528.951 226.1 516.276 301.043 517.398 335.381C526.247 412.786 515.057 466.063 501.527 481.719C423.42 557.199 313.474 540.768 268.264 523.117C218.63 496.546 156.521 427.966 131.67 396.997C97.8114 351.555 106.02 299.438 114.356 279.06C140.905 225.531 212.487 172.661 239.404 148.607Z" stroke="#F5BD1F" stroke-linecap="round" stroke-dasharray="10 10"/>
<defs>
<linearGradient id="paint0_linear_106_15" x1="93.9043" y1="318.198" x2="539.508" y2="318.198" gradientUnits="userSpaceOnUse">
<stop stop-color="#4776E6"/>
<stop offset="0.541667" stop-color="#7D34F0"/>
<stop offset="1" stop-color="#B054E9"/>
</linearGradient>
</defs>
</svg>
