<svg width="72" height="68" viewBox="0 0 72 68" fill="none" xmlns="http://www.w3.org/2000/svg">
<path fill-rule="evenodd" clip-rule="evenodd" d="M15.6563 23.3729C20.8987 13.9443 29.6784 5.24647 40.3233 7.50428C51.2186 9.81519 56.668 21.2334 57.6066 32.2706C58.4891 42.6468 54.095 53.0594 44.5523 57.2312C34.868 61.4649 23.4786 58.2882 16.581 50.206C10.1201 42.6357 10.8613 31.997 15.6563 23.3729Z" fill="#F5BD1F" fill-opacity="0.15"/>
<path fill-rule="evenodd" clip-rule="evenodd" d="M25.7608 10.2849C37.2049 6.19319 51.1024 5.34867 58.4419 15.1702C65.954 25.2227 62.0882 38.9435 54.6848 48.9902C47.7248 58.4352 36.2683 63.9907 25.0865 60.4345C13.7387 56.8255 6.45119 45.6724 6.61216 33.7015C6.76293 22.4886 15.2932 14.0275 25.7608 10.2849Z" stroke="#F5BD1F" stroke-dasharray="6 6"/>
<g clip-path="url(#clip0_1_707)">
<path d="M41.8023 30.7471C41.9596 30.5899 42.0479 30.3765 42.0479 30.1541C42.0479 29.9317 41.9596 29.7184 41.8023 29.5611C41.645 29.4038 41.4317 29.3154 41.2093 29.3154C40.9868 29.3154 40.7735 29.4038 40.6162 29.5611L36.1836 33.9954L34.2637 32.0739C34.1859 31.996 34.0934 31.9343 33.9917 31.8921C33.8899 31.85 33.7808 31.8283 33.6707 31.8283C33.5606 31.8283 33.4515 31.85 33.3498 31.8921C33.248 31.9343 33.1556 31.996 33.0777 32.0739C32.9998 32.1518 32.938 32.2443 32.8959 32.346C32.8537 32.4478 32.832 32.5568 32.832 32.667C32.832 32.7771 32.8537 32.8862 32.8959 32.9879C32.938 33.0897 32.9998 33.1821 33.0777 33.26L35.5905 35.7728C35.6683 35.8508 35.7608 35.9127 35.8625 35.955C35.9643 35.9972 36.0734 36.0189 36.1836 36.0189C36.2937 36.0189 36.4028 35.9972 36.5046 35.955C36.6064 35.9127 36.6988 35.8508 36.7766 35.7728L41.8023 30.7471Z" fill="#F5BD1F"/>
<path d="M23.6189 21.7778C23.3967 21.7778 23.1837 21.8661 23.0266 22.0232C22.8695 22.1802 22.7812 22.3933 22.7812 22.6154C22.7812 22.8376 22.8695 23.0507 23.0266 23.2077C23.1837 23.3648 23.3967 23.4531 23.6189 23.4531H25.4784L26.1501 26.1452L28.6596 39.5219C28.6956 39.7139 28.7974 39.8872 28.9476 40.012C29.0978 40.1368 29.2869 40.2052 29.4822 40.2054H31.1574C30.2688 40.2054 29.4166 40.5584 28.7883 41.1867C28.1599 41.8151 27.807 42.6673 27.807 43.5559C27.807 44.4445 28.1599 45.2967 28.7883 45.925C29.4166 46.5533 30.2688 46.9063 31.1574 46.9063C32.046 46.9063 32.8982 46.5533 33.5266 45.925C34.1549 45.2967 34.5079 44.4445 34.5079 43.5559C34.5079 42.6673 34.1549 41.8151 33.5266 41.1867C32.8982 40.5584 32.046 40.2054 31.1574 40.2054H42.8841C41.9955 40.2054 41.1433 40.5584 40.5149 41.1867C39.8866 41.8151 39.5336 42.6673 39.5336 43.5559C39.5336 44.4445 39.8866 45.2967 40.5149 45.925C41.1433 46.5533 41.9955 46.9063 42.8841 46.9063C43.7727 46.9063 44.6249 46.5533 45.2532 45.925C45.8815 45.2967 46.2345 44.4445 46.2345 43.5559C46.2345 42.6673 45.8815 41.8151 45.2532 41.1867C44.6249 40.5584 43.7727 40.2054 42.8841 40.2054H44.5593C44.7546 40.2052 44.9436 40.1368 45.0938 40.012C45.244 39.8872 45.3459 39.7139 45.3818 39.5219L47.8947 26.12C47.9173 25.9991 47.913 25.8748 47.8822 25.7557C47.8513 25.6367 47.7946 25.5259 47.7161 25.4312C47.6376 25.3365 47.5392 25.2603 47.4279 25.208C47.3166 25.1556 47.1951 25.1284 47.0721 25.1283H27.6227L26.9442 22.4127C26.899 22.2315 26.7945 22.0705 26.6472 21.9554C26.5 21.8404 26.3186 21.7779 26.1317 21.7778H23.6189ZM30.1774 38.5302L27.9778 26.8035H46.0637L43.8641 38.5302H30.1774ZM32.8327 43.5559C32.8327 44.0002 32.6562 44.4263 32.342 44.7404C32.0278 45.0546 31.6017 45.2311 31.1574 45.2311C30.7131 45.2311 30.287 45.0546 29.9729 44.7404C29.6587 44.4263 29.4822 44.0002 29.4822 43.5559C29.4822 43.1116 29.6587 42.6855 29.9729 42.3713C30.287 42.0571 30.7131 41.8806 31.1574 41.8806C31.6017 41.8806 32.0278 42.0571 32.342 42.3713C32.6562 42.6855 32.8327 43.1116 32.8327 43.5559ZM44.5593 43.5559C44.5593 44.0002 44.3828 44.4263 44.0686 44.7404C43.7545 45.0546 43.3284 45.2311 42.8841 45.2311C42.4398 45.2311 42.0137 45.0546 41.6995 44.7404C41.3853 44.4263 41.2088 44.0002 41.2088 43.5559C41.2088 43.1116 41.3853 42.6855 41.6995 42.3713C42.0137 42.0571 42.4398 41.8806 42.8841 41.8806C43.3284 41.8806 43.7545 42.0571 44.0686 42.3713C44.3828 42.6855 44.5593 43.1116 44.5593 43.5559Z" fill="#F5BD1F"/>
</g>
<defs>
<clipPath id="clip0_1_707">
<rect width="26.8037" height="26.8037" fill="white" transform="translate(22.7812 20.1025)"/>
</clipPath>
</defs>
</svg>
