<svg width="184" height="182" viewBox="0 0 184 182" fill="none" xmlns="http://www.w3.org/2000/svg">
<path d="M118.403 68.3742C118.246 68.4033 118.085 68.401 117.929 68.3672C117.773 68.3335 117.625 68.2691 117.494 68.1777C117.364 68.0864 117.252 67.9699 117.167 67.8352C117.082 67.7005 117.025 67.5501 116.999 67.393C115.974 61.3323 115.396 55.2044 115.268 49.0584C115.14 35.3627 118.256 27.7127 124.522 26.3373C130.788 24.9619 136.743 30.621 142.125 43.2676C144.492 48.9281 146.427 54.7593 147.914 60.7115C147.953 60.8657 147.961 61.0262 147.938 61.1837C147.914 61.3412 147.86 61.4924 147.777 61.6286C147.694 61.7649 147.585 61.8833 147.456 61.9771C147.327 62.0709 147.181 62.1381 147.026 62.1749C146.716 62.243 146.392 62.1884 146.122 62.0226C145.852 61.8568 145.658 61.5927 145.579 61.2862C142.943 50.5113 134.909 26.636 125.062 28.7972C115.215 30.9585 117.466 56.1243 119.386 67.0564C119.416 67.3585 119.332 67.661 119.15 67.9047C118.968 68.1485 118.702 68.3159 118.403 68.3742Z" fill="#8E8FF6"/>
<path d="M193.203 146.485L107.984 165.19L98.9591 68.0255L160.705 54.4728L193.203 146.485Z" fill="#8E8FF7"/>
<path d="M188.882 147.433L103.664 166.138L94.6388 68.9732L156.385 55.4205L188.882 147.433Z" fill="#AFB0F1"/>
<path d="M139.448 125.658L153.132 129.392L147.793 116.278L155.603 104.458L141.442 105.487L132.598 94.453L129.189 108.177L115.918 113.169L127.941 120.636L128.605 134.776L139.448 125.658Z" fill="#8E8FF7"/>
<path d="M113.625 72.8119C115.229 72.4598 116.245 70.8777 115.894 69.2781C115.542 67.6785 113.958 66.6672 112.354 67.0193C110.75 67.3713 109.734 68.9535 110.085 70.5531C110.436 72.1527 112.021 73.1639 113.625 72.8119Z" fill="#8E8FF7"/>
<path d="M143.422 66.2718C145.026 65.9198 146.042 64.3377 145.69 62.7381C145.339 61.1385 143.754 60.1272 142.15 60.4792C140.546 60.8313 139.531 62.4134 139.882 64.013C140.233 65.6126 141.818 66.6239 143.422 66.2718Z" fill="#8E8FF7"/>
<path d="M112.991 69.5615C112.829 69.5918 112.662 69.5896 112.501 69.5549C112.339 69.5203 112.187 69.4539 112.052 69.3596C111.916 69.2654 111.801 69.1453 111.713 69.0062C111.625 68.8671 111.566 68.7118 111.539 68.5495C110.479 62.2932 109.885 55.9668 109.761 49.6221C109.616 35.4725 112.844 27.5693 119.329 26.1459C125.814 24.7226 131.955 30.5692 137.515 43.5511C139.964 49.3934 141.981 55.4071 143.55 61.5441C143.59 61.7035 143.598 61.8694 143.574 62.0321C143.55 62.1948 143.493 62.3511 143.407 62.4918C143.322 62.6325 143.209 62.7549 143.076 62.8517C142.942 62.9486 142.791 63.018 142.63 63.0559C142.472 63.0935 142.307 63.0995 142.146 63.0737C141.985 63.0478 141.831 62.9905 141.692 62.9051C141.553 62.8197 141.432 62.7079 141.337 62.576C141.242 62.444 141.173 62.2946 141.136 62.1363C138.397 50.9889 130.105 26.3176 119.92 28.5531C109.735 30.7886 112.064 56.7896 114.011 68.1315C114.061 68.4552 113.982 68.7856 113.792 69.0526C113.601 69.3196 113.314 69.5021 112.991 69.5615Z" fill="#8E8FF6"/>
<path d="M48.8917 70.7805C48.7136 70.8171 48.5298 70.8174 48.3517 70.7811C48.1735 70.7448 48.0047 70.6729 47.8553 70.5696C47.7059 70.4663 47.5791 70.3338 47.4826 70.1801C47.3861 70.0265 47.3219 69.8549 47.2939 69.6756C46.1327 62.8065 45.4793 55.8609 45.339 48.895C45.1765 33.3352 48.7137 24.6572 55.8551 23.0897C62.9964 21.5222 69.7279 27.9672 75.8383 42.2214C78.4956 48.6458 80.6846 55.2537 82.3883 61.9935C82.4322 62.1685 82.4409 62.3506 82.4136 62.5291C82.3864 62.7075 82.3238 62.8789 82.2296 63.0331C82.1354 63.1873 82.0114 63.3212 81.8648 63.4272C81.7182 63.5332 81.552 63.6091 81.3758 63.6505C81.2029 63.694 81.0231 63.7027 80.8469 63.6762C80.6706 63.6497 80.5015 63.5885 80.3492 63.4961C80.197 63.4038 80.0647 63.2821 79.9602 63.1382C79.8556 62.9943 79.7808 62.831 79.7401 62.6579C76.7421 50.4238 67.6224 23.314 56.4429 25.7678C45.2634 28.2217 47.7988 56.7766 49.9657 69.214C49.9983 69.3871 49.9964 69.5649 49.96 69.7373C49.9237 69.9098 49.8537 70.0734 49.7539 70.2189C49.6542 70.3644 49.5267 70.4889 49.3787 70.5852C49.2308 70.6816 49.0653 70.7479 48.8917 70.7805Z" fill="#FFC928"/>
<path d="M133.844 159.514L37.0479 180.76L26.7927 70.3913L96.933 54.996L133.844 159.514Z" fill="#FFC928"/>
<path d="M128.949 160.588L32.1533 181.834L21.8982 71.4655L92.0385 56.0702L128.949 160.588Z" fill="#FFE494"/>
<path d="M77.6139 143.098L77.3951 143.146C71.4023 144.44 65.1426 143.31 59.9887 140.005C54.8348 136.701 51.2074 131.49 49.9019 125.517L49.8627 125.339C48.5812 119.375 49.7179 113.145 53.0245 108.009C56.3312 102.873 61.5392 99.2482 67.5114 97.9264L67.7302 97.8784C73.7226 96.5906 79.9796 97.7225 85.1321 101.026C90.2846 104.33 93.9131 109.537 95.2234 115.507L95.2583 115.666C96.5458 121.632 95.4125 127.867 92.1062 133.007C88.7999 138.148 83.5895 141.776 77.6139 143.098ZM77.2743 141.551C82.8439 140.328 87.7023 136.952 90.7831 132.163C93.8638 127.374 94.9153 121.563 93.7067 116.007L93.6718 115.848C92.4564 110.285 89.0789 105.433 84.2797 102.354C79.4804 99.2758 73.6512 98.2227 68.0699 99.4258L67.851 99.4738C62.2842 100.701 57.4292 104.078 54.3493 108.866C51.2694 113.654 50.2156 119.462 51.4186 125.018L51.4535 125.177C52.0504 127.934 53.1864 130.546 54.7964 132.864C56.4064 135.181 58.4589 137.159 60.8366 138.685C63.2142 140.21 65.8705 141.252 68.6534 141.752C71.4364 142.252 74.2915 142.2 77.0555 141.599L77.2743 141.551Z" fill="#FFC928"/>
<path d="M76.2419 135.414C76.0411 135.458 75.8315 135.422 75.6569 135.314L62.3125 126.765C60.259 125.443 58.8133 123.365 58.2904 120.983C57.7676 118.601 58.2101 116.109 59.5214 114.049C60.0461 113.188 60.7592 112.458 61.6071 111.912C62.455 111.365 63.4157 111.018 64.4171 110.895C65.6968 110.818 66.9785 111.002 68.1845 111.434C69.3904 111.866 70.4955 112.538 71.4328 113.41C71.9198 112.228 72.6427 111.157 73.5577 110.263C74.4727 109.368 75.5605 108.669 76.7547 108.207C77.7166 107.907 78.7333 107.824 79.7308 107.965C80.7283 108.106 81.6816 108.467 82.5213 109.021C84.5748 110.343 86.0206 112.421 86.5434 114.803C87.0662 117.185 86.6237 119.677 85.3124 121.737L76.7423 135.034C76.6283 135.218 76.45 135.354 76.2419 135.414Z" fill="#FFC928"/>
</svg>
