<svg width="544" height="313" viewBox="0 0 544 313" fill="none" xmlns="http://www.w3.org/2000/svg">
<g filter="url(#filter0_d_1_24381)">
<path d="M12 123.227C12 108.742 22.3489 96.3263 36.5963 93.7173L496.596 9.48305C515.022 6.10891 532 20.2599 532 38.9924V267C532 283.569 518.569 297 502 297H42C25.4314 297 12 283.569 12 267V123.227Z" fill="white"/>
<path d="M12.5 123.227C12.5 108.984 22.6764 96.7747 36.6864 94.2092L496.686 9.97487C514.805 6.65696 531.5 20.5721 531.5 38.9924V267C531.5 283.292 518.292 296.5 502 296.5H42C25.7076 296.5 12.5 283.292 12.5 267V123.227Z" stroke="url(#paint0_linear_1_24381)"/>
</g>
<defs>
<filter id="filter0_d_1_24381" x="0" y="0.983643" width="544" height="312.016" filterUnits="userSpaceOnUse" color-interpolation-filters="sRGB">
<feFlood flood-opacity="0" result="BackgroundImageFix"/>
<feColorMatrix in="SourceAlpha" type="matrix" values="0 0 0 0 0 0 0 0 0 0 0 0 0 0 0 0 0 0 127 0" result="hardAlpha"/>
<feOffset dy="4"/>
<feGaussianBlur stdDeviation="6"/>
<feComposite in2="hardAlpha" operator="out"/>
<feColorMatrix type="matrix" values="0 0 0 0 0 0 0 0 0 0 0 0 0 0 0 0 0 0 0.1 0"/>
<feBlend mode="normal" in2="BackgroundImageFix" result="effect1_dropShadow_1_24381"/>
<feBlend mode="normal" in="SourceGraphic" in2="effect1_dropShadow_1_24381" result="shape"/>
</filter>
<linearGradient id="paint0_linear_1_24381" x1="272" y1="3" x2="272" y2="297" gradientUnits="userSpaceOnUse">
<stop stop-color="#6C4AED"/>
<stop offset="1" stop-opacity="0"/>
</linearGradient>
</defs>
</svg>
