<svg width="180" height="129" viewBox="0 0 180 129" fill="none" xmlns="http://www.w3.org/2000/svg">
<path d="M180 48.8725L179.99 48.8674L179.995 48.8574L180 48.8725Z" fill="#231F20"/>
<path d="M120.633 55.7807H120.605C123.198 57.7422 131.144 58.3275 138.163 55.8493C135.907 55.7822 133.621 55.7472 131.304 55.7441C128.717 57.0701 125.105 57.3307 120.633 55.7807Z" fill="white"/>
<path d="M69.3931 29.7415C68.9978 30.3652 68.4375 30.8672 67.7743 31.1918C67.111 31.5163 66.3708 31.6508 65.6358 31.5802C64.9008 31.5097 64.1997 31.2368 63.6103 30.792C63.021 30.3472 62.5664 29.7478 62.297 29.0603L53.7332 7.24154C53.5146 6.69124 53.4187 6.0999 53.452 5.50872C53.4853 4.91755 53.6471 4.34073 53.9261 3.81846C54.205 3.29619 54.5945 2.841 55.0674 2.48461C55.5402 2.12822 56.0851 1.87919 56.664 1.75486L59.8966 1.06445H27.2051L29.3037 1.82802C30.8123 2.38216 32.1901 3.24209 33.3506 4.35384C34.5111 5.4656 35.4294 6.80519 36.0478 8.28858L56.2388 56.64C56.3461 56.8937 56.5253 57.1105 56.7543 57.2637C56.9832 57.4169 57.252 57.4999 57.5275 57.5023C57.803 57.5047 58.0732 57.4266 58.3048 57.2774C58.5365 57.1283 58.7194 56.9146 58.8312 56.6628L66.604 38.9317L73.3206 23.5461L69.3931 29.7415Z" fill="white"/>
<path d="M109.277 23.546L106.104 28.5755L105.354 29.7643C104.958 30.3878 104.397 30.8895 103.734 31.2138C103.07 31.5382 102.33 31.6725 101.595 31.602C100.86 31.5314 100.158 31.2588 99.5684 30.8142C98.9787 30.3696 98.5235 29.7704 98.2533 29.083L96.6942 25.1143L89.6896 7.2826C89.4718 6.73224 89.3765 6.14107 89.4102 5.55016C89.4439 4.95925 89.6058 4.38276 89.8846 3.8607C90.1635 3.33864 90.5526 2.88354 91.0251 2.52698C91.4975 2.17043 92.0419 1.92097 92.6204 1.79592L95.8575 1.0918H63.166L65.2647 1.82793C66.7735 2.38251 68.1517 3.24254 69.3129 4.35421C70.4742 5.46587 71.3935 6.80524 72.0133 8.28849L90.6269 52.9135L92.1814 56.6399C92.2888 56.8936 92.4679 57.1104 92.6969 57.2636C92.9259 57.4169 93.1947 57.4998 93.4701 57.5022C93.7456 57.5046 94.0158 57.4265 94.2475 57.2773C94.4791 57.1282 94.6621 56.9145 94.7739 56.6627L95.8941 54.1069C94.5651 53.86 93.2452 53.575 91.9345 53.2519C93.2422 53.578 94.562 53.863 95.8941 54.1069L106.991 28.8041L109.277 23.546Z" fill="white"/>
<path d="M150.276 39.6403C149.969 21.5983 123.908 21.1776 123.908 8.17418C123.761 1.50786 138.246 -7.77378 147.423 16.5505V2.89782C142.951 -1.80244 110.717 -2.95007 110.717 16.5505C110.717 24.4376 114.804 28.7767 119.692 32.0961C126.889 36.9884 135.814 39.6723 135.951 48.2087C135.978 49.7803 135.556 51.3271 134.736 52.6679C133.916 54.0088 132.731 55.0884 131.319 55.7803C133.627 55.7803 135.913 55.8153 138.178 55.8855C144.634 53.5993 150.303 48.7482 150.303 39.9695C150.289 39.8415 150.28 39.7455 150.276 39.6403Z" fill="white"/>
<path d="M36.6748 119.823C37.2321 120.554 37.534 121.448 37.534 122.367C37.534 123.287 37.2321 124.181 36.6748 124.912C36.1182 125.643 35.3807 126.217 34.535 126.576C33.6913 126.938 32.7829 127.125 31.8648 127.125C30.9468 127.125 30.0383 126.938 29.1946 126.576C28.3524 126.215 27.6182 125.642 27.064 124.912C26.494 124.186 26.1891 123.288 26.1998 122.365C26.1883 121.692 26.3409 121.025 26.6444 120.424C26.9479 119.822 27.3932 119.304 27.9418 118.913C29.0615 118.043 30.4421 117.576 31.8603 117.587C32.7808 117.586 33.6915 117.776 34.535 118.145C35.3796 118.513 36.1162 119.09 36.6748 119.823ZM33.8355 122.347C33.8386 121.883 33.777 121.422 33.6526 120.975C33.5355 120.551 33.312 120.164 33.0033 119.85C32.8576 119.687 32.6787 119.556 32.4784 119.467C32.2781 119.378 32.0612 119.332 31.842 119.334C31.5269 119.322 31.2153 119.403 30.945 119.565C30.6747 119.727 30.4574 119.965 30.3194 120.248C29.9782 120.896 29.8082 121.62 29.8256 122.351C29.8051 123.09 29.9719 123.821 30.3103 124.477C30.4545 124.755 30.6756 124.986 30.9472 125.141C31.2188 125.297 31.5294 125.371 31.842 125.355C32.1575 125.375 32.4717 125.301 32.7452 125.142C33.0186 124.984 33.2389 124.748 33.3782 124.464C33.7047 123.807 33.8619 123.08 33.8355 122.347Z" fill="white"/>
<path d="M53.8018 126.649H47.172C47.1196 126.648 47.0687 126.632 47.0255 126.602C46.9824 126.572 46.9488 126.531 46.9289 126.482C46.909 126.434 46.9037 126.38 46.9136 126.329C46.9235 126.277 46.9481 126.23 46.9846 126.192L48.7586 124.459V116.179L46.3262 113.998H52.1832V124.436L54.0121 126.169C54.0601 126.206 54.0944 126.258 54.1095 126.316C54.1246 126.375 54.1197 126.437 54.0954 126.492C54.0712 126.547 54.0291 126.593 53.9758 126.621C53.9226 126.65 53.8613 126.66 53.8018 126.649V126.649Z" fill="white"/>
<path d="M76.8776 126.65H71.8481C71.8125 126.65 71.7772 126.644 71.7442 126.63C71.7112 126.617 71.6812 126.597 71.656 126.572C71.6308 126.547 71.611 126.517 71.5976 126.484C71.5843 126.451 71.5777 126.416 71.5784 126.38V124.766C71.2893 125.45 70.8447 126.058 70.2799 126.54C69.7083 126.944 69.0173 127.144 68.3184 127.107C67.5063 127.121 66.709 126.889 66.0322 126.439C65.7229 126.233 65.4692 125.954 65.2937 125.626C65.1182 125.298 65.0264 124.932 65.0264 124.56V120.153L62.7402 117.898H68.3961V123.431C68.3923 123.609 68.4262 123.786 68.4955 123.949C68.5649 124.113 68.6681 124.261 68.7984 124.382C69.0584 124.632 69.4067 124.77 69.7678 124.766C69.9957 124.773 70.2214 124.719 70.4216 124.61C70.6217 124.501 70.7891 124.34 70.9062 124.144C71.0568 123.91 71.1883 123.664 71.2995 123.408C71.417 123.197 71.5003 122.968 71.5464 122.731V120.153L69.0911 117.898H74.9893V124.181L77.0239 126.17C77.0663 126.203 77.0975 126.249 77.1136 126.301C77.1297 126.352 77.1299 126.408 77.1141 126.459C77.0983 126.511 77.0673 126.557 77.0251 126.591C76.983 126.625 76.9315 126.645 76.8776 126.65V126.65Z" fill="white"/>
<path d="M93.7624 124.437C93.7728 124.809 93.6954 125.179 93.5366 125.515C93.3777 125.852 93.1418 126.147 92.848 126.376C92.236 126.861 91.4779 127.125 90.6967 127.125C89.9156 127.125 89.1574 126.861 88.5455 126.376C88.2517 126.147 88.0158 125.852 87.8569 125.515C87.6981 125.179 87.6207 124.809 87.6311 124.437V119.659H85.7793C86.9178 119.293 87.9648 118.237 88.8427 117.405C89.7891 116.486 90.5362 115.383 91.0374 114.163V114.163V117.88H93.4149L91.0374 119.659V124.163C91.0349 124.363 91.1103 124.556 91.2477 124.702C91.3104 124.774 91.3876 124.831 91.4744 124.871C91.5612 124.91 91.6553 124.931 91.7506 124.931C92.4228 124.931 92.7565 124.368 92.7565 123.244C92.7543 122.967 92.7237 122.691 92.6651 122.421C92.856 122.447 93.0358 122.526 93.1844 122.649C93.333 122.771 93.4445 122.933 93.5064 123.116C93.6863 123.532 93.7737 123.983 93.7624 124.437V124.437Z" fill="white"/>
<path d="M111.105 126.649H104.535C104.483 126.648 104.432 126.631 104.389 126.602C104.345 126.572 104.312 126.53 104.292 126.482C104.272 126.433 104.267 126.38 104.277 126.329C104.286 126.277 104.311 126.23 104.348 126.192L106.126 124.459V120.344L103.598 117.889H109.542V124.445L111.274 126.178C111.315 126.214 111.343 126.261 111.356 126.313C111.37 126.365 111.367 126.42 111.349 126.471C111.331 126.521 111.298 126.565 111.254 126.597C111.211 126.629 111.159 126.647 111.105 126.649V126.649ZM109.51 115.63C109.507 116.043 109.362 116.443 109.099 116.761C108.835 117.079 108.47 117.296 108.065 117.375C107.659 117.455 107.239 117.391 106.875 117.195C106.511 117 106.226 116.684 106.069 116.302C105.912 115.92 105.891 115.496 106.012 115.1C106.132 114.705 106.385 114.364 106.729 114.134C107.072 113.905 107.484 113.801 107.896 113.841C108.307 113.882 108.691 114.063 108.984 114.354C109.15 114.518 109.281 114.714 109.369 114.931C109.457 115.147 109.5 115.378 109.496 115.612L109.51 115.63Z" fill="white"/>
<path d="M131.392 119.823C131.949 120.554 132.251 121.448 132.251 122.367C132.251 123.287 131.949 124.181 131.392 124.912C130.834 125.644 130.095 126.218 129.247 126.576C128.404 126.938 127.497 127.125 126.579 127.125C125.662 127.125 124.754 126.938 123.911 126.576C123.069 126.215 122.335 125.642 121.781 124.912C121.211 124.186 120.906 123.288 120.917 122.365C120.905 121.692 121.058 121.025 121.361 120.424C121.665 119.822 122.11 119.304 122.659 118.913C123.778 118.043 125.159 117.576 126.577 117.587C127.496 117.586 128.406 117.776 129.247 118.145C130.094 118.511 130.832 119.089 131.392 119.823V119.823ZM128.552 122.347C128.555 121.883 128.494 121.422 128.369 120.975C128.252 120.551 128.029 120.164 127.72 119.85C127.574 119.687 127.395 119.556 127.195 119.467C126.995 119.378 126.778 119.332 126.559 119.334C126.244 119.322 125.932 119.403 125.662 119.565C125.391 119.727 125.174 119.965 125.036 120.248C124.695 120.896 124.525 121.62 124.542 122.351C124.522 123.09 124.689 123.821 125.027 124.477C125.171 124.755 125.392 124.986 125.664 125.141C125.936 125.297 126.246 125.371 126.559 125.355C126.871 125.372 127.181 125.297 127.45 125.139C127.72 124.981 127.938 124.748 128.077 124.468C128.41 123.812 128.574 123.083 128.552 122.347Z" fill="white"/>
<path d="M155.169 126.65H149.312C149.262 126.651 149.212 126.638 149.169 126.612C149.125 126.586 149.09 126.548 149.068 126.503C149.045 126.458 149.036 126.408 149.041 126.357C149.046 126.307 149.066 126.26 149.097 126.22L150.162 124.803V121.396C150.166 121.219 150.133 121.043 150.066 120.88C149.998 120.716 149.897 120.568 149.769 120.445C149.643 120.32 149.493 120.222 149.328 120.156C149.163 120.09 148.987 120.058 148.809 120.061C148.05 120.061 147.457 120.72 147.031 122.036C147.026 122.048 147.026 122.061 147.031 122.073V124.816L148.132 126.211C148.163 126.251 148.182 126.299 148.187 126.349C148.192 126.399 148.183 126.45 148.16 126.495C148.138 126.54 148.103 126.578 148.061 126.605C148.018 126.631 147.968 126.645 147.918 126.645H142.019C141.967 126.644 141.916 126.627 141.873 126.598C141.83 126.568 141.796 126.526 141.776 126.478C141.756 126.429 141.751 126.376 141.761 126.325C141.771 126.273 141.795 126.226 141.832 126.188L143.606 124.455V120.34L141.082 117.885H147.026V120.066C147.328 119.378 147.777 118.764 148.343 118.269C148.91 117.855 149.603 117.648 150.304 117.684C151.118 117.668 151.916 117.905 152.59 118.36C152.901 118.569 153.156 118.852 153.333 119.183C153.509 119.514 153.601 119.883 153.601 120.258V124.373L155.389 126.161C155.446 126.194 155.488 126.248 155.509 126.311C155.529 126.374 155.525 126.443 155.498 126.503C155.471 126.564 155.422 126.612 155.361 126.639C155.301 126.666 155.232 126.67 155.169 126.65V126.65Z" fill="white"/>
<path d="M62.1458 100.095C62.1732 100.579 62.0728 101.062 61.8545 101.496C61.6362 101.929 61.3078 102.298 60.9021 102.564C60.0129 103.13 58.9746 103.416 57.921 103.387C56.9525 103.414 55.9976 103.153 55.1777 102.637C54.795 102.386 54.4774 102.048 54.2508 101.651C54.0243 101.253 53.8953 100.808 53.8746 100.351C53.6647 100.865 53.3544 101.332 52.9618 101.724C52.5693 102.117 52.1024 102.427 51.5885 102.637C50.465 103.131 49.2493 103.38 48.0221 103.369C46.7919 103.406 45.572 103.134 44.4741 102.578C43.999 102.318 43.6091 101.926 43.3512 101.45C43.0933 100.974 42.9783 100.434 43.0201 99.8936C43.0201 97.3789 44.5975 95.7817 47.7524 95.1019L53.4951 93.8949V92.4866C53.5037 92.2459 53.4358 92.0087 53.301 91.809C53.1663 91.6094 52.9717 91.4576 52.7453 91.3756C52.2242 91.1514 51.6619 91.0392 51.0947 91.0464C50.4858 91.0449 49.8853 91.1892 49.3435 91.467C49.1 91.5662 48.8916 91.7358 48.745 91.9541C48.5983 92.1724 48.5202 92.4294 48.5205 92.6924C48.5129 93.1216 48.6169 93.5454 48.8223 93.9223C48.6028 93.9635 48.2645 94.0366 47.8164 94.1463C47.3683 94.2561 46.9751 94.3429 46.6322 94.4024C46.297 94.4608 45.9574 94.4899 45.6171 94.4893C45.3086 94.5217 44.9966 94.4911 44.7002 94.3991C44.4039 94.3071 44.1294 94.1558 43.8934 93.9543C43.512 93.4595 43.3308 92.8392 43.3859 92.2169C43.3864 91.8203 43.473 91.4285 43.6395 91.0685C43.8061 90.7086 44.0487 90.3891 44.3506 90.1319C45.0545 89.5172 45.8897 89.0714 46.7922 88.8288C47.7014 88.5644 48.627 88.3597 49.563 88.2162C50.3603 88.0922 51.1656 88.0265 51.9725 88.0195C53.4744 88.0175 54.9664 88.2615 56.3893 88.742C57.1272 88.9663 57.7938 89.3792 58.3234 89.9399C58.8177 90.4666 59.0867 91.1655 59.0732 91.8877V98.5631C59.0732 99.8616 59.343 100.511 59.8825 100.511C60.4175 100.511 60.6872 99.9439 60.6872 98.8055C60.7154 98.3389 60.6453 97.8716 60.4815 97.4338C61.591 97.7295 62.1458 98.6165 62.1458 100.095ZM53.55 97.5755V96.2587L50.9438 96.8257C49.3679 97.1701 48.5784 97.8392 48.5754 98.8329C48.5642 99.0563 48.6046 99.2793 48.6934 99.4847C48.7822 99.69 48.917 99.8722 49.0875 100.017C49.4474 100.316 49.905 100.47 50.3723 100.451C51.1791 100.442 51.9535 100.133 52.5441 99.5827C52.852 99.3454 53.1023 99.0417 53.2765 98.6941C53.4506 98.3466 53.5441 97.9642 53.55 97.5755V97.5755Z" fill="white"/>
<path d="M85.3088 102.668H76.9919C76.8565 102.668 76.7237 102.63 76.6085 102.559C76.4934 102.488 76.4003 102.386 76.34 102.265C76.2796 102.144 76.2543 102.008 76.2669 101.873C76.2795 101.738 76.3295 101.61 76.4112 101.502L77.8103 99.6408V94.0718C77.8171 93.7814 77.7633 93.4927 77.6523 93.2243C77.5413 92.9558 77.3756 92.7135 77.1656 92.5127C76.9594 92.3074 76.7137 92.1461 76.4433 92.0384C76.173 91.9308 75.8837 91.879 75.5928 91.8863C74.3522 91.8863 73.3844 92.9638 72.6894 95.1189V95.1509C72.6797 95.1575 72.6717 95.1663 72.6661 95.1767C72.6606 95.187 72.6576 95.1986 72.6574 95.2103V99.6728L74.0931 101.502C74.1784 101.609 74.2317 101.738 74.2468 101.874C74.2619 102.01 74.2382 102.148 74.1785 102.271C74.1187 102.395 74.0254 102.499 73.9091 102.571C73.7929 102.644 73.6586 102.682 73.5216 102.681H65.1635C65.0184 102.682 64.8763 102.64 64.7555 102.56C64.6347 102.479 64.5407 102.365 64.4856 102.23C64.4305 102.096 64.4169 101.948 64.4464 101.806C64.476 101.664 64.5474 101.534 64.6514 101.433L67.0564 99.0876V92.3572L62.9414 88.3474H72.6757V91.9C73.1711 90.7751 73.9079 89.773 74.8338 88.9646C75.7582 88.2855 76.8887 87.9463 78.0344 88.0045C79.3562 87.9879 80.6515 88.3756 81.747 89.1155C82.2677 89.441 82.694 89.8972 82.9836 90.4387C83.2732 90.9801 83.4159 91.588 83.3976 92.2018V98.9687L85.8392 101.41C85.9479 101.512 86.0228 101.644 86.0538 101.79C86.0848 101.935 86.0705 102.087 86.0126 102.224C85.9548 102.361 85.8563 102.477 85.7304 102.556C85.6046 102.636 85.4574 102.675 85.3088 102.668V102.668Z" fill="white"/>
<path d="M105.421 102.668H98.1874C97.9946 102.668 97.8097 102.592 97.6733 102.456C97.537 102.319 97.4604 102.134 97.4604 101.941V100.273C97.111 101.222 96.4851 102.046 95.6635 102.636C94.8367 103.206 93.851 103.501 92.847 103.478C91.1705 103.478 89.5931 102.789 88.1147 101.411C86.7339 100.094 86.045 98.1877 86.0481 95.6912C86.0126 93.7203 86.7551 91.8147 88.1147 90.3874C89.5687 88.8115 91.1355 88.0221 92.815 88.019C94.9137 88.019 96.4728 89.1118 97.4604 91.2836V85.5957L93.0848 82.002H103.061V99.0747L105.882 101.361C106.003 101.455 106.091 101.585 106.134 101.732C106.177 101.879 106.173 102.036 106.121 102.181C106.07 102.325 105.975 102.45 105.85 102.537C105.724 102.625 105.574 102.671 105.421 102.668V102.668ZM97.2181 95.7507C97.2171 95.2682 97.1773 94.7865 97.0992 94.3104C97.0104 93.8023 96.8804 93.3023 96.7105 92.8153C96.5541 92.3299 96.2698 91.8955 95.8875 91.5579C95.5176 91.2377 95.0417 91.0666 94.5525 91.0778C94.2185 91.0685 93.8871 91.1382 93.5852 91.2812C93.2832 91.4242 93.0194 91.6365 92.815 91.9008C92.3818 92.4312 92.0837 93.0588 91.9463 93.7297C91.8166 94.3971 91.7523 95.0754 91.7542 95.7552C91.7512 96.251 91.7864 96.7463 91.8594 97.2366C91.9357 97.7415 92.0613 98.2377 92.2343 98.718C92.3911 99.2063 92.6866 99.6384 93.0848 99.9617C93.493 100.275 93.9972 100.436 94.5113 100.419C94.8305 100.415 95.1441 100.334 95.4252 100.183C95.7063 100.032 95.9465 99.8146 96.1253 99.5502C96.5509 99.003 96.8478 98.3669 96.994 97.6893C97.1371 97.0528 97.2122 96.403 97.2181 95.7507V95.7507Z" fill="white"/>
<path d="M123.451 96.5276H112.935C112.903 97.0868 113.001 97.6459 113.221 98.1608C113.442 98.6757 113.779 99.1324 114.206 99.495C115.171 100.229 116.364 100.6 117.576 100.542C118.752 100.545 119.915 100.301 120.991 99.8242C121.957 99.4394 122.775 98.7572 123.327 97.8764C123.436 98.2256 123.486 98.59 123.478 98.9555C123.478 101.967 120.887 103.474 115.705 103.477C113.466 103.548 111.273 102.833 109.506 101.456C107.826 100.106 106.988 98.2331 106.991 95.8372C106.963 94.7771 107.169 93.724 107.596 92.7533C108.023 91.7825 108.66 90.9183 109.46 90.2225C111.09 88.7614 113.215 87.9738 115.404 88.0187C116.481 87.9833 117.553 88.1807 118.548 88.5973C119.542 89.0139 120.434 89.64 121.165 90.4328C122.673 92.1006 123.49 94.2795 123.451 96.5276ZM118.751 94.0723C118.785 93.2195 118.519 92.3817 118.001 91.7039C117.742 91.3967 117.415 91.154 117.046 90.9953C116.677 90.8365 116.276 90.7661 115.875 90.7895C115.471 90.7717 115.068 90.8479 114.698 91.0121C114.328 91.1764 114.002 91.4241 113.744 91.7359C113.213 92.4018 112.938 93.2351 112.967 94.086L118.751 94.0723Z" fill="white"/>
<path d="M141.85 92.0656C141.882 93.0599 141.558 94.0331 140.935 94.809C140.617 95.1729 140.219 95.4589 139.773 95.6452C139.327 95.8315 138.844 95.913 138.361 95.8834C137.695 95.8568 137.038 95.7256 136.413 95.4948C136.796 94.8205 136.983 94.0523 136.953 93.2773C136.962 92.8375 136.853 92.4032 136.637 92.0199C136.536 91.8453 136.389 91.7023 136.211 91.607C136.033 91.5116 135.833 91.4678 135.631 91.4804C135.294 91.5006 134.968 91.6059 134.682 91.7867C134.397 91.9674 134.162 92.2175 133.999 92.5137C133.544 93.1787 133.214 93.9208 133.025 94.7038C132.859 95.3743 132.768 96.0614 132.755 96.7522V99.0611L135.613 101.347C135.731 101.442 135.816 101.57 135.857 101.715C135.899 101.86 135.894 102.014 135.844 102.156C135.793 102.299 135.7 102.422 135.577 102.508C135.454 102.595 135.307 102.642 135.156 102.641H125.348C125.204 102.641 125.063 102.599 124.944 102.518C124.824 102.438 124.73 102.324 124.676 102.191C124.621 102.058 124.607 101.911 124.635 101.77C124.664 101.629 124.734 101.499 124.836 101.398L127.205 99.0474V92.3034L123.52 88.353H132.595V92.8429C132.897 92.1068 133.153 91.5215 133.373 91.0917C133.632 90.6056 133.938 90.1462 134.287 89.7201C134.645 89.2567 135.118 88.8956 135.659 88.673C136.261 88.4424 136.902 88.3306 137.547 88.3438C138.641 88.3275 139.707 88.6928 140.56 89.3772C140.973 89.6909 141.305 90.0984 141.529 90.5658C141.753 91.0333 141.863 91.5474 141.85 92.0656Z" fill="white"/>
<path d="M159.115 96.5276H148.599C148.568 97.0872 148.667 97.6463 148.888 98.1612C149.109 98.6761 149.447 99.1326 149.874 99.495C150.839 100.23 152.033 100.601 153.244 100.542C154.42 100.545 155.584 100.301 156.66 99.8242C157.625 99.4394 158.444 98.7572 158.996 97.8764C159.102 98.2259 159.152 98.5903 159.142 98.9555C159.142 101.967 156.551 103.474 151.37 103.477C149.13 103.548 146.937 102.833 145.17 101.456C143.49 100.106 142.652 98.2331 142.655 95.8372C142.627 94.7771 142.834 93.724 143.26 92.7533C143.687 91.7825 144.324 90.9183 145.124 90.2225C146.754 88.7614 148.879 87.9738 151.068 88.0187C152.145 87.9833 153.217 88.1807 154.212 88.5973C155.206 89.0139 156.098 89.64 156.829 90.4328C158.337 92.1006 159.154 94.2795 159.115 96.5276V96.5276ZM154.41 94.0723C154.445 93.2201 154.182 92.3823 153.665 91.7039C153.395 91.4085 153.066 91.1726 152.699 91.0113C152.333 90.8499 151.937 90.7666 151.536 90.7666C151.136 90.7666 150.74 90.8499 150.374 91.0113C150.007 91.1726 149.678 91.4085 149.408 91.7039C148.877 92.3697 148.602 93.2031 148.631 94.054L154.41 94.0723Z" fill="white"/>
<path d="M177.494 92.0647C177.527 93.059 177.202 94.0321 176.58 94.808C176.261 95.1722 175.862 95.4585 175.415 95.6448C174.968 95.831 174.484 95.9123 174.001 95.8825C173.337 95.8553 172.681 95.7242 172.058 95.4938C172.439 94.8189 172.624 94.0509 172.593 93.2763C172.604 92.8369 172.496 92.4027 172.282 92.0189C172.181 91.8443 172.033 91.7013 171.856 91.606C171.678 91.5107 171.477 91.4668 171.276 91.4794C170.939 91.4996 170.612 91.605 170.327 91.7857C170.041 91.9664 169.806 92.2165 169.644 92.5127C169.189 93.1777 168.859 93.9198 168.67 94.7028C168.503 95.3733 168.413 96.0604 168.4 96.7512V99.0602L171.258 101.346C171.375 101.441 171.461 101.569 171.502 101.714C171.543 101.859 171.538 102.013 171.488 102.155C171.438 102.298 171.345 102.421 171.221 102.507C171.098 102.594 170.951 102.641 170.8 102.64H160.993C160.849 102.64 160.708 102.598 160.588 102.517C160.468 102.437 160.375 102.323 160.32 102.19C160.265 102.057 160.251 101.91 160.28 101.769C160.308 101.628 160.378 101.498 160.481 101.397L162.849 99.0465V92.3024L159.164 88.352H168.258V92.8419C168.555 92.1058 168.816 91.5206 169.036 91.0908C169.295 90.6047 169.601 90.1452 169.95 89.7191C170.307 89.2557 170.78 88.8946 171.322 88.6721C171.924 88.4414 172.565 88.3296 173.21 88.3429C174.303 88.3264 175.367 88.6919 176.219 89.3762C176.629 89.6909 176.959 90.0989 177.181 90.5664C177.403 91.0339 177.51 91.5474 177.494 92.0647V92.0647Z" fill="white"/>
<path d="M19.8435 93.158C19.6577 93.4515 19.3942 93.6878 19.0822 93.8406C18.7703 93.9934 18.4221 94.0567 18.0763 94.0236C17.7305 93.9904 17.4007 93.8621 17.1234 93.6528C16.8462 93.4435 16.6324 93.1614 16.5058 92.838L12.4776 82.5779C12.3759 82.3195 12.3313 82.0422 12.3471 81.765C12.3629 81.4878 12.4386 81.2174 12.5689 80.9723C12.6993 80.7271 12.8813 80.5132 13.1023 80.3452C13.3234 80.1772 13.5782 80.0591 13.8493 79.9991L15.3719 79.6699H0L0.987603 80.0311C1.69707 80.2914 2.34514 80.6954 2.89116 81.2178C3.43719 81.7402 3.86941 82.3698 4.16073 83.0671L13.6481 105.809C13.698 105.93 13.7824 106.032 13.8906 106.105C13.9989 106.177 14.1261 106.215 14.2562 106.215C14.3864 106.215 14.5136 106.177 14.6218 106.105C14.7301 106.032 14.8144 105.93 14.8643 105.809L18.5221 97.4696L21.6953 90.2364L19.8435 93.158Z" fill="white"/>
<path d="M38.6041 90.2458L37.1135 92.6005L36.7569 93.1583C36.5711 93.4518 36.3076 93.6881 35.9956 93.8409C35.6837 93.9937 35.3355 94.057 34.9897 94.0238C34.6439 93.9907 34.3141 93.8623 34.0368 93.653C33.7596 93.4437 33.5458 93.1617 33.4192 92.8382L32.6876 90.9865L29.391 82.5964C29.2893 82.3381 29.2447 82.0608 29.2605 81.7836C29.2763 81.5064 29.352 81.2359 29.4823 80.9908C29.6127 80.7457 29.7947 80.5318 30.0157 80.3638C30.2368 80.1958 30.4916 80.0777 30.7627 80.0177L32.2807 79.6885H16.918L17.9056 80.0497C18.615 80.3099 19.2631 80.7139 19.8091 81.2364C20.3552 81.7588 20.7874 82.3884 21.0787 83.0857L29.8345 104.077L30.5661 105.828C30.6169 105.948 30.7019 106.05 30.8104 106.122C30.919 106.194 31.0463 106.232 31.1765 106.232C31.3067 106.232 31.434 106.194 31.5425 106.122C31.6511 106.05 31.7361 105.948 31.7869 105.828L32.3127 104.625C31.6863 104.511 31.0645 104.379 30.4472 104.223C31.0645 104.379 31.6863 104.511 32.3127 104.625L37.5205 92.7376L38.6041 90.2458Z" fill="white"/>
<path d="M12.2773 128.022C12.954 128.529 15.0207 128.685 16.8496 128.022C16.2582 128.003 15.6638 127.994 15.0664 127.994C14.6271 128.185 14.1538 128.286 13.6747 128.291C13.1955 128.296 12.7204 128.204 12.2773 128.022V128.022Z" fill="white"/>
<path d="M19.9894 123.828C19.9116 119.133 13.131 119.018 13.131 115.635C13.0944 113.902 16.862 111.483 19.2532 117.816V114.263C18.0873 113.038 9.69727 112.741 9.69727 117.816C9.69727 119.869 10.7626 121.016 12.0337 121.862C13.9083 123.138 16.231 123.833 16.2676 126.059C16.273 126.468 16.1625 126.869 15.9488 127.217C15.7351 127.565 15.4271 127.846 15.0605 128.026C15.6701 128.026 16.2645 128.035 16.8437 128.053C18.5217 127.459 19.9985 126.192 19.9985 123.906C19.9977 123.88 19.9946 123.854 19.9894 123.828V123.828Z" fill="white"/>
<path d="M163.488 128.022C164.165 128.529 166.232 128.685 168.061 128.022C167.475 128.022 166.881 127.994 166.282 127.994C165.842 128.185 165.368 128.286 164.888 128.291C164.408 128.296 163.932 128.204 163.488 128.022V128.022Z" fill="white"/>
<path d="M171.206 123.828C171.128 119.133 164.348 119.018 164.348 115.635C164.311 113.902 168.083 111.483 170.47 117.816V114.263C169.309 113.038 160.914 112.741 160.914 117.816C160.914 119.869 161.979 121.016 163.255 121.862C165.125 123.138 167.452 123.833 167.484 126.059C167.491 126.467 167.381 126.869 167.168 127.217C166.955 127.565 166.648 127.845 166.282 128.026C166.881 128.026 167.475 128.026 168.06 128.053C169.743 127.459 171.22 126.192 171.22 123.906C171.211 123.878 171.206 123.856 171.206 123.828Z" fill="white"/>
</svg>
